<svg xmlns="http://www.w3.org/2000/svg" xmlns:xlink="http://www.w3.org/1999/xlink" version="1.1" width="256" height="256" viewBox="0 0 256 256" xml:space="preserve">

<defs>
</defs>
<g style="stroke: none; stroke-width: 0; stroke-dasharray: none; stroke-linecap: butt; stroke-linejoin: miter; stroke-miterlimit: 10; fill: none; fill-rule: nonzero; opacity: 1;" transform="translate(1.4065934065934016 1.4065934065934016) scale(2.81 2.81)" >
	<polygon points="58.36,72.32 31.64,72.32 27.71,77.46 62.28,77.46 " style="stroke: none; stroke-width: 1; stroke-dasharray: none; stroke-linecap: butt; stroke-linejoin: miter; stroke-miterlimit: 10; fill: rgb(216,216,216); fill-rule: nonzero; opacity: 1;" transform="  matrix(1 0 0 1 0 0) "/>
	<path d="M 51.632 64.248 l 15.566 22.231 c 1.658 2.368 4.923 2.944 7.291 1.286 l 0 0 c 2.368 -1.658 2.944 -4.923 1.286 -7.291 L 61.609 60.241 L 51.632 64.248 z" style="stroke: none; stroke-width: 1; stroke-dasharray: none; stroke-linecap: butt; stroke-linejoin: miter; stroke-miterlimit: 10; fill: rgb(183,183,183); fill-rule: nonzero; opacity: 1;" transform=" matrix(1 0 0 1 0 0) " stroke-linecap="round" />
	<path d="M 28.477 60.241 L 14.311 80.473 c -1.658 2.368 -1.083 5.633 1.286 7.291 l 0 0 c 2.368 1.658 5.633 1.083 7.291 -1.286 l 15.566 -22.231 L 28.477 60.241 z" style="stroke: none; stroke-width: 1; stroke-dasharray: none; stroke-linecap: butt; stroke-linejoin: miter; stroke-miterlimit: 10; fill: rgb(183,183,183); fill-rule: nonzero; opacity: 1;" transform=" matrix(1 0 0 1 0 0) " stroke-linecap="round" />
	<path d="M 14.01 39.656 H 2.528 C 1.132 39.656 0 40.788 0 42.184 v 0 c 0 1.396 1.132 2.528 2.528 2.528 h 12.977 L 14.01 39.656 z" style="stroke: none; stroke-width: 1; stroke-dasharray: none; stroke-linecap: butt; stroke-linejoin: miter; stroke-miterlimit: 10; fill: rgb(183,183,183); fill-rule: nonzero; opacity: 1;" transform=" matrix(1 0 0 1 0 0) " stroke-linecap="round" />
	<path d="M 75.99 39.656 h 11.483 c 1.396 0 2.528 1.132 2.528 2.528 v 0 c 0 1.396 -1.132 2.528 -2.528 2.528 H 74.495 L 75.99 39.656 z" style="stroke: none; stroke-width: 1; stroke-dasharray: none; stroke-linecap: butt; stroke-linejoin: miter; stroke-miterlimit: 10; fill: rgb(183,183,183); fill-rule: nonzero; opacity: 1;" transform=" matrix(1 0 0 1 0 0) " stroke-linecap="round" />
	<path d="M 76.722 33.256 c 0 17.496 -14.183 31.679 -31.679 31.679 S 13.363 50.752 13.363 33.256 H 76.722 z" style="stroke: none; stroke-width: 1; stroke-dasharray: none; stroke-linecap: butt; stroke-linejoin: miter; stroke-miterlimit: 10; fill: rgb(247,89,89); fill-rule: nonzero; opacity: 1;" transform=" matrix(1 0 0 1 0 0) " stroke-linecap="round" />
	<path d="M 78.301 34.278 H 11.785 c -2.18 0 -3.947 -1.767 -3.947 -3.947 v -1.097 c 0 -2.18 1.767 -3.947 3.947 -3.947 h 66.516 c 2.18 0 3.947 1.767 3.947 3.947 v 1.097 C 82.248 32.512 80.481 34.278 78.301 34.278 z" style="stroke: none; stroke-width: 1; stroke-dasharray: none; stroke-linecap: butt; stroke-linejoin: miter; stroke-miterlimit: 10; fill: rgb(216,216,216); fill-rule: nonzero; opacity: 1;" transform=" matrix(1 0 0 1 0 0) " stroke-linecap="round" />
	<path d="M 38.454 56.603 c -0.093 0 -0.188 -0.013 -0.282 -0.04 c -7.788 -2.227 -14.028 -8.128 -16.692 -15.785 c -0.186 -0.533 0.096 -1.117 0.63 -1.302 c 0.535 -0.188 1.116 0.096 1.302 0.63 c 2.445 7.029 8.174 12.446 15.322 14.49 c 0.543 0.155 0.857 0.722 0.702 1.264 C 39.309 56.31 38.899 56.603 38.454 56.603 z" style="stroke: none; stroke-width: 1; stroke-dasharray: none; stroke-linecap: butt; stroke-linejoin: miter; stroke-miterlimit: 10; fill: rgb(251,153,153); fill-rule: nonzero; opacity: 1;" transform=" matrix(1 0 0 1 0 0) " stroke-linecap="round" />
	<path d="M 69.043 8.542 H 56.354 v 1.472 H 37.718 c -0.433 -1.425 -1.743 -2.472 -3.307 -2.472 h -8.637 v 2 h 8.637 c 0.812 0 1.472 0.66 1.472 1.472 s -0.66 1.472 -1.472 1.472 h -8.637 v 2 h 8.637 c 1.564 0 2.875 -1.047 3.307 -2.472 h 18.636 v 1.471 h 12.689 c 1.365 0 2.472 -1.107 2.472 -2.471 C 71.514 9.648 70.408 8.542 69.043 8.542 z" style="stroke: none; stroke-width: 1; stroke-dasharray: none; stroke-linecap: butt; stroke-linejoin: miter; stroke-miterlimit: 10; fill: rgb(183,183,183); fill-rule: nonzero; opacity: 1;" transform=" matrix(1 0 0 1 0 0) " stroke-linecap="round" />
	<path d="M 23.13 18.628 L 23.13 18.628 c -2.013 0 -3.644 -1.632 -3.644 -3.644 V 6.492 c 0 -2.013 1.632 -3.644 3.644 -3.644 h 0 c 2.013 0 3.644 1.632 3.644 3.644 v 8.492 C 26.774 16.997 25.142 18.628 23.13 18.628 z" style="stroke: none; stroke-width: 1; stroke-dasharray: none; stroke-linecap: butt; stroke-linejoin: miter; stroke-miterlimit: 10; fill: rgb(255,169,65); fill-rule: nonzero; opacity: 1;" transform=" matrix(1 0 0 1 0 0) " stroke-linecap="round" />
</g>
</svg>