<?xml version="1.0" encoding="utf-8"?>
<!-- Uploaded to: SVG Repo, www.svgrepo.com, Generator: SVG Repo Mixer Tools -->
<svg width="800px" height="800px" viewBox="-93.03 0 419.28 419.28" xmlns="http://www.w3.org/2000/svg"><defs><style>.a{fill:#ad7b59;}.b{fill:#211715;}.c{fill:#ffffff;}.d{fill:#f4b3b3;}.e{fill:#645d5b;}</style></defs><path class="a" d="M108.43,74.182a38.391,38.391,0,0,1-4.925-14.318,14.594,14.594,0,0,0,5.218-10.943c.006-2.031-.6-4.308-2.378-5.291a4.357,4.357,0,0,0-3.883-.012,6.407,6.407,0,0,0-1.987,1.49l-1.791-.316c-2.519-.444-11.8-7.611-12.852-10.111l-.081-.33c14.986.783,32.694,1.284,44.194.809a3.1,3.1,0,0,0,1.988-.856,66.429,66.429,0,0,1,.7,6.77c-.239,4.636,1.608,14.094,2.927,18.546,2.472,8.343,6.9,17.126,5.065,26.147-.9,4.419-3.424,9.45-9.333,10.413a24.976,24.976,0,0,0-7.822-4.869c-1.762-3.29-4.022-8.146-5.26-9.037a5.223,5.223,0,0,0-4.391-.944A38,38,0,0,1,108.43,74.182Z"/><path class="b" d="M130.635,41.074a52.542,52.542,0,0,0,1.343,12.033A91.177,91.177,0,0,0,135.4,65.544c2.647,7.7,6.38,18.033.947,25.4-2.435,3.3-6.464,3.83-10.272,3.072-2.514-.5-3.589,3.354-1.063,3.857,4.433.883,8.965.535,12.557-2.434a15.837,15.837,0,0,0,4.936-8.9c2.342-10.846-3.594-20.814-5.953-31.08-1.067-4.641-2.126-9.588-1.919-14.377.111-2.574-3.889-2.569-4,0Z"/><path class="c" d="M84.375,34.269l1.257.068.2.344c1.056,2.5,10.333,9.667,12.852,10.111l1.792.316a6.391,6.391,0,0,1,1.986-1.49,4.357,4.357,0,0,1,3.883.012c1.777.983,2.384,3.26,2.378,5.291A14.593,14.593,0,0,1,103.5,59.865a38.485,38.485,0,0,0,10.328,21.477,5.858,5.858,0,0,0-1.029.3A97.881,97.881,0,0,1,88.03,88.085c-.378-1.881-.692-3.457-.692-3.457-1.723.773-10.123.176-12.795-5.169l-.253-.578a7.6,7.6,0,0,1-3.078-.422,6.94,6.94,0,0,1-4.542-3.691c-1.88-3.112-2.2-8.959-2.394-11.575A7.478,7.478,0,0,0,62.4,60.138c-1.068-1.028-2.6-1.843-2.816-3.31-.286-1.925,1.821-3.2,3.234-4.54,3.251-3.077,3.077-9.132,2.956-13.607l-.291-5.742C70.281,33.392,76.953,33.864,84.375,34.269Z"/><path class="c" d="M72.134,20.987c1.244-7.8,4.558-12.691,11.935-15.953S103.112,1.3,111,2.976c4.615.978,10.577,3.544,14.083,6.7,5.535,4.982,8.749,15.991,8.176,21.873a3.8,3.8,0,0,1-3.317,3.61c-20.474.846-60.622-1.4-70.079-2.871-1.847-.287-3.26-.593-3.6-2.317-.192-.963.943-2.306,1.7-2.742A24.112,24.112,0,0,1,67.4,24.213"/><path class="b" d="M101.27,47.33c.87-1.3,2.859-2.983,4.339-1.8,1.278,1.021,1.252,3.347,1.014,4.977a12.742,12.742,0,0,1-6.731,9.35c-2.287,1.183-.267,4.636,2.019,3.454a16.577,16.577,0,0,0,8.812-14.39c0-2.965-1.144-6.188-4.1-7.348-3.526-1.383-6.9.885-8.8,3.738a2,2,0,1,0,3.454,2.019Z"/><path class="b" d="M63.776,38.681c.116,4.3.572,9.655-2.991,12.749-1.894,1.645-3.87,3.631-3.01,6.378.76,2.43,3.506,3.254,4.446,5.568a2.064,2.064,0,0,0,2.46,1.4,2.014,2.014,0,0,0,1.4-2.461,10.262,10.262,0,0,0-2.131-3.455c-.578-.589-2.123-1.361-2.331-2.177-.17-.667.645-1.232,1.088-1.634a17.8,17.8,0,0,0,2.57-2.557c2.845-3.87,2.625-9.245,2.5-13.808-.068-2.569-4.069-2.579-4,0Z"/><path class="b" d="M84.105,35.691a8.658,8.658,0,0,0,1.74,2.3,33.949,33.949,0,0,0,2.679,2.493,50.276,50.276,0,0,0,6.681,4.9,9.684,9.684,0,0,0,2.947,1.341,2,2,0,0,0,1.064-3.857,3.232,3.232,0,0,1-.4-.108c-.072-.024-.142-.053-.214-.078-.358-.123.395.191.126.053-.4-.207-.8-.4-1.194-.625-1.01-.582-1.98-1.237-2.928-1.915q-.8-.573-1.581-1.175c.317.244-.015-.014-.14-.113s-.241-.19-.36-.286q-.387-.31-.767-.626c-.949-.79-1.878-1.608-2.746-2.486-.379-.382-.727-.785-1.08-1.189-.2-.233.279.4.061.077-.054-.08-.112-.157-.165-.238a3.339,3.339,0,0,1-.266-.483,2.013,2.013,0,0,0-2.736-.718,2.051,2.051,0,0,0-.718,2.737Z"/><path class="b" d="M65.521,68.6c1.95.14,3.936-.166,5.879.094l-.532-.071c.121.017.242.038.361.065a2,2,0,1,0,1.063-3.857c-2.209-.5-4.535-.07-6.771-.231a2.011,2.011,0,0,0-2,2,2.047,2.047,0,0,0,2,2Z"/><path class="b" d="M70.768,45.847c-.422,1.435-.154,4.736,2.426,5.013,3.411-.028,3.6-4.019,2.454-5.894C74.71,43.432,71.947,42.8,70.768,45.847Z"/><path class="b" d="M62.239,62.755c.3,3.547.441,7.216,1.622,10.607a11.9,11.9,0,0,0,3.289,5.19,10.826,10.826,0,0,0,5.709,2.293,13.624,13.624,0,0,0,7.7-1.881c2.271-1.215.253-4.67-2.019-3.454A11.3,11.3,0,0,1,75.5,76.688a6.5,6.5,0,0,1-3.484-.064c-.265-.084-.527-.185-.787-.282-.086-.032-.754-.321-.3-.11a9.956,9.956,0,0,1-.968-.527q-.27-.194.012.019c-.088-.074-.175-.15-.259-.229a6.466,6.466,0,0,1-.521-.552,10.894,10.894,0,0,1-.847-1.263c-.109-.188-.212-.379-.307-.574-.057-.116-.111-.233-.163-.351.074.176.066.151-.024-.073-.186-.527-.363-1.053-.507-1.593a29.359,29.359,0,0,1-.639-3.219q-.052-.375-.017-.111c-.018-.141-.035-.282-.052-.423q-.049-.412-.093-.826-.069-.677-.126-1.355c-.066-.8-.117-1.6-.184-2.4a2.052,2.052,0,0,0-2-2,2.016,2.016,0,0,0-2,2Z"/><path class="b" d="M72.816,80.468c1.567,3.055,4.727,4.921,7.949,5.8,2.351.64,5.268,1.079,7.582.089a2.012,2.012,0,0,0,.718-2.737,2.052,2.052,0,0,0-2.736-.717c.759-.325.251-.113.034-.063a1.372,1.372,0,0,0-.284.052c.093-.048.588-.06.209-.03a12.271,12.271,0,0,1-1.383.036c-.271-.01-.542-.028-.813-.052-.122-.012-.244-.029-.367-.038-.356-.028.479.075-.1-.015a16.432,16.432,0,0,1-1.8-.382c-.3-.081-.593-.17-.885-.269q-.274-.093-.544-.2c-.085-.033-.544-.234-.062-.018a12.955,12.955,0,0,1-1.809-.963c-.123-.08-.241-.168-.363-.249-.177-.13-.159-.114.052.049-.077-.061-.153-.122-.228-.185a8.908,8.908,0,0,1-.748-.706c-.1-.107-.195-.221-.3-.33q-.207-.255.036.057c-.059-.079-.118-.16-.174-.241a8.152,8.152,0,0,1-.539-.91,2,2,0,0,0-3.453,2.019Z"/><path class="b" d="M74.063,21.518c.892-5.425,3.073-10.172,7.892-13.132,5.432-3.335,12.092-4.264,18.362-4.349,6.528-.09,12.93.938,18.759,4a18.822,18.822,0,0,1,6.786,5.5,28.922,28.922,0,0,1,3.9,7.937,29.171,29.171,0,0,1,1.557,8c.033,1,.151,2.28-.511,3.116-.674.853-1.98.612-2.954.641-5.33.159-10.666.132-16,.044q-17.5-.291-34.967-1.456c-4.329-.283-8.659-.594-12.975-1.038-.756-.078-1.512-.16-2.266-.253-.152-.018-.3-.038-.456-.057-.409-.05-.117-.015-.1-.013-.345-.049-.69-.1-1.034-.155a4.8,4.8,0,0,1-1.659-.429c-.246-.152-.2-.094-.006-.324a9.16,9.16,0,0,1,3.975-2.16,21.792,21.792,0,0,1,5.033-1.18,2.058,2.058,0,0,0,2-2,2.013,2.013,0,0,0-2-2,26.2,26.2,0,0,0-5.894,1.253,15.9,15.9,0,0,0-5.4,2.67,4.64,4.64,0,0,0-1.648,4.813,4.718,4.718,0,0,0,3.578,3.028c3.781.942,7.933,1.03,11.8,1.338,12.331.982,24.706,1.552,37.072,1.859,6.193.155,12.392.237,18.586.117,2.9-.056,6.315.373,8.344-2.129,2.053-2.531,1.575-6.187,1.115-9.185-.956-6.247-3.606-13.245-8.345-17.612C121.192,3.372,113.489.958,106.288.271,93.356-.961,76.212,1.642,71.37,15.656a29.069,29.069,0,0,0-1.164,4.8,2.06,2.06,0,0,0,1.4,2.46,2.015,2.015,0,0,0,2.46-1.4Z"/><path class="b" d="M84.547,46.747a21.584,21.584,0,0,0-.335,5.406,11.5,11.5,0,0,0,.288,2.674,4.8,4.8,0,0,0,1.448,2.235,5.616,5.616,0,0,0,4.634,1.123,4.673,4.673,0,0,0,3.482-3.516,2,2,0,0,0-3.858-1.063c0,.019-.106.361-.1.368.129-.282.147-.326.056-.133l-.059.11c-.236.415-.043-.02.029,0a3.406,3.406,0,0,0-.259.267c-.273.283.33-.188,0-.016-.054.033-.109.064-.166.092q-.2.1.186-.071a1.385,1.385,0,0,0-.309.095c.319-.155.505-.051.187-.045a6.367,6.367,0,0,1-.676-.027c-.112-.009-.226-.029-.338-.035.621.031.31.057.156.012a2.261,2.261,0,0,0-.254-.07c.262.118.324.144.188.077-.057-.027-.113-.058-.168-.091s-.108-.067-.16-.1q-.183-.129.152.116a3.07,3.07,0,0,0-.273-.274l.153.2a2.559,2.559,0,0,1-.142-.214l-.063-.111q-.142-.291.045.129c.005,0-.11-.368-.1-.365l.036.283-.027-.327c-.054-.662-.1-1.325-.122-1.99-.021-.645-.021-1.29.012-1.935.018-.338.058-.674.083-1.012q.025-.223-.018.111c.011-.084.024-.168.038-.252.031-.2.068-.391.107-.586a2,2,0,1,0-3.857-1.064Z"/><path class="b" d="M101.909,62.48a41.036,41.036,0,0,0,8.929,18.525,2.016,2.016,0,0,0,2.828,0,2.043,2.043,0,0,0,0-2.829,37,37,0,0,1-7.9-16.759,2.019,2.019,0,0,0-2.46-1.4,2.041,2.041,0,0,0-1.4,2.46Z"/><path class="d" d="M178.86,137c-5.981-7.99-13.461-13.95-20.648-19.1a210.659,210.659,0,0,0-21.356-15.1c-3.35-5.142-7.682-9.287-13.384-11.488-1.763-3.29-4.022-8.146-5.26-9.037a5.373,5.373,0,0,0-5.409-.636,95.3,95.3,0,0,1-27.834,6.738.71.71,0,0,0-.6.521,52.5,52.5,0,0,0-1.283,6.7l-.182.006c-4.861.151-8.4,4.492-11.234,8.441-1.22,1.7-2.44,3.339-3.66,4.938-7.092,9.294-14.176,17.19-21.271,27.065a24.719,24.719,0,0,1-4.311-6.759c-3.117.934-19.759,9.636-20.948,10.939-.883.967-.747,1.56-.491,2.061,4.5,8.819,9.627,17.978,15.324,25.384,2.166,2.815,6.5,3.113,7.9,3.032A38.764,38.764,0,0,0,63.1,165.1l2.913-1.629c-2.517,14.943-7.765,31.261,1.71,40.059A15.106,15.106,0,0,0,73.8,205.9c9.333,2.519,31.822-.518,45.748-3.555,3.125-.682,9.539-.12,13.825-3.778a9.729,9.729,0,0,0,2.606-3.811c5.865,3.56,13.914,7.937,19.022,9.533a2.2,2.2,0,0,0,2.515-1.063A325.424,325.424,0,0,0,181.2,152.051C182.311,149.009,182.433,141.776,178.86,137ZM147.1,158.126a124.632,124.632,0,0,0-6.685,13c-1.1,2.436-2.2,4.982-3.246,7.56-1.3-8.045-4.537-15.04-2.56-23.675,1.023-4.467,1.437-4.718,2.918-9.547a64.729,64.729,0,0,0,8.24,5.547C148.941,152.828,147.707,157.135,147.1,158.126Z"/><path class="c" d="M195.744,332.15q-1.959-.448-3.935-.817c3.682-5.684,8.723-15.331,10.839-23.349q2.609,1.424,5.1,3.044a3.183,3.183,0,0,0,.06.959c.59,2.839-.343,7.282-.914,10.2s-2.679,8.152-5.345,9.462a27.143,27.143,0,0,1-3.463,1.066Q196.917,332.418,195.744,332.15Z"/><path class="b" d="M200.659,309.186q2.613,1.38,5.118,2.952a2.018,2.018,0,0,0,2.736-.718,2.041,2.041,0,0,0-.718-2.736q-2.5-1.572-5.117-2.952a2.107,2.107,0,0,0-1.541-.2,2,2,0,0,0-.478,3.656Z"/><path class="b" d="M190.645,333.126q3.627.681,7.2,1.591a2,2,0,0,0,1.064-3.857q-3.576-.911-7.2-1.591a2.145,2.145,0,0,0-1.541.2,2,2,0,0,0,.477,3.656Z"/><path class="e" d="M231.031,324.13c.994-4.229-1.095-7.4-4.744-10.209-3.783-2.915-9.715-3.908-14.368-4.986-1.363-.316-3.449.152-4.006,1.435a2.71,2.71,0,0,0-.107,1.617c.59,2.839-.343,7.282-.914,10.2s-2.679,8.152-5.345,9.462c-2.325,1.142-4.586.479-5.092,3.019a27.5,27.5,0,0,1,1.5,15.748,45.446,45.446,0,0,0-1.03,6.7,8.78,8.78,0,0,0,2.031,6.29c2.693,2.855,6.812,2.373,10.175.351,4.135-2.486,9.108-12.276,13.077-22.714C224.432,335.2,229.749,329.582,231.031,324.13Z"/><path class="b" d="M232.959,324.661c1.177-5.464-1.866-9.889-6.246-12.89a25.017,25.017,0,0,0-7.516-3.178,48.229,48.229,0,0,0-7.559-1.711c-2.558-.268-5.544,1.067-5.849,3.877a33.274,33.274,0,0,0,.2,3.426,24.906,24.906,0,0,1-.365,3.9,34.469,34.469,0,0,1-1.59,6.71c-.631,1.666-1.556,3.8-3.062,4.869-1.784,1.262-4.161.718-5.623,2.65a3.591,3.591,0,0,0-.492,3.751,27.7,27.7,0,0,1,1.286,4.734,26.194,26.194,0,0,1-.079,8.85c-.5,2.955-1.383,5.949-1.087,8.974a9.827,9.827,0,0,0,3.382,6.925,9.034,9.034,0,0,0,7.534,1.619c4.646-.9,7.609-4.354,10.016-8.164,3.587-5.677,5.83-11.924,8.475-18.052,2.433-5.635,7.058-10.242,8.571-16.292.625-2.5-3.231-3.563-3.857-1.063-1.313,5.25-5.278,9.474-7.655,14.249-1.334,2.682-2.26,5.564-3.451,8.312-1.157,2.668-2.4,5.3-3.8,7.856-1.975,3.607-4.244,7.787-8.316,9.034-2.046.626-4.365.478-5.762-1.345-1.536-2-1.321-4.869-.917-7.2a52.258,52.258,0,0,0,1.257-10.351,29.506,29.506,0,0,0-2.078-10.019V335.2c.145-.591.258-.587.874-.755a22.378,22.378,0,0,0,2.489-.716,8.858,8.858,0,0,0,4.061-3.6,26.481,26.481,0,0,0,3.547-10.215,30.7,30.7,0,0,0,.632-6.272,13.535,13.535,0,0,0-.149-1.557c-.035-.239-.223-.73-.084-.937.229-.343,1.238-.341,1.587-.3a45.52,45.52,0,0,1,5.64,1.3,28.611,28.611,0,0,1,5.964,2.053c3.492,1.771,7.074,5.141,6.157,9.4C228.562,326.108,232.417,327.18,232.959,324.661Z"/><path class="c" d="M34.759,380.725q.042-.686.076-1.37c6.725,2.89,17.092,6.4,25.1,7.356q-.952,2.514-2.073,4.958a3.061,3.061,0,0,0-.964.2c-2.794,1.024-7.443.741-10.487.6s-8.675-1.5-10.4-4.01a27.958,27.958,0,0,1-1.6-3.359Q34.623,382.914,34.759,380.725Z"/><path class="b" d="M58.642,384.428q-.794,2.245-1.717,4.443l.2-.478q-.252.6-.514,1.193a2.183,2.183,0,0,0-.2,1.541,2.041,2.041,0,0,0,.919,1.195,2.013,2.013,0,0,0,1.541.2,1.94,1.94,0,0,0,1.2-.919c.883-2.009,1.7-4.045,2.432-6.114a2,2,0,0,0-1.4-2.46,2.05,2.05,0,0,0-2.46,1.4Z"/><path class="b" d="M32.907,377.862q-.148,3.781-.537,7.549a2,2,0,0,0,.586,1.414,2.032,2.032,0,0,0,1.414.586,2.057,2.057,0,0,0,2-2q.389-3.765.537-7.549a2.015,2.015,0,0,0-2-2,2.042,2.042,0,0,0-2,2Z"/><path class="e" d="M48.042,417.256c4.441.376,7.344-2.218,9.652-6.342,2.393-4.276,2.513-10.445,2.912-15.329.117-1.431-.67-3.478-2.056-3.852a2.779,2.779,0,0,0-1.657.133c-2.794,1.024-7.443.741-10.487.6s-8.675-1.5-10.4-4.01c-1.507-2.189-1.172-4.583-3.826-4.716a28.213,28.213,0,0,1-15.76,3.88,46.614,46.614,0,0,0-6.95-.044,9.011,9.011,0,0,0-6.08,3C.892,393.737,2,397.845,4.553,400.957c3.141,3.824,13.822,7.407,25.01,9.875C35.824,412.213,42.316,416.77,48.042,417.256Z"/><path class="b" d="M48.042,419.256c5.3.357,9.223-3.2,11.554-7.657a24.113,24.113,0,0,0,2.285-7.994,58.552,58.552,0,0,0,.736-8.314c-.024-2.594-1.64-5.489-4.48-5.626-1.273-.061-2.472.568-3.718.753a25.538,25.538,0,0,1-4.045.19,33.587,33.587,0,0,1-6.667-.52c-1.9-.408-4.4-.984-5.8-2.46-1.42-1.5-1.347-3.9-3.222-5.129a3.683,3.683,0,0,0-3.714-.378,34.953,34.953,0,0,1-3.962,1.887,26.719,26.719,0,0,1-8.409,1.609c-3.226.1-6.455-.423-9.669.028a10.715,10.715,0,0,0-7.275,3.922A8.872,8.872,0,0,0,.391,397.4c1.4,4.816,5.266,7.548,9.62,9.494,6.371,2.848,13.087,4.313,19.8,6.055,6.251,1.62,11.7,5.66,18.227,6.307a2.014,2.014,0,0,0,2-2,2.043,2.043,0,0,0-2-2,26.089,26.089,0,0,1-7.64-2.433c-2.623-1.145-5.225-2.378-7.951-3.267-3.036-.991-6.23-1.518-9.313-2.358-2.891-.787-5.761-1.666-8.566-2.724-3.87-1.459-8.319-3.223-10.035-7.306-.913-2.171-.719-4.654,1.245-6.176,2.251-1.744,5.4-1.611,8.082-1.488a42.061,42.061,0,0,0,10.056-.481,30.3,30.3,0,0,0,9.266-3.558l-1.009.273c.458.042.536.408.732.845a21.642,21.642,0,0,0,1.172,2.581,8.908,8.908,0,0,0,4.048,3.3,28.337,28.337,0,0,0,11.09,2.119,31.142,31.142,0,0,0,6.613-.369c.451-.083,1.859-.725,2.23-.522.468.257.557,1.3.55,1.745-.035,2.128-.284,4.306-.514,6.421a26.492,26.492,0,0,1-1.4,6.482,13.742,13.742,0,0,1-3.581,5.324,6.62,6.62,0,0,1-5.074,1.591C45.473,415.082,45.483,419.083,48.042,419.256Z"/><path class="c" d="M146.4,275.7c-3.381-1.359-5.7-2.559-6.681-4.241.269-7.111,1.262-16.963-.22-23.185a29.473,29.473,0,0,0-.956-3.812,53.21,53.21,0,0,0,5.179-9.744c2.3-5.481,4.812-15.59,2.852-22.926a43.588,43.588,0,0,0-10.052-18.656,10.913,10.913,0,0,1-3.154,5.434c-4.285,3.658-10.7,3.1-13.824,3.778-13.926,3.037-36.415,6.074-45.748,3.555a19.017,19.017,0,0,1-3.3-.909,31.887,31.887,0,0,0,.415,7.02c.444,4.889,2.6,13.57,5.222,20.445l.362.947c-7.855,15.992-16.932,36.437-19.584,45.386-1.889,5.778-4.151,13.111-5.633,18.889-1.634,6.375-3.555,13.037-5.464,19.647C40.274,336.5,35.279,355.9,31.128,377.014c7.444,4.508,27.448,10.778,33.6,10.889,12.5-22.421,25.236-64.362,30.518-89.481a32.646,32.646,0,0,1,3.26-7.037c1.011-1.288,1.97-2.514,2.891-3.691.28.748.472,1.246.472,1.246a27.5,27.5,0,0,0,5.37,10.642l.328.385c3.057,3.61,8.622,6.733,12.865,8.825,15.684,7.736,57.023,22.891,70.222,24.889,4.3-5.185,10.891-18.773,11.555-29.778A373.04,373.04,0,0,0,163.1,282.57C156.273,279.262,150.541,277.362,146.4,275.7Z"/><path class="c" d="M17.294,135.1a7.752,7.752,0,0,1-1.5-1.017c-2.076-1.707-6.109-7.41-6.769-10.01l-.143-.724c-.25-.246-.53-.524-.9-.888-1.166-1.139-3.032-3.248-3.387-4.84a4.23,4.23,0,0,1,5.3-4.986,3.482,3.482,0,0,1,1.422-3.548,3.957,3.957,0,0,1,4.158-.3,3.006,3.006,0,0,1,1.366-3.34,4.188,4.188,0,0,1,4.751-.276c-.22-2.177.716-3.88,2.867-4.281a4.572,4.572,0,0,1,5.064,3.171l.328,1.186a3.169,3.169,0,0,1,.38-.1c2.471-.481,5.545-1.236,7.537.3a7.2,7.2,0,0,1,1.779,2.458c1.455,2.767,2.954,5.746,2.621,8.855-.255,2.384-1.56,4.506-2.425,6.742s-1.229,4.971.232,6.872l.083.109c-4.778,2.181-13.687,6.855-17.041,8.954a6.871,6.871,0,0,0-3.172-3.524c-.741-.313-1.56-.4-2.3-.709C17.452,135.176,17.373,135.14,17.294,135.1Z"/><path class="b" d="M41.692,129.37c-2.15-3.059.978-7.079,1.935-10.028,1.356-4.179-.124-8.124-2.051-11.845-.867-1.673-1.8-3.36-3.565-4.225a9.266,9.266,0,0,0-5.446-.565,11.823,11.823,0,0,0-5.06,1.449,5.575,5.575,0,0,0-2.676,4.414,5.449,5.449,0,0,0,2.3,4.648,7.986,7.986,0,0,0,2.337.77,2.447,2.447,0,0,0,.8.179c.534-.11-.219-.2-.084-.253.037-.015.332,1.544.351,1.683a2.014,2.014,0,0,0,2.461,1.4,2.053,2.053,0,0,0,1.4-2.46,7.143,7.143,0,0,0-.906-2.918,3.344,3.344,0,0,0-2.37-1.356c-1.008-.228-2.7-.275-2.282-1.832.368-1.374,2.672-1.517,3.767-1.707,1.631-.282,3.508-.506,4.55,1.027a20.873,20.873,0,0,1,2.708,5.843,8.641,8.641,0,0,1-.595,6.025c-1.573,3.681-3.668,8.009-1.023,11.773,1.469,2.09,4.938.094,3.454-2.019Z"/><path class="b" d="M31.442,103.528a6.625,6.625,0,0,0-7.354-4.591,5.59,5.59,0,0,0-4.506,6.233l3.009-1.727a6.337,6.337,0,0,0-6.5.119,5.089,5.089,0,0,0-2.625,5.224l3.009-1.727c-4.4-2-9.335,1.118-8.518,6.11l2.461-2.461a6.322,6.322,0,0,0-7.7,4.4c-.864,3.29,1.249,6.089,3.413,8.328,1.88,1.946,4.376,4.937,7.266,5.03,3.634.116,6.084-3.289,5.743-6.713L16.6,123.682c4.292,1.243,8.146-1.9,8.542-6.165l-2.531,1.928c2,.626,4.684.554,6.364-.83a4.977,4.977,0,0,0,.992-6.329c-1.208-2.275-4.662-.256-3.454,2.018.96,1.806-1.858,1.592-2.839,1.284a2.027,2.027,0,0,0-2.532,1.929,2.674,2.674,0,0,1-3.479,2.308,2.013,2.013,0,0,0-2.531,1.929c.126,1.261-.457,3.32-2.113,2.535-1.406-.666-2.755-2.351-3.843-3.451-.98-.991-2.559-2.463-2.682-3.936a2.266,2.266,0,0,1,2.857-2.336,2.029,2.029,0,0,0,2.46-2.461c-.228-1.394,1.591-2.071,2.642-1.593,1.194.543,3.224-.058,3.01-1.726-.112-.871-.129-1.324.643-1.77a2.248,2.248,0,0,1,2.464-.119,2.018,2.018,0,0,0,3.01-1.727c-.08-1.076.014-2.091,1.234-2.315a2.563,2.563,0,0,1,2.769,1.736c.788,2.44,4.651,1.4,3.857-1.063Z"/><path class="b" d="M8.378,114.016a97.383,97.383,0,0,0,6.523,8.517,2.011,2.011,0,0,0,2.829,0,2.051,2.051,0,0,0,0-2.828c-.613-.708-1.206-1.432-1.789-2.164q-.206-.258-.41-.519l-.245-.313c-.041-.053-.28-.361-.086-.11s-.043-.056-.084-.11l-.237-.31c-.143-.188-.285-.375-.426-.563-.9-1.19-1.778-2.392-2.621-3.619a2,2,0,1,0-3.454,2.019Z"/><path class="b" d="M14.176,110.3c2.236,2.733,4.64,5.324,6.876,8.057a2.006,2.006,0,0,0,2.828,0,2.056,2.056,0,0,0,0-2.828c-2.236-2.733-4.64-5.325-6.876-8.058a2.006,2.006,0,0,0-2.828,0,2.057,2.057,0,0,0,0,2.829Z"/><path class="b" d="M20.687,106.918c-.658-.5-.177-.134-.026-.006.127.109.251.22.374.333.265.243.523.494.776.75.606.61,1.187,1.245,1.75,1.895q.45.52.883,1.056c.125.155.247.315.373.47-.452-.557.049.067.155.212a14.633,14.633,0,0,1,1.206,1.863,2.017,2.017,0,0,0,2.737.718,2.046,2.046,0,0,0,.717-2.737,24.142,24.142,0,0,0-3.243-4.41,25,25,0,0,0-3.683-3.6,2.005,2.005,0,0,0-1.541-.2,2,2,0,0,0-1.4,2.46,2.354,2.354,0,0,0,.919,1.2Z"/><path class="b" d="M7.094,124.606a17.539,17.539,0,0,0,2.319,4.708,39.325,39.325,0,0,0,3.5,4.71,10.3,10.3,0,0,0,4.946,3.39,3.915,3.915,0,0,1,2.42,1.354,14.326,14.326,0,0,1,1.517,2.775,2.015,2.015,0,0,0,2.736.717,2.047,2.047,0,0,0,.718-2.736c-.934-2.037-2.107-4.176-4.189-5.232-1.106-.561-2.4-.613-3.43-1.306A8.753,8.753,0,0,1,16.11,131.6a28.182,28.182,0,0,1-3.124-4.125c-.491-.759-.958-1.535-1.375-2.337-.165-.319-.323-.641-.466-.971.183.422,0-.007-.032-.107-.056-.174-.114-.345-.162-.522-.667-2.483-4.527-1.429-3.857,1.063Z"/><path class="b" d="M30.119,378.741c5.451,3.268,11.739,5.367,17.762,7.3,3.183,1.019,6.4,1.952,9.654,2.713a35.915,35.915,0,0,0,7.2,1.154c2.575.066,2.573-3.934,0-4a31.3,31.3,0,0,1-6.4-1.075c-3.162-.751-6.287-1.658-9.381-2.649-5.709-1.827-11.64-3.794-16.807-6.891-2.214-1.327-4.227,2.13-2.019,3.453Z"/><path class="b" d="M82.068,218.227c-4.257,7.722-8.107,15.676-11.857,23.653-4.07,8.657-8,17.392-11.565,26.273a243.234,243.234,0,0,0-8.479,25.926C46.659,306.806,43,319.5,39.567,332.242c-3.941,14.629-7.438,29.375-10.367,44.241-.5,2.514,3.359,3.59,3.857,1.063q3.9-19.809,9.064-39.339c3.39-12.927,7.355-25.694,10.729-38.624A257.627,257.627,0,0,1,61.4,272.026c3.254-8.446,6.969-16.719,10.774-24.928,4.2-9.063,8.526-18.1,13.351-26.852,1.244-2.256-2.209-4.276-3.454-2.019Z"/><path class="b" d="M141.795,234.187c-1.327,4.5-3.989,8.606-6.724,12.373a104.379,104.379,0,0,1-12.062,13.447,227.087,227.087,0,0,0-20.258,22.747c-1.979,2.514-4.179,4.971-5.969,7.621a28.872,28.872,0,0,0-3.461,7.515,2.019,2.019,0,0,0,1.928,2.532h0l-1.928-2.532c-2.467,11.7-5.6,23.26-9.062,34.7a392.305,392.305,0,0,1-13.167,37.325A168.3,168.3,0,0,1,63,386.894c-1.251,2.252,2.2,4.272,3.454,2.019,5.864-10.555,10.327-21.909,14.4-33.253,4.487-12.492,8.4-25.2,11.819-38.023,1.649-6.19,3.178-12.415,4.5-18.683a2.028,2.028,0,0,0-1.929-2.532h0l1.929,2.532a26.02,26.02,0,0,1,3.025-6.512c1.5-2.292,3.442-4.4,5.138-6.557,3.03-3.853,6.1-7.681,9.326-11.369,7.482-8.539,16.291-15.825,23.119-24.935,3.245-4.329,6.324-9.1,7.866-14.331.729-2.474-3.13-3.531-3.857-1.063Z"/><path class="b" d="M79.02,118.637a36.2,36.2,0,0,0-8.048,9.325,42.169,42.169,0,0,0-5.366,11.265c-.987,3.616-.823,7.17-.567,10.87a47.78,47.78,0,0,1-.479,9.787c-1,7.27-2.827,14.4-3.769,21.679-.812,6.277-1.009,13.119,2.046,18.87a13.176,13.176,0,0,0,7.445,6.606,33.718,33.718,0,0,0,8.8,1.661c7.094.5,14.3-.217,21.338-1.1q5.764-.724,11.491-1.725c3.062-.537,6.368-1.458,9.314-1.775,3.485-.375,6.953-.571,10.209-2a12.365,12.365,0,0,0,6.929-8.119c2.079-6.955,1.282-14.153-.344-21.1a64.521,64.521,0,0,1-1.969-10.435,29.053,29.053,0,0,1,1.589-10.978c.525-1.61,1.1-3.2,1.615-4.815.777-2.46-3.083-3.513-3.857-1.063a84.717,84.717,0,0,0-2.915,9.858,31.383,31.383,0,0,0,.03,10.876c1.143,7.075,3.718,13.8,3.021,21.078a19.875,19.875,0,0,1-2.011,7.85c-1.71,2.961-5.175,3.987-8.364,4.441-1.436.2-2.887.275-4.326.447-1.466.175-2.894.512-4.339.806q-5.079,1.032-10.206,1.82A157.68,157.68,0,0,1,84.8,204.827a50.013,50.013,0,0,1-8.222-.387c-2.756-.429-6.194-.955-8.178-3.056-3.969-4.2-4.377-10.317-4.011-15.8.454-6.792,2.115-13.446,3.305-20.129a90.99,90.99,0,0,0,1.33-10.094c.209-3.273-.192-6.481-.223-9.747a21.591,21.591,0,0,1,2.475-10.141,52.873,52.873,0,0,1,6.49-10.1,28.952,28.952,0,0,1,4.086-3.911,2.013,2.013,0,0,0,0-2.829,2.052,2.052,0,0,0-2.829,0Z"/><path class="b" d="M82.9,93.608c-7.1.374-11.038,6.884-14.846,12.011-4.67,6.289-9.722,12.277-14.615,18.391-2.892,3.614-5.725,7.276-8.431,11.032l3.141-.405a22.687,22.687,0,0,1-3.927-6.188,2.015,2.015,0,0,0-2.737-.717,2.05,2.05,0,0,0-.717,2.736,25.826,25.826,0,0,0,4.553,7,2.027,2.027,0,0,0,3.141-.405c5.567-7.727,11.747-14.968,17.66-22.425,2.876-3.628,5.55-7.4,8.369-11.068,2.062-2.682,4.78-5.769,8.409-5.96,2.561-.135,2.577-4.136,0-4Z"/><path class="b" d="M41.412,127.53a108.105,108.105,0,0,0-11.806,5.69c-2.09,1.1-4.172,2.217-6.217,3.4a14.058,14.058,0,0,0-3.465,2.372,3.845,3.845,0,0,0-.454,4.72c.9,1.785,1.838,3.555,2.786,5.318,1.939,3.608,3.965,7.173,6.134,10.649a65.566,65.566,0,0,0,6.829,9.792c1.949,2.119,4.918,3,7.71,3.216a33.111,33.111,0,0,0,10.22-1.243,46.045,46.045,0,0,0,10.962-4.612c2.25-1.251.235-4.707-2.019-3.454A39.988,39.988,0,0,1,44.437,168.7a8.8,8.8,0,0,1-5.7-1.413,13.309,13.309,0,0,1-2.517-3.065q-1.7-2.367-3.275-4.823c-2-3.107-3.878-6.3-5.673-9.527q-1.242-2.235-2.435-4.5-.646-1.226-1.283-2.456c-.21-.407-.423-.814-.629-1.224-.548-1.089-.168.682-.029-.045.018-.092.62-.458-.072.032.193-.137.388-.271.586-.4.652-.425,1.325-.817,2-1.206,1.8-1.037,3.619-2.022,5.45-2.993q3.411-1.808,6.874-3.515c.942-.462,1.888-.918,2.842-1.357q.624-.286,1.255-.562c.529-.23-.362.142.13-.055.172-.068.344-.137.517-.2a2.056,2.056,0,0,0,1.4-2.46,2.016,2.016,0,0,0-2.46-1.4Z"/><path class="b" d="M137.573,248.805c1.4,6.1.66,12.713.328,18.9-.073,1.369-.574,3.52.093,4.764a6.458,6.458,0,0,0,1.522,1.783,19.508,19.508,0,0,0,5.223,2.911c5.776,2.428,11.7,4.409,17.353,7.135,6.38,3.076,12.719,6.246,18.961,9.593q10.281,5.513,20.15,11.74c2.185,1.375,4.195-2.085,2.019-3.454q-12.917-8.124-26.507-15.071c-4.822-2.473-9.667-4.933-14.59-7.2-4.392-2.023-8.913-3.713-13.425-5.444a41.513,41.513,0,0,1-4.8-2.073c-.318-.171-.633-.349-.938-.543-.115-.072-.227-.147-.339-.222-.279-.184-.15-.094-.211-.143a8.122,8.122,0,0,1-.647-.6c-.042-.043-.275-.313-.113-.112s-.177-.27-.208-.322l.273,1.01c.306-7.807,1.477-16.008-.291-23.717-.575-2.508-4.433-1.446-3.857,1.063Z"/><path class="b" d="M68.909,212.014A81.984,81.984,0,0,0,74.2,232.991a2.055,2.055,0,0,0,2.46,1.4,2.015,2.015,0,0,0,1.4-2.46,100.168,100.168,0,0,1-3.387-10.8,61.491,61.491,0,0,1-1.764-9.109,2.055,2.055,0,0,0-2-2,2.014,2.014,0,0,0-2,2Z"/><path class="b" d="M99.943,289.472a27.943,27.943,0,0,0,6,11.66c2.8,3.341,6.667,5.757,10.46,7.825a168.538,168.538,0,0,0,16.508,7.524c13.264,5.466,26.777,10.437,40.464,14.737a115.014,115.014,0,0,0,16.749,4.392,2.064,2.064,0,0,0,2.46-1.4,2.014,2.014,0,0,0-1.4-2.46,102.161,102.161,0,0,1-14-3.542c-6.574-2-13.082-4.212-19.55-6.525-12-4.292-24.083-8.744-35.562-14.31-4.053-1.966-8.24-4.145-11.562-7.233a23.346,23.346,0,0,1-6.717-11.734c-.544-2.515-4.4-1.451-3.857,1.063Z"/><path class="b" d="M200.212,303.9a51.909,51.909,0,0,1-4.269,16.361,49.42,49.42,0,0,1-6.7,12c-1.618,1.976,1.195,4.822,2.828,2.828a53.773,53.773,0,0,0,7.579-13.41,55.825,55.825,0,0,0,4.562-17.782c.17-2.57-3.83-2.559-4,0Z"/><path class="b" d="M187.088,44.385a8.689,8.689,0,0,0-7.111-9.613c-5.322-.92-10.358.986-14.572,4.17-1.059.8-1.521,2.76,0,3.454a20.076,20.076,0,0,1,5.755,3.753c1.93,1.859,3.439,3.949,6.081,4.853a7.827,7.827,0,0,0,5.925-.422,8.041,8.041,0,0,0,3.851-5.663,2.058,2.058,0,0,0-1.4-2.46,2.018,2.018,0,0,0-2.461,1.4,5.6,5.6,0,0,1-1.149,2.6c-.139.171-.325.3-.463.473-.107.13.385-.2.081-.073-.128.053-.886.411-.434.249a3.356,3.356,0,0,1-1.769.284,4.6,4.6,0,0,1-2.039-.719,12.138,12.138,0,0,1-2.261-2.189,24.772,24.772,0,0,0-2.271-2.183,23.8,23.8,0,0,0-5.431-3.358V42.4c3.388-2.559,7.022-4.227,11.234-3.791a5.726,5.726,0,0,1,2.14.617,3.108,3.108,0,0,1,.861.6,6.1,6.1,0,0,1,.448.462c.236.273-.013-.06.2.266a5.042,5.042,0,0,1,.785,3.835,2.01,2.01,0,0,0,2,2A2.05,2.05,0,0,0,187.088,44.385Z"/><path class="b" d="M165.113,28.353a34.152,34.152,0,0,1,2.225-4.44,10.779,10.779,0,0,1,2.32-2.831c.094-.082.191-.164.289-.241-.278.217.04-.024.114-.071.23-.146.455-.295.694-.424a8.067,8.067,0,0,1,1.959-.72,5.237,5.237,0,0,1,1.689-.154c.4.01.16.018.063,0,.158.028.315.065.471.108a4.478,4.478,0,0,1,.451.147c-.319-.126.126.077.2.119.1.058.626.429.377.228a6.885,6.885,0,0,1,.71.688c.074.079.193.323.026.033.064.11.128.219.183.333-.136-.283.039.126.062.2.067.209.122.422.168.637a2.337,2.337,0,0,1,.081.666c.007.17,0,.339,0,.51-.01.342.125-.4-.01.1-.029.109-.053.219-.084.328-.027.093-.238.673-.1.334s-.1.186-.15.273c-.039.065-.094.135-.127.205-.168.347.236-.2.05-.057-.148.117-.275.287-.42.414.486-.427-.52.2.015-.008-.112.043-.872.219-.448.163a4.647,4.647,0,0,1-.9.015,3.513,3.513,0,0,1-.773-.136c-.481-.109-.96-.22-1.446-.3a17.564,17.564,0,0,0-9.948.947,2.067,2.067,0,0,0-1.4,2.46,2.011,2.011,0,0,0,2.46,1.4,14.207,14.207,0,0,1,9.267-.642,7.081,7.081,0,0,0,5.13-.435,5.6,5.6,0,0,0,2.342-2.75,7.29,7.29,0,0,0-2.013-8.319c-2.965-2.383-7.09-1.943-10.22-.055-3.36,2.026-5.274,5.78-6.764,9.263a2.068,2.068,0,0,0,.717,2.737,2.014,2.014,0,0,0,2.736-.718Z"/><path class="b" d="M84.871,97.5c.156-1.69.43-3.367.741-5.034.128-.688.261-1.376.418-2.058.054-.232.132-.466.174-.7.078-.43.077.016-.09.161l-.882.514a18.518,18.518,0,0,1,3.021-.324q1.629-.189,3.25-.433,3.036-.453,6.032-1.127a100.588,100.588,0,0,0,10.832-3.114c1.668-.576,3.308-1.223,4.967-1.819,1.339-.481,2.956-.6,3.956.61,1.757,2.134,3.067,5.538,4.455,8.143,1.21,2.273,4.664.255,3.454-2.019-.9-1.691-1.751-3.409-2.655-5.1a17.494,17.494,0,0,0-2.556-4.006,7.057,7.057,0,0,0-5.679-1.957c-2.032.218-3.974,1.217-5.886,1.9a102.608,102.608,0,0,1-12.16,3.552c-2.222.493-4.464.906-6.72,1.21-1.126.152-2.256.274-3.387.377-1.2.109-2.391.09-3.2,1.119s-.937,2.613-1.17,3.849c-.391,2.07-.72,4.16-.914,6.258a2.014,2.014,0,0,0,2,2,2.043,2.043,0,0,0,2-2Z"/><path class="c" d="M151.8,209.422c-1.665,2.469-2.246,8.075-3.487,10.747a17.428,17.428,0,0,1-4.521,6.1c-1.985,1.8-5.122,2.137-7.836,1.818-2.661-.313-5.327-.916-6.942-2.967-2.555.187-5.382-.44-6.616-2.818-2.13.558-4.008-.127-5.845-1.567a4.25,4.25,0,0,1-1.257-2,11.083,11.083,0,0,1,.6-4.059,10.672,10.672,0,0,1,2.741-4.208c-3.153-.914-1.292-6.873,1.526-10.1a12.737,12.737,0,0,1,5.109-3.06c3.776-1.095,5.712-1.324,8.156-1.1l3.371-5.556,18.444,11.333Z"/><path class="b" d="M122.9,205.554a26.279,26.279,0,0,0-5.606,3.427,12.3,12.3,0,0,0-3.607,6.1c-.586,2.425-.711,4.785,1.11,6.735a8.622,8.622,0,0,0,8.126,2.413l-2.258-.92c1.691,2.992,5.083,4,8.343,3.809l-1.414-.586c2.527,3.012,7.271,3.875,11.024,3.632a11.126,11.126,0,0,0,5.608-1.715,17.232,17.232,0,0,0,4.256-4.5c3.46-5.056,4.19-11.59,6.351-17.221a2.014,2.014,0,0,0-1.4-2.46,2.047,2.047,0,0,0-2.461,1.4c-.852,2.22-1.489,4.527-2.18,6.8-.393,1.29-.786,2.58-1.2,3.863-.174.533-.351,1.065-.539,1.593-.082.23-.165.46-.252.688-.036.095-.276.676-.149.386-1.1,2.517-3.066,5.7-5.768,6.7a12.079,12.079,0,0,1-8.781-.614,13.364,13.364,0,0,1-1.883-1.538c-.811-.6-1.786-.351-2.729-.421a3.943,3.943,0,0,1-3.372-1.835,2.05,2.05,0,0,0-2.259-.92c-1.5.34-4.128-.35-4.627-2.045a3.324,3.324,0,0,1,.033-.558c.017-.24.05-.471.089-.709a9.2,9.2,0,0,1,.579-2.133c1.353-3.177,4.093-4.406,6.985-5.917,2.282-1.192.262-4.645-2.019-3.454Z"/><path class="b" d="M133.427,194.2a19.275,19.275,0,0,0-5.616.387,20.322,20.322,0,0,0-6.494,2.339A13.71,13.71,0,0,0,115,207.372a4.668,4.668,0,0,0,3.068,5.014,2,2,0,0,0,1.063-3.857q-.317-.111.095.048a2.2,2.2,0,0,1-.224-.133c.232.189.271.212.114.07q-.212-.236.075.115c-.092-.176-.191-.587-.085-.1-.039-.179-.095-.356-.134-.537.121.554.014-.075.013-.218,0-.218.019-.434.036-.651-.04.5.047-.234.067-.331.039-.18.082-.358.13-.536a11.008,11.008,0,0,1,2.679-4.819,12.341,12.341,0,0,1,5.846-2.735c.547-.135,1.1-.259,1.651-.361.263-.048.527-.094.792-.13-.421.058.324-.029.4-.035a16.615,16.615,0,0,1,2.839.024,2.016,2.016,0,0,0,2-2,2.04,2.04,0,0,0-2-2Z"/><path class="d" d="M168.887,181.526c-3.518,7.386-7.292,14.581-11.374,21.7A2.2,2.2,0,0,1,155,204.292c-6.356-1.986-17.265-8.278-22.861-11.944a213.5,213.5,0,0,1,8.212-21.077"/><path class="b" d="M131.351,102c10.174,5.387,19.1,12.6,28.311,19.419a99.22,99.22,0,0,1,11.984,10.26c3.421,3.5,6.961,7.182,7.933,12.129a17.617,17.617,0,0,1,.19,5.635,28.1,28.1,0,0,1-1.969,6.048q-3,7.953-6.4,15.749a322.133,322.133,0,0,1-14.939,29.8c-.186.327-.379.651-.559.982,0,0-.338.489-.15.264-.286.342-.3.053-.066.1a5.982,5.982,0,0,1-.664-.192c-.886-.3-1.761-.632-2.623-1-2.308-.972-4.553-2.1-6.768-3.268-4.265-2.245-8.445-4.678-12.48-7.314l.919,2.258a193.683,193.683,0,0,1,10.987-26.858c.945-1.878,1.928-3.738,2.983-5.557a11.5,11.5,0,0,0,1.621-3.688,7.7,7.7,0,0,0-.691-5.336c-1.038-1.766-2.971-2.572-4.638-3.615a88.248,88.248,0,0,1-12.231-9.632c-1.905-1.723-4.742,1.1-2.828,2.828a105.665,105.665,0,0,0,10.569,8.631c1.635,1.133,3.438,2.034,5.058,3.175a2.869,2.869,0,0,1,.9,2.886,6.3,6.3,0,0,1-.206.858c-.044.143-.323.748-.1.33-.375.718-.827,1.4-1.229,2.1-.965,1.695-1.872,3.422-2.746,5.166-2.069,4.131-3.945,8.357-5.716,12.623-2.049,4.935-3.931,9.941-5.589,15.021a2.036,2.036,0,0,0,.919,2.259c3.825,2.5,7.781,4.81,11.812,6.96,2.089,1.114,4.2,2.183,6.366,3.152,1.806.81,4.031,2.061,6.045,2.185,2.867.177,4.035-2.371,5.226-4.49q2.207-3.923,4.3-7.906,4.088-7.765,7.745-15.749,3.822-8.343,7.185-16.888c1.777-4.506,4.062-9.071,4.08-14.007a21.386,21.386,0,0,0-1.1-7.009,22.4,22.4,0,0,0-4.182-6.863,81.491,81.491,0,0,0-12.089-11.769c-2.369-1.908-4.837-3.673-7.268-5.5-2.835-2.128-5.6-4.343-8.46-6.44a142.253,142.253,0,0,0-17.42-11.207c-2.274-1.2-4.3,2.247-2.019,3.454Z"/><path class="b" d="M122.94,93.239a17.668,17.668,0,0,1,1.731.781q.97.49,1.894,1.066.871.543,1.7,1.157c.381.282.887.7,1.426,1.175a30.682,30.682,0,0,1,5.411,6.347,2.046,2.046,0,0,0,2.736.717,2.02,2.02,0,0,0,.718-2.736A31.122,31.122,0,0,0,124,89.382a2.008,2.008,0,0,0-2.46,1.4,2.057,2.057,0,0,0,1.4,2.46Z"/></svg>