<?xml version="1.0" encoding="utf-8"?>
<!-- Uploaded to: SVG Repo, www.svgrepo.com, Generator: SVG Repo Mixer Tools -->
<svg width="800px" height="800px" viewBox="-46.38 0 367.068 367.068" xmlns="http://www.w3.org/2000/svg"><defs><style>.a{fill:#ffffff;}.b{fill:#211715;}.c{fill:#7a7473;}.d{fill:#3d8dcc;}.e{fill:#85807f;}</style></defs><path class="a" d="M63.491,254.567c8.48-34.246,18.485-74.916,22.342-90.87a8.764,8.764,0,0,0,.25-1.84c.344.144.565.239.565.239l5.011.682,6.967,3.147a3.1,3.1,0,0,0,4.362-1.715,3.31,3.31,0,0,0-1.714-4.513l-9.091-3.892-5.01-.682-6.968-3.146a3.1,3.1,0,0,0-4.362,1.715,3.309,3.309,0,0,0,1.715,4.512l.965.413c-.14.56-.28,1.15-.43,1.78-7.41,30.53-29.96,121.92-36.62,148.191a31.738,31.738,0,0,1,25.6,27.949H207.234a32.827,32.827,0,0,1,2.764-10c-16.2,0-76.6,0-132.025.01-5.033-7.758-17.9-26.547-23.24-34.572,0,0-.14-.212-.4-.586C56.774,281.643,60,268.648,63.491,254.567Z"/><path class="b" d="M90.649,164.505l4.594,2.074c2.021.913,4.267,2.283,6.533,1.4a5.675,5.675,0,0,0,3.522-5.043,5.2,5.2,0,0,0-2.941-4.93c-1.375-.612-2.768-1.185-4.152-1.777l-5.013-2.146a2.055,2.055,0,0,0-2.736.717,2.022,2.022,0,0,0,.717,2.736l8.695,3.723c.129.055.258.109.386.165.222.1.42.22.632.332.19.1-.084-.063-.1-.085.061.066.145.142.215.2.03.027.22.209.033.02s.056.091.094.154a1.932,1.932,0,0,0,.1.191c.152.2-.069-.327-.034-.077a2.135,2.135,0,0,0,.115.421c.1.242.015-.356-.013-.095a2.091,2.091,0,0,0,.01.223,1.2,1.2,0,0,1-.011.3c.048-.052.084-.376.006-.079-.046.178-.1.351-.151.527-.062.207.023-.068.038-.093-.058.1-.1.2-.161.3-.041.07-.095.137-.132.209-.125.239.228-.193.025-.032a2.206,2.206,0,0,0-.154.165c-.063.061-.377.245-.13.124.3-.147-.28.131-.274.134-.048-.021.4-.077.16-.075a.784.784,0,0,0-.2.058c-.392.144.149-.044.129,0a.958.958,0,0,1-.206.014,1.721,1.721,0,0,0-.278,0c-.222.039.332.088.11.024-.16-.047-.334-.087-.5-.124-.137-.032-.272-.1.048.035l-.148-.067c-.66-.3-1.32-.6-1.98-.895l-4.835-2.183a2.051,2.051,0,0,0-2.736.718,2.022,2.022,0,0,0,.717,2.736Z"/><path class="b" d="M88.182,153.4l-4.593-2.075c-2.021-.913-4.268-2.283-6.534-1.4a5.678,5.678,0,0,0-3.522,5.044,5.2,5.2,0,0,0,2.941,4.93c1.375.612,2.769,1.185,4.152,1.777l5.013,2.146a2.055,2.055,0,0,0,2.736-.718,2.021,2.021,0,0,0-.717-2.736l-8.694-3.722c-.129-.055-.258-.109-.387-.165-.221-.1-.42-.221-.632-.333-.189-.1.084.064.105.086-.062-.066-.146-.142-.215-.2-.031-.027-.22-.209-.034-.019s-.056-.091-.093-.155-.062-.136-.1-.191c-.153-.2.068.328.033.078a2.183,2.183,0,0,0-.114-.421c-.1-.243-.016.356.012.094.007-.07-.009-.152-.009-.223a1.114,1.114,0,0,1,.011-.3c-.049.053-.084.377-.007.079.046-.177.1-.351.152-.526.061-.208-.024.068-.039.093.059-.1.1-.2.162-.3.041-.07.094-.136.131-.208.126-.24-.228.192-.025.032.056-.044.1-.115.155-.165s.376-.245.129-.124c-.3.146.28-.132.275-.134.048.021-.4.077-.161.075a.863.863,0,0,0,.2-.058c.393-.144-.148.043-.129,0a.9.9,0,0,1,.206-.015,1.723,1.723,0,0,0,.278,0c.222-.039-.332-.088-.109-.024.159.046.333.086.5.124.138.031.273.1-.047-.035.049.021.1.045.148.067.659.3,1.32.6,1.98.894l4.834,2.183a2.05,2.05,0,0,0,2.737-.717,2.023,2.023,0,0,0-.718-2.736Z"/><path class="c" d="M34.643,316.344a23.788,23.788,0,0,0-24.259,24.11c0,14.546,10.128,24.563,24.26,24.563,14.676,0,24.26-10.111,24.26-24.563A23.768,23.768,0,0,0,34.643,316.344Z"/><path class="a" d="M34.643,329.489a10.94,10.94,0,0,0-11.156,11.088c0,6.689,4.658,11.3,11.157,11.3,6.749,0,11.156-4.649,11.156-11.3A10.93,10.93,0,0,0,34.643,329.489Z"/><path class="b" d="M34.643,314.344a26.105,26.105,0,0,0-25.08,18.2c-3.159,10.2-.052,22.39,8.49,29.036,8.475,6.593,21.314,7.263,30.586,1.907,9.428-5.446,13.469-16.727,11.934-27.195a25.758,25.758,0,0,0-8.279-15.41,26.717,26.717,0,0,0-17.651-6.539c-2.574-.016-2.577,3.984,0,4,9.623.064,18.324,5.9,21.22,15.231,2.657,8.567.372,18.973-6.728,24.752-6.99,5.689-18.081,6.221-25.875,1.926-8.16-4.5-12.016-14.153-10.641-23.2a21.73,21.73,0,0,1,22.024-18.712C37.216,318.327,37.222,314.327,34.643,314.344Z"/><path class="b" d="M34.643,327.489A13.132,13.132,0,0,0,22.086,336.6,13.6,13.6,0,0,0,26.313,351.1a14.14,14.14,0,0,0,15.271,1.022c4.773-2.729,6.836-8.426,6.03-13.708a13.069,13.069,0,0,0-12.971-10.928c-2.574-.033-2.576,3.967,0,4a9.03,9.03,0,0,1,8.783,6.43c1.007,3.5.074,7.774-2.856,10.091a10.1,10.1,0,0,1-10.578.758,9.274,9.274,0,0,1-4.442-9.423,9.076,9.076,0,0,1,9.093-7.856C37.215,331.456,37.223,327.456,34.643,327.489Z"/><path class="c" d="M239.656,316.344a23.788,23.788,0,0,0-24.259,24.11c0,14.546,10.128,24.563,24.26,24.563,14.676,0,24.26-10.111,24.26-24.563A23.768,23.768,0,0,0,239.656,316.344Z"/><path class="a" d="M239.656,329.489A10.94,10.94,0,0,0,228.5,340.577c0,6.689,4.658,11.3,11.157,11.3,6.749,0,11.156-4.649,11.156-11.3A10.93,10.93,0,0,0,239.656,329.489Z"/><path class="b" d="M239.656,314.344a26.105,26.105,0,0,0-25.08,18.2c-3.159,10.2-.052,22.39,8.49,29.036,8.475,6.593,21.314,7.263,30.586,1.907,9.427-5.446,13.468-16.727,11.934-27.195a25.758,25.758,0,0,0-8.279-15.41,26.717,26.717,0,0,0-17.651-6.539c-2.575-.016-2.577,3.984,0,4,9.623.064,18.324,5.9,21.219,15.231,2.658,8.567.373,18.973-6.727,24.752-6.99,5.689-18.082,6.221-25.875,1.926-8.16-4.5-12.016-14.153-10.641-23.2a21.73,21.73,0,0,1,22.024-18.712C242.229,318.327,242.235,314.327,239.656,314.344Z"/><path class="b" d="M274.3,340.376a34.4,34.4,0,0,0-22.2-32.293c-13.738-5.08-30.289-1.093-39.493,10.466a35.234,35.234,0,0,0-7.592,21.827c-.013,2.575,3.987,2.578,4,0,.061-12.512,7.613-24.24,19.548-28.536,12.335-4.44,26.761-1.037,35.1,9.242a30.926,30.926,0,0,1,6.641,19.294c.012,2.574,4.012,2.579,4,0Z"/><path class="b" d="M69.288,340.376a34.4,34.4,0,0,0-22.2-32.293C33.348,303,16.8,306.99,7.592,318.549A35.24,35.24,0,0,0,0,340.376c-.012,2.575,3.988,2.578,4,0,.061-12.512,7.613-24.24,19.548-28.536,12.335-4.44,26.761-1.037,35.1,9.242a30.926,30.926,0,0,1,6.641,19.294c.012,2.574,4.012,2.579,4,0Z"/><path class="b" d="M239.656,327.489A13.132,13.132,0,0,0,227.1,336.6a13.6,13.6,0,0,0,4.227,14.507,14.139,14.139,0,0,0,15.27,1.022c4.774-2.729,6.837-8.426,6.031-13.708a13.069,13.069,0,0,0-12.971-10.928c-2.574-.033-2.576,3.967,0,4a9.028,9.028,0,0,1,8.782,6.43c1.008,3.5.075,7.774-2.855,10.091a10.1,10.1,0,0,1-10.578.758,9.273,9.273,0,0,1-4.442-9.423,9.076,9.076,0,0,1,9.093-7.856C242.228,331.456,242.235,327.456,239.656,327.489Z"/><path class="b" d="M67.288,338.538H206.936c2.574,0,2.578-4,0-4H67.288c-2.574,0-2.578,4,0,4Z"/><path class="b" d="M77.9,328.538H209.733c2.574,0,2.579-4,0-4H77.9c-2.574,0-2.578,4,0,4Z"/><path class="b" d="M43.4,309.119q2.874-11.34,5.686-22.7,4.024-16.162,8.024-32.333,4.455-18,8.891-36,4.092-16.6,8.166-33.2,1.673-6.821,3.34-13.643.711-2.909,1.42-5.817c.434-1.781.825-3.853,1.312-5.412.556-1.781.885-3.667,1.321-5.482.6-2.5-3.256-3.57-3.857-1.064q-.658,2.742-1.321,5.483c-.072.3-.165.6-.219.907-.008.042-.2.863-.056.353.121-.429-.078.208-.1.315q-.156.641-.311,1.281-.659,2.709-1.32,5.416-1.584,6.5-3.176,12.987-3.978,16.23-7.977,32.455-4.436,18.007-8.889,36.01-4.093,16.551-8.207,33.1-3.014,12.111-6.056,24.214-.263,1.037-.524,2.071c-.633,2.5,3.224,3.561,3.857,1.064Z"/><path class="b" d="M53.5,302.935q2.827-11.147,5.589-22.311,3.954-15.879,7.879-31.765,4.311-17.426,8.6-34.854,3.819-15.51,7.621-31.025,1.484-6.06,2.961-12.123c1.08-4.435,2.926-9.262,1.141-13.73a31.653,31.653,0,0,0-1.417-2.882c-1.195-2.281-4.649-.261-3.454,2.019a17.152,17.152,0,0,1,1.313,2.754,8.535,8.535,0,0,1,.033,4.711q-.546,2.259-1.1,4.517-1.391,5.715-2.789,11.429-3.686,15.06-7.394,30.114-4.243,17.244-8.506,34.483-3.971,16.056-7.96,32.109-2.919,11.741-5.87,23.474l-.51,2.017c-.633,2.5,3.223,3.56,3.857,1.063Z"/><path class="b" d="M53.007,292.982c6.122,9.2,12.388,18.3,18.541,27.48,1.474,2.2,2.944,4.4,4.391,6.618,1.4,2.148,4.866.145,3.454-2.019-6.051-9.272-12.343-18.387-18.54-27.561q-2.2-3.264-4.393-6.537c-1.419-2.133-4.885-.133-3.453,2.019Z"/><path class="b" d="M249.086,290.866c5.309,7.238,10.752,14.377,16.113,21.577a2.061,2.061,0,0,0,2.736.717,2.013,2.013,0,0,0,.717-2.736c-5.36-7.2-10.8-14.339-16.112-21.577a2.058,2.058,0,0,0-2.736-.717,2.015,2.015,0,0,0-.718,2.736Z"/><path class="b" d="M246.066,308.519l7.945-6.952a2.011,2.011,0,0,0,0-2.828,2.047,2.047,0,0,0-2.828,0l-7.945,6.952a2.011,2.011,0,0,0,0,2.828,2.049,2.049,0,0,0,2.828,0Z"/><path class="a" d="M124.9,304.747a4.689,4.689,0,0,0-3.974-.828,35.2,35.2,0,0,1-8.128.719,4.832,4.832,0,0,1-4.553-3.9,1.484,1.484,0,0,0-.657-.871,21.667,21.667,0,0,0,2.165-5.379l.025-.128c4.268.843,10.9,1.9,16.347,2.679a20.326,20.326,0,0,0-1.129,7.786Z"/><path class="a" d="M202.165,291.549c-.094-.034-.186-.07-.276-.107a1.535,1.535,0,0,0-1.606.261,17.039,17.039,0,0,0-2.1-5.791l-.155-.286c4.927-3.457,9.907-7.169,13.764-10.326.194,1.022.365,1.913.365,1.913a9.054,9.054,0,0,0,2.017,3.842,6.527,6.527,0,0,0-1.535,2,36.685,36.685,0,0,1-4.627,7.144A4.962,4.962,0,0,1,202.165,291.549Z"/><path class="a" d="M176.061,172.342a2.776,2.776,0,0,0,2.433-2.779c-.095-8.949-5.811-57.33-6.643-63.8-1.251-9.734-2.09-15.373-5.275-23.92-.366-.983-1.237-3.142-1.648-4.114-.514-1.214-2.9-7.086-3.047-7.485a3.838,3.838,0,0,0-3-2.716,6.7,6.7,0,0,0-3.532.481c-6.72,3.245-14.3,6.123-21.337,9.042a5.232,5.232,0,0,0-1.277,1.937c-.893,2.672-3.8,10.685-4.628,15.091a211.816,211.816,0,0,0-3.371,24.936c-1.1,15.79-1.2,32.577-1.015,52.871a5.816,5.816,0,0,0,4.96,5.208C141.187,177.833,161.732,175.325,176.061,172.342Z"/><path class="d" d="M146.527,176.608a130.881,130.881,0,0,1-17.848.486,4.687,4.687,0,0,1-2.2-.775c-.049.281-.075.435-.075.435-4.035,23.543-7.552,41.388-11.2,62.389-2.336,13.438-7.74,39.573-9.744,53.289a.987.987,0,0,0,.689,1.09c3.192.994,15.975,3,23.539,4.013a1,1,0,0,0,1.1-.763c5.109-20.986,8.284-32.406,13.261-51.175,1.6-6.027,3.924-12.953,6.514-19.985a39.337,39.337,0,0,0,3.24,7.245c10.961,17.983,27.709,42.443,38.322,55.717a.994.994,0,0,0,1.336.2c6.642-4.473,14.1-9.929,19.211-14.192a.988.988,0,0,0,.2-1.285c-9.109-14.678-18.944-29.745-28.023-44.4a37.453,37.453,0,0,1-3.94-8.6c-1.82-6.16-2.38-10.92-2.99-17.84-.9-10.11-1.45-15.82-2.12-22.26l-.8-7.637A261.952,261.952,0,0,1,146.527,176.608Z"/><path class="b" d="M124.472,176.222c-3.423,19.956-7.249,39.838-10.748,59.78-2.779,15.839-6.071,31.582-8.824,47.425q-.452,2.6-.873,5.21c-.253,1.573-1.03,3.895-.225,5.357.767,1.391,2.386,1.645,3.8,1.956,1.535.337,3.081.623,4.628.9,4.015.717,8.047,1.346,12.083,1.936a31.762,31.762,0,0,0,5.666.744c2.982-.131,3.17-4.044,3.707-6.224q3.3-13.4,6.841-26.739c2.268-8.567,4.363-17.214,6.944-25.692,4.942-16.227,11.617-31.911,18.2-47.526q.888-2.106,1.773-4.213a2.013,2.013,0,0,0-1.4-2.461,2.052,2.052,0,0,0-2.46,1.4c-5.353,12.775-10.786,25.521-15.519,38.544-5.11,14.058-8.69,28.573-12.486,43.026q-1.626,6.188-3.2,12.389-.87,3.431-1.722,6.865-.444,1.787-.884,3.575a29.762,29.762,0,0,1-1.034,4.046l.515-.882c.437-.548.567.094.217-.127a2.584,2.584,0,0,0-.771-.106c-.43-.059-.86-.12-1.289-.18q-1.721-.245-3.439-.5-3.324-.5-6.64-1.039c-2-.33-4-.672-6-1.05-1.385-.263-2.85-.787-4.247-.92-.067-.006-.23-.1-.283-.08l.618,1.075.039-.26a9.219,9.219,0,0,0,.2-1.34q.2-1.289.411-2.576.5-3.011,1.031-6.015c.778-4.392,1.6-8.776,2.427-13.158,3.467-18.3,6.775-36.616,10.136-54.931,2.27-12.372,4.535-24.744,6.662-37.142a2.059,2.059,0,0,0-1.4-2.46,2.017,2.017,0,0,0-2.46,1.4Z"/><path class="b" d="M173.793,180.2q.807,7.756,1.513,15.523c.6,6.609.968,13.3,2.327,19.807a47.642,47.642,0,0,0,2.962,9.588,75.039,75.039,0,0,0,5.318,9.281c3.877,6.2,7.8,12.362,11.729,18.529q3.413,5.359,6.813,10.725,1.688,2.668,3.366,5.342.77,1.227,1.538,2.457l.765,1.226c.114.184.747,1.368.839,1.1l.515-.883a26.321,26.321,0,0,1-4.13,3.411c-1.616,1.259-3.256,2.487-4.906,3.7q-2.531,1.861-5.1,3.667-1.276.9-2.561,1.782c-.649.447-1.683,1.456-2.426,1.565h1.063c.258.038.029.039-.16-.2l-.455-.573q-.42-.533-.836-1.065-.969-1.239-1.919-2.492-2-2.62-3.941-5.277-4.458-6.069-8.749-12.258-8.936-12.84-17.326-26.053c-2.835-4.477-5.942-8.919-7.551-14.019-.772-2.446-4.635-1.4-3.857,1.063,1.871,5.93,5.478,11.09,8.787,16.287q5.456,8.57,11.162,16.975c6.889,10.172,13.951,20.267,21.585,29.9,1.007,1.27,2.394,2.113,4.028,1.324a35.81,35.81,0,0,0,4.624-3.119q4.547-3.185,8.971-6.537,1.843-1.4,3.661-2.84c1.207-.958,3.115-2.026,3.491-3.625.433-1.843-1.213-3.626-2.121-5.081q-1.666-2.668-3.346-5.331c-4.343-6.889-8.732-13.749-13.1-20.624q-3.258-5.131-6.491-10.279a85.122,85.122,0,0,1-5.641-9.679c-3.32-7.282-3.834-15.607-4.539-23.461-.595-6.623-1.218-13.244-1.906-19.859a2.056,2.056,0,0,0-2-2,2.014,2.014,0,0,0-2,2Z"/><path class="b" d="M123.867,297.492a23.027,23.027,0,0,0-.9,6.46,2,2,0,0,0,4,0,21.531,21.531,0,0,1,.177-2.826l-.072.532a21.609,21.609,0,0,1,.654-3.1,2,2,0,0,0-3.857-1.063Z"/><path class="b" d="M108.88,301.606a23.77,23.77,0,0,0,2.8-6.584,2,2,0,0,0-3.857-1.063,22.306,22.306,0,0,1-1.042,3.1l.2-.478a22.3,22.3,0,0,1-1.555,3,2.02,2.02,0,0,0,.717,2.736,2.041,2.041,0,0,0,2.737-.718Z"/><path class="b" d="M196.458,286.921c.22.405.432.814.632,1.229.1.217.206.436.3.657.033.075.066.149.1.224l-.106-.252a2.792,2.792,0,0,0,.16.4,13.067,13.067,0,0,1,.785,2.865l-.071-.531a7.656,7.656,0,0,1,.053,1.587,2.009,2.009,0,0,0,2,2,2.049,2.049,0,0,0,2-2c.222-2.856-1.07-5.749-2.4-8.2a2.017,2.017,0,0,0-2.736-.717,2.042,2.042,0,0,0-.718,2.736Z"/><path class="b" d="M210.23,277.744a7.935,7.935,0,0,0,.876,2.346,11.785,11.785,0,0,0,1.043,1.592,2.238,2.238,0,0,0,1.195.919,2.042,2.042,0,0,0,1.541-.2,2.021,2.021,0,0,0,.919-1.2,1.935,1.935,0,0,0-.2-1.541,10.575,10.575,0,0,1-1.341-2.209l.2.477a5.739,5.739,0,0,1-.377-1.25,2,2,0,0,0-.919-1.195,2,2,0,0,0-2.736.717l-.2.478a2.018,2.018,0,0,0,0,1.063Z"/><path class="a" d="M118.274,11.816a19.892,19.892,0,0,0-3.3,4.886,21.649,21.649,0,0,0-1.991,9.682,30.949,30.949,0,0,0,.164,5.311c.148,4.018.369,9.59-3.166,11.822a3.744,3.744,0,0,0-1.589,1.824c-.745,2.054,1.035,2.835,2.177,3.914a6.146,6.146,0,0,1,1.568,2.508,38.23,38.23,0,0,0,1.2,5.724,16.174,16.174,0,0,0,1.565,3.787,7.672,7.672,0,0,0,4.474,3.606,18.492,18.492,0,0,0,9.932.12,1.335,1.335,0,0,1,1.627.68,40.6,40.6,0,0,0,1.871,4.7,29.245,29.245,0,0,0,1.65,6.62c6.909-2.9,14.314-5.764,20.894-8.987a6.215,6.215,0,0,1,2.391-.541c-.084-.26-.134-.42-.134-.42l-.278-.879a21.225,21.225,0,0,1-.888-4.43c.1-3.49,4.123-7.2,6.276-9.884A31.578,31.578,0,0,0,169.732,29.2,31.14,31.14,0,0,0,163.5,13.678C155.61,3.59,147.385,2.309,142.349,2.022a31.39,31.39,0,0,0-14.077,2.653,27.881,27.881,0,0,0-9.788,6.906C118.413,11.659,118.343,11.738,118.274,11.816Z"/><path class="e" d="M127.914,4.83C119.251,8.651,115.582,15.236,114.97,16.7a21.5,21.5,0,0,0-1.985,8.777,11.411,11.411,0,0,1,7.394-1.685c6.231.711,11.716,4.317,15.342,7.589,2.03,1.984,2.576,3.458,4.543,6.515a5.442,5.442,0,0,1,2.832-2.382,3.827,3.827,0,0,1,3.266.287,5.606,5.606,0,0,1,2.146,4.5,9.749,9.749,0,0,1-2.164,6.612l.141.336c1.514,3.568,6.867,9.036,11.1,11.056,1.375-2.36,3.677-4.634,5.128-6.446A31.578,31.578,0,0,0,169.732,29.2,31.14,31.14,0,0,0,163.5,13.678C155.61,3.59,147.385,2.309,142.349,2.022a31.39,31.39,0,0,0-14.077,2.653Z"/><path class="b" d="M120.379,25.794A24.837,24.837,0,0,1,131.6,30.6a19.282,19.282,0,0,1,3.84,3.427,48.348,48.348,0,0,1,2.912,4.588c1.37,2.172,4.832.167,3.453-2.019a53.234,53.234,0,0,0-3.456-5.3,23.842,23.842,0,0,0-4.73-4.153,28.7,28.7,0,0,0-13.239-5.352,2.012,2.012,0,0,0-2,2,2.049,2.049,0,0,0,2,2Z"/><path class="b" d="M142.152,38.671c.155-.191.312-.379.484-.555.053-.054.514-.452.3-.293a2.239,2.239,0,0,1,.945-.452,1.947,1.947,0,0,1,1.1-.019.96.96,0,0,1,.371.178c.339.2-.044-.131.209.185.015.019.369.477.2.227a5.185,5.185,0,0,1,.364.635c.058.124.062.127.011.01.052.133.1.267.141.4.063.2.105.413.161.619.114.423.025-.1.05.293.015.242.023.482.021.724a11.407,11.407,0,0,1-.082,1.332c.05-.388-.046.226-.05.246-.036.188-.078.376-.126.562a8.591,8.591,0,0,1-.408,1.242c.16-.376-.089.163-.1.19-.082.163-.17.323-.262.481-.107.184-.228.359-.342.539-.051.076-.1.15-.157.224q.194-.24-.025.032c-.241.285-.49.562-.757.823-.137.132-.277.262-.42.387-.052.046-.617.491-.355.3A15.23,15.23,0,0,1,141.1,48.37a2,2,0,0,0,2.019,3.454,12.731,12.731,0,0,0,6.912-7.721c1.068-3.736.451-9.068-3.768-10.537a6.483,6.483,0,0,0-6.942,2.276,2.06,2.06,0,0,0,0,2.829,2.015,2.015,0,0,0,2.828,0Z"/><path class="b" d="M117.615,37.082c-.393,1.232-.227,4.09,2,4.381,2.948.044,3.19-3.4,2.238-5.044C121.07,35.074,118.7,34.47,117.615,37.082Z"/><path class="b" d="M134.53,69.375a32.233,32.233,0,0,1-1.246-3,8.8,8.8,0,0,0-.8-1.976c-1.535-2.289-3.834-1.045-5.974-.843a17.453,17.453,0,0,1-6.6-.6,6.578,6.578,0,0,1-3.936-3.946,28.467,28.467,0,0,1-1.783-6.886,7.93,7.93,0,0,0-3.078-5.012c-.244-.2-.863-.57-.9-.886-.074-.689,1.4-1.4,1.8-1.749a9.188,9.188,0,0,0,2.7-4.862c1.119-4.774-.1-9.625.371-14.438a2.014,2.014,0,0,0-2-2,2.044,2.044,0,0,0-2,2c-.421,4.278.7,8.652-.125,12.9a5.718,5.718,0,0,1-2.281,3.922c-1.835,1.334-3.1,3.647-2.1,5.89.787,1.759,2.851,2.415,3.552,4.2a19.866,19.866,0,0,1,.458,2.555,35.256,35.256,0,0,0,.948,3.8A13.741,13.741,0,0,0,115.2,64.77a11.229,11.229,0,0,0,5.933,2.538,20.432,20.432,0,0,0,7.731-.106,2.681,2.681,0,0,0,.66-.174q.69-.076-.1-.436-.531-.618-.376-.243c-.068.174.308.9.375,1.086a42.786,42.786,0,0,0,1.649,3.959c1.108,2.322,4.558.295,3.454-2.019Z"/><path class="b" d="M114.982,26.569a19.739,19.739,0,0,1,7.345-15.934,29.37,29.37,0,0,1,23.149-6.283c7.865,1.355,14.534,6.763,18.485,13.594a28.283,28.283,0,0,1,1.077,26.483c-1.8,3.726-4.212,6.465-6.8,9.6-1.5,1.82-3.1,3.872-3.61,6.235-.457,2.127.148,4.409.769,6.449.746,2.456,4.609,1.41,3.857-1.063-.5-1.642-1.148-3.464-.537-5.124.759-2.06,2.424-3.786,3.843-5.408A38.511,38.511,0,0,0,168.7,46a32.424,32.424,0,0,0-.885-29.352C163.639,8.972,156.178,2.509,147.507.68a33.186,33.186,0,0,0-25.855,5.435,27.754,27.754,0,0,0-7.735,8.275,23.829,23.829,0,0,0-2.935,12.179c.018,2.573,4.018,2.579,4,0Z"/><path class="b" d="M144.759,48.264a22,22,0,0,0,4.689,6.358,27.628,27.628,0,0,0,6.81,5.258,2,2,0,0,0,2.019-3.454,18.206,18.206,0,0,1-1.635-.96q-.39-.256-.77-.529-.194-.139-.386-.282c-.049-.037-.474-.373-.109-.081a35.067,35.067,0,0,1-3.1-2.781q-.691-.7-1.34-1.448-.339-.389-.663-.79c-.036-.045-.355-.446-.179-.221s-.176-.236-.207-.279a14.546,14.546,0,0,1-1.676-2.81,2.005,2.005,0,0,0-2.736-.718,2.063,2.063,0,0,0-.717,2.737Z"/><path class="b" d="M112.649,56.216a11.509,11.509,0,0,0,5.579-1.5,2.089,2.089,0,0,0,.919-1.195,2,2,0,0,0-2.938-2.259,6.832,6.832,0,0,1-.937.489l.478-.2a9.567,9.567,0,0,1-2.418.626l.532-.072q-.606.078-1.215.107a2.107,2.107,0,0,0-1.414.586,2,2,0,0,0,0,2.828,2,2,0,0,0,1.414.586Z"/><path class="b" d="M114.47,26.839a8.658,8.658,0,0,1,1.461-1.453l-.405.312a8.538,8.538,0,0,1,1.869-1.1,2.238,2.238,0,0,0,.919-1.2,2.042,2.042,0,0,0-.2-1.541,2.021,2.021,0,0,0-1.2-.919l-.531-.072a1.991,1.991,0,0,0-1.01.273,8.491,8.491,0,0,0-1.847,1.082,10.355,10.355,0,0,0-1.887,1.783,2.222,2.222,0,0,0-.586,1.414,2.032,2.032,0,0,0,.586,1.414,2.01,2.01,0,0,0,1.414.586,1.932,1.932,0,0,0,1.414-.586Z"/><path class="b" d="M176.593,174.27a4.931,4.931,0,0,0,3.894-5.095c-.014-.957-.081-1.914-.144-2.869-.193-2.937-.46-5.869-.736-8.8-.757-8.029-1.629-16.049-2.523-24.064q-1.208-10.838-2.5-21.666c-.885-7.409-1.616-14.908-3.453-22.152a101.086,101.086,0,0,0-4.751-13.573q-1.073-2.606-2.125-5.218c-.736-1.828-1.422-3.624-3.242-4.661-2.894-1.65-6.029-.168-8.717,1.073-3.076,1.42-6.2,2.731-9.335,4.013-3.16,1.293-6.335,2.547-9.484,3.865-1.958.819-2.579,3.073-3.213,4.913a102.161,102.161,0,0,0-4.088,13.512c-1.365,6.981-2.415,14.047-3.086,21.13-1.161,12.262-1.361,24.637-1.432,36.947q-.029,5.04-.008,10.08c.012,3.471-.229,7.069.087,10.525a7.933,7.933,0,0,0,5.126,6.493c2.169.817,5.041.514,7.328.5a214.155,214.155,0,0,0,34.335-3.436q4.046-.687,8.066-1.516c2.519-.522,1.453-4.378-1.064-3.857a239.184,239.184,0,0,1-32.646,4.471c-2.544.168-5.092.287-7.642.327a33.476,33.476,0,0,1-6.672-.141,3.9,3.9,0,0,1-2.409-1.857c-.747-1.236-.456-2.911-.467-4.3q-.037-4.893-.048-9.785c-.018-11.811.121-23.631.793-35.426.352-6.193.9-12.363,1.8-18.5a110.113,110.113,0,0,1,3.443-16.769c.687-2.21,1.43-4.4,2.183-6.588.239-.693.463-1.394.715-2.083.034-.093.18-.449.018-.09.092-.2.233-.387.318-.591a2.613,2.613,0,0,1,.232-.387c-.352.4.459-.157.666-.242,6.045-2.485,12.146-4.843,18.089-7.566,1.8-.822,4.853-2.7,6.05-.114.555,1.2.992,2.471,1.491,3.695,1.546,3.8,3.178,7.562,4.451,11.464,2.455,7.524,3.425,15.368,4.373,23.194q1.116,9.21,2.155,18.43c.889,7.83,1.755,15.663,2.551,23.5.58,5.7,1.22,11.42,1.479,17.147.046,1.032.3,1.9-.923,2.2C173.034,171.039,174.091,174.9,176.593,174.27Z"/><path class="a" d="M134.667,120.84c.721-2.405,1.241-4.668,1.683-6.92.832-4.245,1.345-8.464,2.128-13.6a25.885,25.885,0,0,1,2.664-9.038c2.187-4.129,5.85-7.005,10.951-6.775a11.858,11.858,0,0,1,9.543,5.933c1.689,4.119,1.584,8.595,1.391,13.062-1.154,11.588-2.186,15.923-5.915,27.075a33.521,33.521,0,0,1-4.307,7.484c-2.165,2.97-4.9,4.819-9.452,7.074-13.583,6.139-17.672,7.827-32.571,11a1,1,0,0,1-1.156-.635c-1.943-5.487-3.884-14.429-5.078-19.187a1.031,1.031,0,0,1,.711-1.216c11-3.372,18.336-5.226,25.787-9.149A8.16,8.16,0,0,0,134.667,120.84Z"/><path class="a" d="M78.079,152.282c-.262,2.123-.167,4.042-.247,6.4a4.078,4.078,0,0,0,1.058,3.008,2.344,2.344,0,0,0,2.765-.081l1.239-1.117.027.46c.115,1.967.827,3.768,2.163,3.9a3.358,3.358,0,0,0,2.79-1.885s.157-.406.411-1.066a8.538,8.538,0,0,0,.643,2.042,2.322,2.322,0,0,0,2.368,1.39c1.383-.223,1.972-.83,2.129-1.832.268-1.707-.036-2.472.5-3.867.86-2.248,2.914-2.326,5.043-2.435,4.77-.245,5.565-.64,9.624-4.938-1.343-4.535-2.619-10.1-3.572-14.06a46.924,46.924,0,0,1-7.607,2.154c-2.745.255-6.439.605-8.457.779a11.82,11.82,0,0,0-5.731,2.079,11.373,11.373,0,0,0-4.8,7.073A19.868,19.868,0,0,0,78.079,152.282Z"/><path class="b" d="M104.787,136.178c-2.555.85-5.379,2-7.925,2.234q-2.652.247-5.3.494a33.995,33.995,0,0,0-4.915.589,13.918,13.918,0,0,0-8.526,6.255c-2,3.376-2.2,7.258-2.247,11.081-.024,1.979-.149,3.978,1.08,5.663a4.19,4.19,0,0,0,5.715.845,2.06,2.06,0,0,0,.718-2.736,2.017,2.017,0,0,0-2.737-.718.68.68,0,0,1-.643.186q.408.366.046-.126a2.1,2.1,0,0,1-.1-.321,8.333,8.333,0,0,1-.081-2.568,28.6,28.6,0,0,1,.491-6.233,9.882,9.882,0,0,1,6.475-7.218,19.525,19.525,0,0,1,4.725-.7c1.831-.168,3.661-.334,5.491-.511a40.648,40.648,0,0,0,8.8-2.36c2.43-.809,1.389-4.673-1.064-3.857Z"/><path class="b" d="M81.509,151.435a40.658,40.658,0,0,0-.663,6.538c-.027,2.2-.039,4.534.934,6.552a4.156,4.156,0,0,0,1.887,1.961,3.955,3.955,0,0,0,3.509-.138,5.521,5.521,0,0,0,2.294-2.1c.584-1.014.4-2.3.446-3.431a26.473,26.473,0,0,1,.993-6.9,2,2,0,0,0-3.857-1.064,36.619,36.619,0,0,0-1.178,10.115l.273-1.009c-.051.117-.112.225-.174.336-.12.216.3-.285-.051.058-.086.084-.172.167-.26.249.247-.229-.037.023-.11.069a3.165,3.165,0,0,1-.4.218c.3-.133.027.035-.079-.007-.117.025-.105.024.036,0a.519.519,0,0,1,.361.023c-.256-.054-.013-.007.084.067-.367-.281.223.2,0,.029-.172-.132-.18-.207-.035,0-.078-.113-.144-.232-.213-.35-.046-.08-.165-.429-.048-.085a7.644,7.644,0,0,1-.236-.827c-.036-.164-.069-.329-.091-.5.038.283,0-.086-.007-.192a35.943,35.943,0,0,1-.041-4.44q.054-1.062.175-2.118c.063-.551.173-1.263.3-2a2,2,0,0,0-3.857-1.064Z"/><path class="b" d="M86.028,159.86a13.022,13.022,0,0,0,1.292,5.324,4.351,4.351,0,0,0,4.792,2.03,4.13,4.13,0,0,0,3.147-2.77,9.78,9.78,0,0,0,.3-2.388,4.227,4.227,0,0,1,.2-1.613c.351-.949,1.013-1.064,1.951-1.159,1.4-.14,2.8-.145,4.188-.34a11.286,11.286,0,0,0,6.456-3.556c1.841-1.8-.988-4.632-2.829-2.828a10,10,0,0,1-2.318,1.88c-.068.037-.561.276-.208.124a5.513,5.513,0,0,1-.63.218,8.838,8.838,0,0,1-1.31.275c-.186.025-1.06.089-1.489.115-.579.034-1.159.052-1.736.1a8.119,8.119,0,0,0-3.576.952A5.6,5.6,0,0,0,91.9,159.38a22.053,22.053,0,0,0-.4,3.595c-.011.069-.123.644-.048.285.04-.188-.1-.006.032-.034s-.394.189-.518.14c-.417-.164-.58-1.223-.657-1.552a15.473,15.473,0,0,1-.278-1.954,2.059,2.059,0,0,0-2-2,2.014,2.014,0,0,0-2,2Z"/><path class="b" d="M136.6,121.372c2.139-7.239,2.776-14.712,4.04-22.121.943-5.522,3.817-12.445,10.334-12.748a9.862,9.862,0,0,1,8.2,3.8c2.207,2.841,2.028,7.486,1.945,10.889a81.583,81.583,0,0,1-2.83,18.848c-1.663,6.22-3.439,12.639-7.7,17.639A23.258,23.258,0,0,1,143.153,143c-3.016,1.538-6.182,2.845-9.3,4.168a103.547,103.547,0,0,1-15.416,5.165c-1.565.391-3.137.757-4.712,1.109q-.735.165-1.472.325c-.3.067-1.1.088-1.322.286l-.226.049.742.557c.028-.04-.146-.411-.159-.467-.093-.384-.252-.762-.37-1.14-1-3.185-1.817-6.429-2.608-9.672-.377-1.546-.744-3.094-1.114-4.641q-.223-.933-.449-1.863c-.029-.12-.109-.788-.206-.838l-.145.42q-.4.6.084.349c.2.045.707-.215.908-.276,3.5-1.061,7-2.082,10.484-3.187,2.973-.943,5.923-1.958,8.8-3.164,2.542-1.065,5.661-2.095,7.505-4.242a12.834,12.834,0,0,0,2.416-4.564c.781-2.459-3.08-3.512-3.857-1.064a6.884,6.884,0,0,1-2.265,3.644,24.473,24.473,0,0,1-4.224,2.089,92.076,92.076,0,0,1-9.439,3.444c-3.784,1.2-7.6,2.3-11.392,3.463-2.147.655-3.209,2.01-2.7,4.287.333,1.488.717,2.967,1.072,4.45.855,3.578,1.717,7.159,2.747,10.692.423,1.452.757,3.654,1.811,4.786,1.514,1.625,3.76.727,5.61.319a117.971,117.971,0,0,0,17.977-5.237c3.184-1.256,6.316-2.641,9.438-4.04a43,43,0,0,0,9.817-5.547c5.7-4.641,8.114-11.91,10.132-18.684a101.793,101.793,0,0,0,3.658-20.01,33.069,33.069,0,0,0-.948-12.77,12.984,12.984,0,0,0-7.911-7.869c-6.855-2.639-13.845,1.152-16.95,7.421-1.861,3.757-2.442,7.737-3.039,11.839-.566,3.892-1.09,7.794-1.881,11.648-.421,2.047-.921,4.072-1.513,6.075C132.008,122.782,135.867,123.839,136.6,121.372Z"/><path class="a" d="M200.269,323.984a5.933,5.933,0,0,1-1.79-1.28c-1.768-1.865-2.078-4.711-1.675-7.25s1.409-4.944,1.928-7.462a39.573,39.573,0,0,0,.612-6.181l.421-9.055a1.523,1.523,0,0,1,2.124-1.314,5.038,5.038,0,0,0,6.125-1.241,36.685,36.685,0,0,0,4.627-7.144c.954-1.967,3.246-3.773,5.425-3.19,1.41.377,2.907.878,3.764,1.2,5.535,1.608,8.873,6.3,8.211,11.646a17.61,17.61,0,0,1-2.925,7.35c-4.427,6.769-9.278,14.719-15.479,21.061a12.494,12.494,0,0,1-6.4,3.379A8.066,8.066,0,0,1,200.269,323.984Z"/><path class="a" d="M80.5,324.091c-.18-.16-.353-.3-.489-.441-1.236-1.272-1.481-2.969-1.659-4.733a7.281,7.281,0,0,1,.9-3.963c1.5-3.038,5.194-4.065,8.414-5.124a55.339,55.339,0,0,0,11.244-4.893L106,299.911a1.46,1.46,0,0,1,2.246.83,4.832,4.832,0,0,0,4.553,3.9,35.2,35.2,0,0,0,8.128-.719,4.533,4.533,0,0,1,4.53,1.378c1.372,1.476,2.478,5.564,2.772,7.217a18.759,18.759,0,0,1-.208,7.753c-.937,2.931-3.861,5.169-5.909,5.3-3.091.2-6,.336-9.65.289-7.176-.091-18.558-.091-28.7-.22A4.946,4.946,0,0,1,80.5,324.091Z"/><path class="b" d="M201.279,322.257c-4.07-2.059-2.442-7.256-1.431-10.663a43.652,43.652,0,0,0,1.533-10.572l.324-6.988a5.854,5.854,0,0,0,.048-1.023c0-.017.029-.208.01-.22.158.1-.429.588-.438.556.1.372,2.007.537,2.336.571a6.552,6.552,0,0,0,2.919-.344c2.054-.755,3.32-2.443,4.559-4.158q1.035-1.431,1.934-2.952c.579-.977,1.013-2.067,1.639-3.01a4.029,4.029,0,0,1,1.746-1.529,4.071,4.071,0,0,1,2.764.363,20.164,20.164,0,0,1,4.959,2.019,8.486,8.486,0,0,1,3.9,8.065c-.457,4.3-3.53,7.992-5.814,11.5a124.129,124.129,0,0,1-8.812,12.271c-1.59,1.89-3.227,3.993-5.406,5.224-1.966,1.11-4.594,1.835-6.766.895a2.067,2.067,0,0,0-2.737.717,2.015,2.015,0,0,0,.718,2.737c5.022,2.174,10.6.169,14.246-3.644a94.987,94.987,0,0,0,9.858-12.626c4.8-7.1,12.775-16.81,6.336-25.348a13.25,13.25,0,0,0-5.011-4.065,26.038,26.038,0,0,0-6.7-2.2c-5.7-.831-7.688,5.954-10.3,9.567-1.143,1.581-2.3,2.985-4.407,2.409a5.19,5.19,0,0,0-2.943-.347,3.547,3.547,0,0,0-2.454,2.459,13.311,13.311,0,0,0-.2,2.691l-.2,4.25q-.067,1.474-.137,2.948a37.537,37.537,0,0,1-1.483,9.159,19.111,19.111,0,0,0-1.053,8.352,8.416,8.416,0,0,0,4.452,6.393C201.552,326.87,203.579,323.42,201.279,322.257Z"/><path class="b" d="M81.909,322.677A5.648,5.648,0,0,1,80.556,317a6.216,6.216,0,0,1,3.74-3.855c1.915-.879,4-1.4,5.986-2.1a60.562,60.562,0,0,0,6.6-2.755,47.512,47.512,0,0,0,6.475-4.071l2.984-2.114c.121-.086.6-.316.644-.457-.1.317-.567-.675-.634-.248-.055.349.407,1.1.543,1.388,2.074,4.352,6.91,4.1,11.017,3.617,1.212-.142,2.405-.426,3.611-.576a2.682,2.682,0,0,1,2.249.59c1.134,1.033,1.629,3.083,2.037,4.553.908,3.27,1.554,7.937-.858,10.708a5.562,5.562,0,0,1-4.517,1.989c-2.492.141-4.987.212-7.484.192q-7.522-.061-15.046-.109-4.272-.024-8.545-.058-2.136-.019-4.272-.043a4.087,4.087,0,0,1-3.179-.977c-1.941-1.672-4.783,1.145-2.828,2.828a8.332,8.332,0,0,0,3.229,1.932,18.9,18.9,0,0,0,4.568.236q4.291.045,8.582.068c5.236.032,10.473.047,15.708.1,2.675.029,5.344.022,8.016-.105,2.371-.114,4.6-.132,6.628-1.522,4.557-3.124,5.179-8.474,4.445-13.571-.561-3.9-2.085-9.484-6.413-10.625-2.476-.652-5.15.371-7.642.549-1.818.13-4.368.6-5.516-1.169-.549-.848-.625-1.872-1.33-2.641a3.49,3.49,0,0,0-3.6-.935,10.239,10.239,0,0,0-2.485,1.58,68.982,68.982,0,0,1-6.521,4.456,52.67,52.67,0,0,1-8.14,3.545c-2.537.877-5.251,1.537-7.566,2.939a9.632,9.632,0,0,0-4.6,6.792c-.45,2.9.383,6.4,2.645,8.369C81.013,327.19,83.854,324.373,81.909,322.677Z"/></svg>