<?xml version="1.0" encoding="iso-8859-1"?>
<!-- Uploaded to: SVG Repo, www.svgrepo.com, Generator: SVG Repo Mixer Tools -->
<svg version="1.1" id="Layer_1" xmlns="http://www.w3.org/2000/svg" xmlns:xlink="http://www.w3.org/1999/xlink" 
	 viewBox="0 0 512.001 512.001" xml:space="preserve">
<path style="fill:#5B5B5F;" d="M121.425,412.345c-25.598,0-46.425-20.825-46.425-46.425c0-25.598,20.826-46.425,46.425-46.425
	s46.425,20.825,46.425,46.425S147.023,412.345,121.425,412.345z"/>
<path style="fill:#444242;" d="M121.425,412.345c0-17.521,0-79.916,0-92.848c25.598,0,46.425,20.825,46.425,46.425
	C167.85,391.52,147.023,412.345,121.425,412.345z"/>
<path style="fill:#5B5B5F;" d="M400.251,412.345c-25.598,0-46.425-20.825-46.425-46.425c0-25.598,20.826-46.425,46.425-46.425
	s46.425,20.825,46.425,46.425C446.675,391.52,425.85,412.345,400.251,412.345z"/>
<path style="fill:#444242;" d="M400.251,412.345c0-18.397,0-74.465,0-92.848c25.598,0,46.425,20.825,46.425,46.425
	C446.675,391.52,425.85,412.345,400.251,412.345z"/>
<path style="fill:#CA3486;" d="M489.342,156.252l-4.577-8.603H74.131l-4.621,4.14c-2.485,2.227-60.87,56.084-60.87,190.539v16.223
	h492.545V239.601C501.183,181.452,491.32,159.968,489.342,156.252z"/>
<path style="fill:#952967;" d="M489.342,156.252l-4.577-8.603H257.396v210.902h243.787V239.601
	C501.183,181.452,491.32,159.968,489.342,156.252z"/>
<path style="fill:#96CCF9;" d="M468.435,223.378H327.032v-43.282h136.249C465.219,188.086,467.604,201.898,468.435,223.378z"/>
<rect x="195.156" y="180.09" style="fill:#C6E2F7;" width="99.427" height="43.284"/>
<rect x="257.4" y="180.09" style="fill:#96CCF9;" width="37.19" height="43.284"/>
<path style="fill:#C6E2F7;" d="M87.351,180.096h75.364v43.282H62.052c1.417-3.434,2.828-6.615,4.209-9.533
	C74.434,196.57,82.672,185.587,87.351,180.096z"/>
<path style="fill:#F1D849;" d="M480.901,99.656H74.454c-13.947,0-25.253,11.307-25.253,25.253l0,0
	c0,13.947,11.307,25.253,25.253,25.253h406.447c13.947,0,25.253-11.307,25.253-25.253l0,0
	C506.154,110.963,494.848,99.656,480.901,99.656z"/>
<path style="fill:#E8BA44;" d="M480.901,99.656H257.396v50.507h223.505c13.947,0,25.253-11.307,25.253-25.253l0,0
	C506.154,110.963,494.848,99.656,480.901,99.656z"/>
<path style="fill:#A4D95E;" d="M17.876,255.824c-5.555,24.058-9.239,52.738-9.239,86.504v16.223h492.545V255.824H17.876z"/>
<path style="fill:#84BF7E;" d="M257.396,255.824c0,25.006,0,102.727,0,102.727h243.787V255.824H257.396z"/>
<path style="fill:#D9D8DB;" d="M498.205,333.73H276.161h-40.323H13.795C6.177,333.73,0,339.907,0,347.525l0,0
	c0,7.62,6.177,13.795,13.796,13.795H235.84h40.323h222.043c7.62,0,13.795-6.177,13.795-13.795l0,0
	C512,339.907,505.823,333.73,498.205,333.73z"/>
<path style="fill:#A6A5AB;" d="M498.205,333.73H257.396v27.592h240.808c7.62,0,13.795-6.177,13.795-13.795l0,0
	C512,339.907,505.823,333.73,498.205,333.73z"/>
</svg>