<?xml version="1.0" encoding="utf-8"?>
<!-- Uploaded to: SVG Repo, www.svgrepo.com, Generator: SVG Repo Mixer Tools -->
<svg width="800px" height="800px" viewBox="-92.39 0 425.561 425.561" xmlns="http://www.w3.org/2000/svg"><defs><style>.a{fill:#ffffff;}.b{fill:#211715;}.c{fill:#645d5c;}.d{fill:#3f88c9;}</style></defs><path class="a" d="M16.3,138.167a7.712,7.712,0,0,1-1.5-1.018c-2.076-1.706-6.11-7.409-6.769-10.009l-.143-.724c-.25-.246-.53-.524-.9-.889-1.166-1.138-3.032-3.247-3.387-4.839a4.23,4.23,0,0,1,5.3-4.986,3.482,3.482,0,0,1,1.422-3.548,3.959,3.959,0,0,1,4.158-.3,3,3,0,0,1,1.366-3.339,4.187,4.187,0,0,1,4.75-.276c-.219-2.177.717-3.88,2.868-4.281a4.573,4.573,0,0,1,5.064,3.17l.328,1.187a3.169,3.169,0,0,1,.38-.1c2.471-.481,5.545-1.236,7.536.3a7.188,7.188,0,0,1,1.78,2.458c1.455,2.767,2.954,5.746,2.621,8.855-.255,2.384-1.56,4.506-2.425,6.742s-1.229,4.971.232,6.872l.083.109c-4.778,2.181-13.687,6.855-17.041,8.954a6.871,6.871,0,0,0-3.172-3.524c-.741-.313-1.56-.4-2.3-.709C16.457,138.241,16.378,138.205,16.3,138.167Z"/><path class="b" d="M40.7,132.435c-2.15-3.059.978-7.079,1.935-10.028,1.356-4.179-.124-8.124-2.052-11.845-.866-1.673-1.8-3.36-3.564-4.225a9.266,9.266,0,0,0-5.446-.565,11.823,11.823,0,0,0-5.06,1.449,5.578,5.578,0,0,0-2.677,4.414,5.45,5.45,0,0,0,2.3,4.647,7.958,7.958,0,0,0,2.337.771,2.447,2.447,0,0,0,.8.179c.534-.11-.219-.2-.084-.253.037-.015.332,1.544.351,1.683a2.014,2.014,0,0,0,2.461,1.4,2.053,2.053,0,0,0,1.4-2.46,7.143,7.143,0,0,0-.906-2.918,3.344,3.344,0,0,0-2.37-1.356c-1.008-.228-2.7-.276-2.282-1.832.368-1.374,2.671-1.517,3.767-1.707,1.63-.282,3.508-.506,4.55,1.027a20.873,20.873,0,0,1,2.708,5.843,8.641,8.641,0,0,1-.595,6.025c-1.573,3.681-3.668,8.009-1.023,11.773,1.469,2.09,4.938.093,3.454-2.019Z"/><path class="b" d="M30.447,106.593A6.625,6.625,0,0,0,23.092,102a5.591,5.591,0,0,0-4.506,6.233l3.01-1.727a6.337,6.337,0,0,0-6.5.119,5.088,5.088,0,0,0-2.625,5.223l3.009-1.726c-4.4-2-9.335,1.118-8.518,6.11l2.461-2.461a6.322,6.322,0,0,0-7.7,4.4c-.864,3.29,1.249,6.089,3.413,8.328,1.88,1.946,4.376,4.937,7.266,5.03,3.634.116,6.084-3.289,5.743-6.713l-2.532,1.928c4.292,1.243,8.146-1.9,8.542-6.165l-2.531,1.928c2,.626,4.684.554,6.364-.83a4.977,4.977,0,0,0,.992-6.329c-1.208-2.275-4.662-.256-3.454,2.018.96,1.806-1.858,1.592-2.839,1.284a2.027,2.027,0,0,0-2.532,1.929,2.674,2.674,0,0,1-3.479,2.308,2.013,2.013,0,0,0-2.531,1.929c.126,1.261-.457,3.32-2.113,2.535C10.62,126.688,9.271,125,8.183,123.9c-.98-.991-2.559-2.463-2.682-3.936a2.266,2.266,0,0,1,2.857-2.336,2.029,2.029,0,0,0,2.46-2.461c-.228-1.394,1.591-2.071,2.642-1.593,1.193.543,3.224-.058,3.01-1.727-.112-.87-.129-1.323.643-1.769a2.248,2.248,0,0,1,2.464-.119,2.017,2.017,0,0,0,3.009-1.727c-.079-1.076.015-2.091,1.235-2.315a2.563,2.563,0,0,1,2.769,1.736c.788,2.44,4.651,1.4,3.857-1.063Z"/><path class="b" d="M7.383,117.081a97.188,97.188,0,0,0,6.523,8.517,2.011,2.011,0,0,0,2.829,0,2.051,2.051,0,0,0,0-2.828c-.613-.708-1.206-1.432-1.789-2.164-.138-.172-.274-.346-.41-.519l-.245-.313c-.041-.053-.28-.362-.086-.11s-.043-.056-.084-.11l-.237-.31c-.143-.188-.285-.375-.426-.563-.9-1.19-1.778-2.392-2.621-3.619a2,2,0,1,0-3.454,2.019Z"/><path class="b" d="M13.181,113.359c2.236,2.734,4.64,5.325,6.876,8.058a2.006,2.006,0,0,0,2.828,0,2.056,2.056,0,0,0,0-2.828c-2.236-2.733-4.64-5.325-6.876-8.058a2.006,2.006,0,0,0-2.828,0,2.056,2.056,0,0,0,0,2.828Z"/><path class="b" d="M19.692,109.983c-.658-.5-.177-.134-.026-.006.127.109.251.22.374.333.265.243.523.494.776.75.606.61,1.187,1.245,1.75,1.895q.45.521.883,1.056c.125.155.247.314.373.47-.452-.557.048.067.155.212a14.633,14.633,0,0,1,1.206,1.863,2.017,2.017,0,0,0,2.737.718,2.046,2.046,0,0,0,.717-2.737,24.142,24.142,0,0,0-3.243-4.41,25,25,0,0,0-3.683-3.6,2.005,2.005,0,0,0-1.541-.2,2,2,0,0,0-1.4,2.46,2.354,2.354,0,0,0,.919,1.2Z"/><path class="b" d="M6.1,127.671a17.539,17.539,0,0,0,2.319,4.708,39.234,39.234,0,0,0,3.5,4.709,10.294,10.294,0,0,0,4.946,3.391,3.915,3.915,0,0,1,2.42,1.354,14.326,14.326,0,0,1,1.517,2.775,2.016,2.016,0,0,0,2.736.717,2.047,2.047,0,0,0,.718-2.736c-.934-2.037-2.107-4.176-4.189-5.232-1.106-.561-2.4-.613-3.431-1.307a8.738,8.738,0,0,1-1.522-1.38,28.182,28.182,0,0,1-3.124-4.125c-.491-.759-.958-1.535-1.375-2.337-.165-.319-.323-.641-.466-.971.183.422,0-.007-.032-.107-.056-.174-.114-.345-.162-.522-.668-2.483-4.527-1.43-3.857,1.063Z"/><path class="a" d="M131.886,37.538q.7-.024,1.37-.051c1.95-.081,3.361-1.92,3.55-3.862.612-6.293-2.827-18.071-8.748-23.4-3.751-3.377-10.129-6.122-15.067-7.169-8.441-1.791-20.922-1.289-28.814,2.2S72.739,13.979,71.408,22.324l-5.066,3.451A25.806,25.806,0,0,0,56.249,29c-.811.467-2.025,1.9-1.82,2.935.367,1.844,1.878,2.171,3.854,2.478C68.193,35.954,109.609,38.294,131.886,37.538Z"/><path class="c" d="M133.545,56a23.89,23.89,0,0,0,1.483-11.732A36.191,36.191,0,0,0,133.2,37.49c-11.125.456-27.652.061-42.553-.643-.038.792-.066,1.346-.066,1.346,5.07,1.585,11.379,7.235,11.781,12.059a7.722,7.722,0,0,1,3.357-3.455,4.359,4.359,0,0,1,3.884.011c1.777.984,2.384,3.261,2.378,5.292a14.592,14.592,0,0,1-5.159,10.893A24.771,24.771,0,0,0,122.985,74.76c1.12-2.009,2.422-3.929,3.6-5.678A60.938,60.938,0,0,0,133.545,56Z"/><path class="a" d="M63.442,64.213a6.738,6.738,0,0,0-.78-.9c-1.068-1.028-2.6-1.843-2.816-3.31-.286-1.925,1.821-3.2,3.234-4.54,3.251-3.077,3.077-9.132,2.956-13.607,0,0-.048-3.51-.094-6.6,5.177.457,12,.923,19.489,1.323l5.152,1.609c5.07,1.585,11.379,7.235,11.781,12.059a7.722,7.722,0,0,1,3.357-3.455,4.359,4.359,0,0,1,3.884.011c1.777.984,2.384,3.261,2.378,5.292a14.592,14.592,0,0,1-5.159,10.893A24.769,24.769,0,0,0,122.983,74.76c-1.766,3.148-3.092,6.515-2.8,9.77l.167,1.869c-.035,0-.007-.035,0,0,2.51,11.373-28.972,17.6-30.527,9.076-.4-1.671-1.573-6.911-1.573-6.911-1.333.666-10.633-.3-13.448-5.926l-.271-.577a7.593,7.593,0,0,1-3.059-.423,6.946,6.946,0,0,1-4.542-3.691c-1.88-3.112-2.2-8.958-2.394-11.575A8.042,8.042,0,0,0,63.442,64.213Z"/><path class="b" d="M104.529,50.509c.871-1.3,2.86-2.983,4.34-1.8,1.278,1.02,1.252,3.347,1.014,4.977a12.742,12.742,0,0,1-6.731,9.35c-2.287,1.183-.267,4.636,2.019,3.454a16.577,16.577,0,0,0,8.812-14.39c0-2.965-1.144-6.189-4.1-7.349-3.525-1.382-6.895.886-8.8,3.739a2,2,0,1,0,3.453,2.019Z"/><path class="b" d="M64.036,41.86c.116,4.3.572,9.655-2.991,12.749-1.9,1.644-3.87,3.631-3.01,6.378.76,2.43,3.506,3.254,4.446,5.567a2.063,2.063,0,0,0,2.46,1.4,2.013,2.013,0,0,0,1.4-2.46,10.252,10.252,0,0,0-2.131-3.455c-.578-.589-2.123-1.361-2.331-2.177-.17-.667.645-1.232,1.088-1.634a17.756,17.756,0,0,0,2.57-2.558c2.845-3.869,2.625-9.244,2.5-13.807-.068-2.569-4.069-2.579-4,0Z"/><path class="b" d="M90.052,40.122c.291.093.579.193.864.3.172.067.418.183.107.041.147.068.3.133.442.2a19.438,19.438,0,0,1,1.777.967c.6.367,1.179.766,1.743,1.186.471.351-.3-.246.159.125.139.113.278.225.415.34q.409.345.8.709a20.948,20.948,0,0,1,1.481,1.514q.342.389.662.794c-.214-.272.015.025.095.135.1.135.193.272.286.41a12.839,12.839,0,0,1,.922,1.59c.026.054.234.523.119.249s.07.193.09.248a8.769,8.769,0,0,1,.267.9,2.018,2.018,0,0,0,2.46,1.4,2.042,2.042,0,0,0,1.4-2.46,16.011,16.011,0,0,0-4.951-7.605,21.939,21.939,0,0,0-8.076-4.9,2.016,2.016,0,0,0-2.46,1.4,2.044,2.044,0,0,0,1.4,2.46Z"/><path class="b" d="M65.781,70.325c.932-.067,1.875-.043,2.81-.051a18.248,18.248,0,0,1,2.384.09,1.991,1.991,0,0,0,1.414-.586,2,2,0,0,0,0-2.828l-.405-.313a1.987,1.987,0,0,0-1.009-.273,18.248,18.248,0,0,0-2.384-.09c-.935.008-1.879-.016-2.81.051a2.126,2.126,0,0,0-1.415.586,2,2,0,0,0,0,2.828,1.979,1.979,0,0,0,1.415.586Z"/><path class="b" d="M71.028,49.025c-.422,1.436-.154,4.737,2.426,5.013,3.411-.027,3.6-4.018,2.454-5.893C74.97,46.61,72.207,45.976,71.028,49.025Z"/><path class="b" d="M62.5,65.934c.3,3.547.441,7.216,1.622,10.607a11.905,11.905,0,0,0,3.289,5.19,10.826,10.826,0,0,0,5.709,2.293,13.617,13.617,0,0,0,7.7-1.882c2.271-1.215.253-4.669-2.019-3.453a11.335,11.335,0,0,1-3.034,1.178,6.5,6.5,0,0,1-3.484-.064c-.266-.084-.527-.185-.787-.283-.086-.032-.754-.32-.3-.109a9.956,9.956,0,0,1-.968-.527q-.27-.194.012.018c-.088-.073-.175-.149-.259-.228a6.466,6.466,0,0,1-.521-.552,10.894,10.894,0,0,1-.847-1.263c-.109-.188-.212-.379-.308-.575-.056-.115-.11-.232-.162-.35q.111.264-.024-.074c-.186-.526-.363-1.052-.507-1.592a29.377,29.377,0,0,1-.639-3.22q-.052-.373-.017-.11c-.018-.141-.035-.282-.052-.423q-.05-.413-.093-.826-.069-.676-.126-1.355c-.066-.8-.117-1.6-.184-2.4a2.052,2.052,0,0,0-2-2,2.016,2.016,0,0,0-2,2Z"/><path class="b" d="M73.076,83.647c1.67,3.258,5.081,5.215,8.474,6.243a20.668,20.668,0,0,0,4.486.825,6.436,6.436,0,0,0,3.224-.424,2.018,2.018,0,0,0,.717-2.737,2.045,2.045,0,0,0-2.736-.717c.733-.343.3-.156.058-.082-.272.082.586-.041.271-.037-.1,0-.2.016-.3.021a10.331,10.331,0,0,1-1.34-.033c-.151-.012-.3-.028-.451-.043-.328-.032-.186,0,.056.013a7.932,7.932,0,0,1-1.013-.17,19.148,19.148,0,0,1-1.906-.473q-.5-.15-.984-.328c-.189-.069-.375-.143-.562-.217-.477-.187.383.185-.081-.037a16,16,0,0,1-2.01-1.1c-.128-.085-.25-.176-.377-.262-.178-.132-.164-.12.04.037-.08-.063-.159-.127-.237-.193a9.859,9.859,0,0,1-.777-.725c-.14-.147-.269-.3-.4-.453-.331-.37.216.338-.059-.076a10.612,10.612,0,0,1-.634-1.048,2,2,0,1,0-3.453,2.019Z"/><path class="b" d="M73.337,22.855c.973-5.928,3.4-11.056,8.685-14.24,5.855-3.526,13-4.5,19.73-4.567,7.038-.075,13.923,1.079,20.182,4.427a19.947,19.947,0,0,1,7.175,5.951,31.393,31.393,0,0,1,4.067,8.329,31.546,31.546,0,0,1,1.685,8.555c.043,1.147.165,2.575-.59,3.536-.724.923-2.056.683-3.1.715-5.728.175-11.462.147-17.192.053q-18.75-.309-37.475-1.558c-4.654-.3-9.309-.638-13.949-1.118q-1.176-.12-2.349-.262l-.531-.066c-.482-.06.253.037-.1-.013s-.734-.1-1.1-.165c-.582-.1-2.1-.175-1.964-.886.116-.59,1.073-1,1.51-1.235A21.8,21.8,0,0,1,60.749,29.1a23.473,23.473,0,0,1,5.593-1.329,2.056,2.056,0,0,0,2-2,2.014,2.014,0,0,0-2-2,27.783,27.783,0,0,0-6.449,1.4c-1.936.68-4.2,1.483-5.714,2.925a4.7,4.7,0,0,0-1.5,4.96A5.037,5.037,0,0,0,56.6,36.137a91.021,91.021,0,0,0,12.561,1.392c13.209,1.046,26.463,1.655,39.708,1.979,6.557.161,13.119.246,19.678.118,3.188-.062,6.856.391,8.98-2.491,1.971-2.674,1.42-6.531.933-9.6-1.048-6.612-3.853-13.994-8.875-18.62-5.726-5.274-13.872-7.847-21.478-8.595-7.628-.75-16-.259-23.211,2.5-6.663,2.547-11.883,7.11-14.211,13.963a31.376,31.376,0,0,0-1.2,5.015,2.06,2.06,0,0,0,1.4,2.46,2.015,2.015,0,0,0,2.46-1.4Z"/><path class="b" d="M133.1,44.8c1,6.91-2.439,13.884-5.9,19.613-3.688,6.1-9.549,12.483-9.014,20.118.179,2.554,4.18,2.574,4,0-.261-3.724,1.5-7.141,3.388-10.235,2.029-3.334,4.346-6.472,6.255-9.882,3.533-6.309,6.192-13.352,5.13-20.677a2.013,2.013,0,0,0-2.46-1.4,2.052,2.052,0,0,0-1.4,2.46Z"/><path class="b" d="M105.685,64.972A27.273,27.273,0,0,0,119.9,76a2.015,2.015,0,0,0,2.461-1.4,2.047,2.047,0,0,0-1.4-2.46,23.908,23.908,0,0,1-6.687-3.589,26.066,26.066,0,0,1-2.815-2.608,18.843,18.843,0,0,1-2.318-2.991,2.044,2.044,0,0,0-2.737-.717,2.021,2.021,0,0,0-.717,2.736Z"/><path class="b" d="M85.894,48.5a22.336,22.336,0,0,0-.344,5.59,11.8,11.8,0,0,0,.3,2.754,4.907,4.907,0,0,0,1.483,2.286,5.749,5.749,0,0,0,4.735,1.146,4.773,4.773,0,0,0,3.56-3.595,2,2,0,1,0-3.857-1.064,3.912,3.912,0,0,1-.1.382c.126-.275.142-.315.05-.12l-.061.114c-.246.432.006,0,.019.016a3.163,3.163,0,0,1-.269.276c-.277.287.319-.178-.011,0-.056.035-.114.067-.172.1-.135.067-.076.045.175-.066a1.433,1.433,0,0,0-.321.1c.3-.154.5-.05.174-.043a6.855,6.855,0,0,1-.7-.029c-.115-.009-.234-.031-.35-.036.6.023.3.056.142.01-.039-.011-.247-.076-.264-.073q.381.173.177.073a1.955,1.955,0,0,1-.174-.095,1.814,1.814,0,0,1-.166-.108c-.122-.085-.074-.049.142.108,0-.008-.276-.283-.283-.284l.146.2q-.078-.108-.147-.222l-.065-.116q-.144-.292.039.116c-.031,0-.092-.377-.106-.378l.034.273c-.009-.113-.019-.226-.028-.339-.056-.687-.1-1.375-.126-2.064-.023-.67-.023-1.34.012-2.008.018-.352.06-.7.086-1.05q.025-.224-.016.095c.012-.088.025-.175.039-.262.033-.2.071-.406.111-.608A2,2,0,1,0,85.894,48.5Z"/><path class="d" d="M186.12,140.182c-5.981-7.989-13.461-13.949-20.648-19.1-7.586-5.959-17.118-11.189-26.114-15.6-1.918-4.984-6.906-10.03-11.663-11.842-1.85-3.93-3.142-6.639-3.782-7.329a5.6,5.6,0,0,0-6.41-1.59,124.016,124.016,0,0,1-33.1,7.55.75.75,0,0,0-.65.56,48.441,48.441,0,0,0-1.2,5.946l-.392.012c-4.861.151-8.4,4.491-11.233,8.441C62.616,118.8,54.314,127.657,46,139.23a24.679,24.679,0,0,1-4.314-6.768c-3.114.944-19.755,9.646-20.944,10.948-.884.968-.748,1.561-.492,2.062,4.5,8.819,9.627,17.978,15.324,25.384,2.166,2.815,6.5,3.112,7.9,3.032,7.674-.443,10.954-1.675,17.766-5.507C58.866,178.391,56.01,189.14,58.1,197a13.482,13.482,0,0,0,6.932,8.864l.847.451,5.19,1.4c9.333,2.518,36.815.852,50.741-2.185,1.061-.232,3.065-.511,5.422-.857,0,0,10.834-1.278,19.25-4.812,5.343,3.082,11.564,6.295,15.781,7.613a2.2,2.2,0,0,0,2.515-1.063,325.424,325.424,0,0,0,23.688-51.178C189.571,152.187,189.693,144.955,186.12,140.182ZM154.25,160.86a142,142,0,0,0-9.151,19.115c-1.854-7.278-5.113-13.791-3.277-21.81,1.008-4.4,1.147-4.075,2.595-8.746,1.828,1.132,3.586,2.064,5.366,3.011,1.066.567,2.142,1.14,3.245,1.763C155.583,155.638,154.855,159.869,154.25,160.86Z"/><path class="a" d="M36.82,384.705q.045-.727.081-1.456c7.149,3.072,18.168,6.808,26.674,7.819q-1.013,2.673-2.2,5.27a3.246,3.246,0,0,0-1.025.21c-2.969,1.088-7.911.787-11.147.635s-9.221-1.594-11.058-4.262a29.79,29.79,0,0,1-1.7-3.571Q36.675,387.031,36.82,384.705Z"/><path class="a" d="M201.112,338.638q-2.081-.475-4.179-.867c3.911-6.037,9.263-16.281,11.511-24.8q2.769,1.512,5.415,3.233a3.355,3.355,0,0,0,.063,1.019c.627,3.015-.365,7.733-.971,10.829s-2.845,8.658-5.677,10.048a28.993,28.993,0,0,1-3.677,1.133Q202.358,338.924,201.112,338.638Z"/><path class="c" d="M50.94,423.535c4.72.4,7.805-2.358,10.259-6.741,2.544-4.546,2.671-11.1,3.095-16.294.124-1.52-.712-3.7-2.185-4.094a2.959,2.959,0,0,0-1.762.142c-2.969,1.088-7.911.787-11.147.635s-9.221-1.594-11.058-4.262c-1.6-2.327-1.245-4.872-4.066-5.013a30,30,0,0,1-16.752,4.124,49.514,49.514,0,0,0-7.387-.047,9.58,9.58,0,0,0-6.463,3.191C.822,398.536,2,402.9,4.713,406.21c3.339,4.065,14.692,7.874,26.584,10.5C37.952,418.174,44.853,423.019,50.94,423.535Z"/><path class="b" d="M50.94,425.535c5.681.388,9.94-3.542,12.325-8.379a26.861,26.861,0,0,0,2.3-8.466,63.991,63.991,0,0,0,.737-8.482c-.011-2.709-1.686-5.709-4.637-5.874-1.4-.078-2.749.646-4.125.828a28.875,28.875,0,0,1-4.032.175,36.6,36.6,0,0,1-6.93-.5,14.327,14.327,0,0,1-6.156-2.389c-1.734-1.416-1.656-4.115-3.488-5.557a3.9,3.9,0,0,0-3.872-.711c-1.5.725-2.9,1.567-4.475,2.146a28.3,28.3,0,0,1-8.681,1.695c-3.5.133-7.016-.453-10.5.034a11.277,11.277,0,0,0-7.658,4.111,9.332,9.332,0,0,0-1.291,8.378c1.548,5.028,5.58,7.838,10.155,9.882,6.733,3.006,13.836,4.57,20.939,6.4,6.65,1.71,12.454,6.03,19.39,6.712a2.014,2.014,0,0,0,2-2,2.044,2.044,0,0,0-2-2,27.375,27.375,0,0,1-8.014-2.528c-2.884-1.255-5.74-2.62-8.74-3.583-3.175-1.02-6.507-1.576-9.726-2.451-3.017-.821-6.013-1.737-8.942-2.832-4.136-1.547-8.884-3.4-10.834-7.677-1.1-2.406-.959-5.268,1.287-6.969,2.5-1.892,5.938-1.71,8.887-1.572a43.19,43.19,0,0,0,10.5-.536,32.116,32.116,0,0,0,9.727-3.752l-1.009.273c.544.049.621.375.849.87a25.147,25.147,0,0,0,1.292,2.848,9.469,9.469,0,0,0,4.369,3.5,30.54,30.54,0,0,0,11.774,2.187A31.584,31.584,0,0,0,59.3,398.9c.6-.116,1.77-.742,2.318-.54.573.21.689,1.506.679,1.993-.049,2.3-.308,4.649-.56,6.935a28.558,28.558,0,0,1-1.473,6.785,14.853,14.853,0,0,1-3.771,5.664,7.139,7.139,0,0,1-5.556,1.8C48.37,421.359,48.381,425.36,50.94,425.535Z"/><path class="b" d="M62.328,388.674q-.843,2.388-1.825,4.723l.2-.478q-.268.636-.547,1.268a2.18,2.18,0,0,0-.2,1.542,2.039,2.039,0,0,0,.919,1.195,2.017,2.017,0,0,0,1.541.2,1.933,1.933,0,0,0,1.2-.919c.935-2.125,1.8-4.279,2.573-6.468a2,2,0,0,0-3.857-1.064Z"/><path class="b" d="M34.978,381.662q-.159,4.02-.571,8.024a2.005,2.005,0,0,0,2,2,2.057,2.057,0,0,0,2-2q.413-4,.571-8.024a2.015,2.015,0,0,0-2-2,2.042,2.042,0,0,0-2,2Z"/><path class="c" d="M238.587,330.121c1.055-4.491-1.164-7.855-5.038-10.841-4.018-3.1-10.317-4.15-15.259-5.3-1.447-.335-3.663.161-4.254,1.524a2.868,2.868,0,0,0-.114,1.718c.627,3.015-.365,7.733-.971,10.829s-2.845,8.658-5.677,10.048c-2.468,1.213-4.87.509-5.407,3.206a29.212,29.212,0,0,1,1.6,16.725,48.243,48.243,0,0,0-1.095,7.111,9.329,9.329,0,0,0,2.157,6.68c2.861,3.031,7.234,2.52,10.806.373,4.391-2.64,9.672-13.037,13.888-24.122C231.578,341.872,237.225,335.911,238.587,330.121Z"/><path class="b" d="M240.515,330.653c1.24-5.728-1.958-10.36-6.532-13.519a25.911,25.911,0,0,0-7.751-3.325,75.669,75.669,0,0,0-7.69-1.807c-2.525-.428-5.934.553-6.567,3.388-.291,1.3.128,2.587.146,3.9a24.778,24.778,0,0,1-.352,4.195,37.509,37.509,0,0,1-1.658,7.19c-.686,1.854-1.7,4.264-3.378,5.448-1.812,1.277-4.262.751-5.813,2.61a3.738,3.738,0,0,0-.644,3.988,29.71,29.71,0,0,1,1.327,4.764,27.71,27.71,0,0,1,.01,9.557c-.523,3.178-1.486,6.381-1.2,9.632a10.289,10.289,0,0,0,3.941,7.643,9.524,9.524,0,0,0,7.631,1.37c4.9-1,7.993-4.7,10.524-8.728,3.747-5.967,6.127-12.522,8.882-18.962,2.569-6.006,7.515-10.9,9.12-17.34.623-2.5-3.234-3.564-3.857-1.064-1.373,5.5-5.5,9.953-8.028,14.936-1.422,2.8-2.392,5.826-3.632,8.711s-2.585,5.758-4.093,8.528c-2.032,3.734-4.417,8.194-8.54,9.66-2.265.805-4.877.816-6.552-1.154-1.82-2.141-1.594-5.351-1.145-7.926.643-3.685,1.437-7.289,1.328-11.057a31.137,31.137,0,0,0-2.2-10.509v1.063c.164-.674.321-.7,1-.882a24.16,24.16,0,0,0,2.678-.773,9.325,9.325,0,0,0,4.278-3.838c2.163-3.326,3.084-7.158,3.747-11.013a29.21,29.21,0,0,0,.6-6.773c-.035-.548-.487-1.878-.156-2.315s1.369-.392,1.82-.334a52.218,52.218,0,0,1,6.273,1.447,29.5,29.5,0,0,1,6.052,2.117c3.752,1.914,7.565,5.539,6.575,10.112C236.115,332.1,239.97,333.171,240.515,330.653Z"/><path class="b" d="M206.394,314.144q2.775,1.464,5.435,3.135a2.02,2.02,0,0,0,2.737-.718,2.043,2.043,0,0,0-.718-2.736q-2.658-1.67-5.435-3.135a2.107,2.107,0,0,0-1.541-.2,2,2,0,0,0-.478,3.656Z"/><path class="b" d="M195.73,339.555q3.851.723,7.65,1.69a2,2,0,0,0,1.063-3.857q-3.8-.966-7.649-1.69a2.145,2.145,0,0,0-1.541.2,2,2,0,0,0,.477,3.655Z"/><path class="a" d="M149.7,233.082c-.222,3.439-1.773,8.484-4.573,13.918a19.522,19.522,0,0,1,1.573,3.934c1.481,6.222.555,16.593.286,23.7,2.185,3.741,10.973,5.1,23.38,11.111a373.04,373.04,0,0,1,39.111,21.333c-.664,11-10.926,29.259-15.222,34.445-13.2-2-54.538-17.154-70.222-24.889-4.242-2.093-9.807-5.216-12.864-8.825l-.293-.346c-2.711-3.3-4.353-7.36-6.2-11.152a26.7,26.7,0,0,0-2.42,5.286c-5.676,24.322-20.291,67.234-32.787,89.655-10.984.951-32.69-7.4-38.449-10.882,1.934-15.076,7.518-40.722,12.449-60.673,1.651-6.679,3.4-12.466,5.036-18.841,1.482-5.778,3.567-14.826,5.27-19.382,2.71-9.146,12.364-30.013,20.443-46.013l-.74-1.938c-2.8-7.344-4.889-14-5.333-20.334a52,52,0,0,1-.328-6.234l3.254.753c9.333,2.518,36.815.852,50.741-2.185,2.654-.579,16.605-3.254,23.435-5.273a59.032,59.032,0,0,1,3.936,12.336,81.038,81.038,0,0,1,.518,20.492"/><path class="b" d="M79.328,221.406c-4.635,8.405-8.9,17.019-13.05,25.673-4.3,8.97-8.509,18.02-12.119,27.292-3.512,9.023-5.6,18.423-8.058,27.764-1.769,6.71-3.682,13.375-5.323,20.119Q38.5,331.635,36.4,341.062c-2.858,12.876-5.611,25.833-7.335,38.916a2.009,2.009,0,0,0,2,2,2.052,2.052,0,0,0,2-2c1.491-11.312,3.857-22.528,6.275-33.672,2.8-12.9,5.863-25.731,9.361-38.461,2.732-9.941,4.783-20.084,8.323-29.785,3.188-8.737,7.145-17.211,11.114-25.613,4.626-9.793,9.411-19.537,14.643-29.022,1.244-2.256-2.209-4.276-3.454-2.019Z"/><path class="b" d="M147.8,237.1c-1.525,5.464-4.51,10.513-7.785,15.1-3.98,5.573-8.97,10.1-13.746,14.955q-6.154,6.26-11.695,13.07c-1.789,2.188-3.541,4.4-5.286,6.628a88.265,88.265,0,0,0-5.576,7.241,31.86,31.86,0,0,0-3.233,6.526c-.749,2.157-1.132,4.487-1.708,6.7-1.359,5.218-2.851,10.4-4.423,15.56q-5.226,17.139-11.622,33.9c-4.359,11.4-9.055,22.789-14.994,33.475-1.251,2.252,2.2,4.272,3.454,2.019a250.3,250.3,0,0,0,13.6-29.805q6.689-16.933,12.122-34.334c1.644-5.227,3.209-10.48,4.656-15.765q.981-3.585,1.88-7.19a27.565,27.565,0,0,1,2.607-7.263,47.055,47.055,0,0,1,4.078-5.695c1.818-2.323,3.635-4.646,5.48-6.948,3.59-4.478,7.316-8.841,11.274-13,5.274-5.539,10.993-10.557,15.6-16.7,3.907-5.213,7.414-11.089,9.177-17.407.693-2.483-3.165-3.543-3.857-1.063Z"/><path class="b" d="M78.317,120.335A37.9,37.9,0,0,0,67.08,135.252a84.741,84.741,0,0,0-3.816,12.942c-1.037,4.226-1.586,8.474-2.417,12.733-1.073,5.5-2.564,10.9-3.728,16.372-1.924,9.056-4.13,21.7,4.143,28.426a18.959,18.959,0,0,0,3.039,2.012,23.768,23.768,0,0,0,5.094,1.6,38.6,38.6,0,0,0,5.19,1.039,99.206,99.206,0,0,0,14.907.521,210.576,210.576,0,0,0,33.455-3.558c1.595-.294,3.208-.5,4.813-.736a2.013,2.013,0,0,0,1.4-2.46,2.051,2.051,0,0,0-2.46-1.4c-5.087.745-10.107,1.843-15.21,2.5-5.684.728-11.4,1.209-17.126,1.482-9.183.437-18.818.9-27.5-2.214-4.034-1.446-6.371-5.353-7.139-9.358-.878-4.585-.159-9.468.692-14,1.012-5.386,2.445-10.68,3.631-16.028.536-2.42,1.021-4.853,1.356-7.31q.077-.553.145-1.107c0-.009.117-.837.019-.18q.079-.526.176-1.05c.183-1,.4-2,.621-3a129.011,129.011,0,0,1,3.988-14.643c.134-.382.271-.765.428-1.138-.206.49-.037.1.011,0,.245-.5.492-1,.748-1.5a47.572,47.572,0,0,1,2.591-4.458,31.91,31.91,0,0,1,7.015-7.562,2.01,2.01,0,0,0,0-2.828,2.051,2.051,0,0,0-2.829,0Z"/><path class="b" d="M139.621,200.022c-.223.1-.044.017.077-.029-.095.036-.189.076-.285.112-.229.088-.46.169-.693.246-.456.152-.918.287-1.383.413-1.126.3-2.267.555-3.411.781-2.4.474-4.813.841-7.23,1.2a2.013,2.013,0,0,0-1.4,2.46,2.053,2.053,0,0,0,2.461,1.4c2.488-.366,4.976-.744,7.442-1.239a30.164,30.164,0,0,0,6.438-1.884,2.014,2.014,0,0,0,.717-2.737,2.048,2.048,0,0,0-2.736-.717Z"/><path class="b" d="M82.164,96.787c-7.1.374-11.038,6.884-14.846,12.011-4.67,6.289-9.722,12.277-14.615,18.391-2.892,3.613-5.725,7.276-8.431,11.032l3.141-.405a22.687,22.687,0,0,1-3.927-6.188,2.014,2.014,0,0,0-2.737-.717,2.05,2.05,0,0,0-.717,2.736,25.833,25.833,0,0,0,4.553,7,2.027,2.027,0,0,0,3.141-.405c5.566-7.727,11.747-14.968,17.66-22.425,2.876-3.628,5.55-7.4,8.369-11.068,2.062-2.683,4.78-5.769,8.409-5.96,2.561-.135,2.577-4.136,0-4Z"/><path class="b" d="M40.672,130.709a107.922,107.922,0,0,0-11.806,5.69c-2.09,1.1-4.172,2.217-6.218,3.4a14.044,14.044,0,0,0-3.464,2.372,3.844,3.844,0,0,0-.454,4.72c.9,1.785,1.838,3.555,2.785,5.317,1.94,3.609,3.966,7.174,6.135,10.65a65.618,65.618,0,0,0,6.829,9.792c1.949,2.119,4.918,3,7.71,3.216a30.686,30.686,0,0,0,9.666-1.135,43.691,43.691,0,0,0,10.071-4.438c2.249-1.254.234-4.71-2.019-3.454a42.723,42.723,0,0,1-7.883,3.68,33.6,33.6,0,0,1-8.327,1.357,8.807,8.807,0,0,1-5.7-1.413,13.352,13.352,0,0,1-2.517-3.065q-1.7-2.368-3.275-4.823c-2-3.107-3.878-6.3-5.673-9.527q-1.242-2.235-2.435-4.5-.646-1.226-1.283-2.456c-.21-.407-.423-.814-.629-1.224-.548-1.089-.168.682-.029-.045.017-.092.62-.459-.072.032q.29-.206.586-.4c.652-.424,1.325-.817,2-1.2,1.795-1.037,3.619-2.023,5.45-2.993q3.411-1.808,6.874-3.515c.942-.463,1.888-.918,2.842-1.357q.624-.288,1.255-.562c.529-.23-.362.142.13-.055.172-.068.344-.137.517-.2a2.056,2.056,0,0,0,1.4-2.46,2.016,2.016,0,0,0-2.46-1.4Z"/><path class="b" d="M144.766,251.466c1.379,6,.736,12.518.429,18.612-.071,1.4-.206,2.816-.2,4.219a3.928,3.928,0,0,0,1.513,2.9,17,17,0,0,0,5.015,2.945c5.766,2.461,11.716,4.411,17.383,7.122q9.806,4.69,19.408,9.808,10.281,5.512,20.15,11.74c2.185,1.375,4.195-2.085,2.019-3.454q-12.916-8.124-26.507-15.071c-4.822-2.473-9.667-4.933-14.59-7.2-4.392-2.023-8.913-3.713-13.425-5.444a41.687,41.687,0,0,1-4.8-2.073c-.318-.171-.633-.35-.938-.543-.115-.072-.227-.147-.339-.222-.279-.184-.15-.094-.211-.143a8.314,8.314,0,0,1-.647-.6c-.042-.043-.275-.313-.113-.112s-.177-.271-.208-.322l.273,1.01c.311-7.965,1.447-16.375-.358-24.236-.576-2.508-4.433-1.446-3.857,1.064Z"/><path class="b" d="M194.782,339.6a102.28,102.28,0,0,1-14-3.541c-6.467-1.963-12.87-4.141-19.235-6.413-12.012-4.288-24.094-8.748-35.6-14.288a49.938,49.938,0,0,1-11.27-6.854c-3.892-3.389-5.865-8.145-8.047-12.7-1.112-2.32-4.562-.293-3.454,2.019,2,4.177,3.856,8.5,7.045,11.944,2.986,3.221,6.951,5.567,10.807,7.59,5.226,2.742,10.7,5.018,16.16,7.254,13.136,5.385,26.508,10.3,40.057,14.543a113.572,113.572,0,0,0,16.468,4.3,2.064,2.064,0,0,0,2.461-1.4,2.015,2.015,0,0,0-1.4-2.46Z"/><path class="b" d="M66.139,213.193c.539,7.226,2.844,14.137,5.405,20.865a2.057,2.057,0,0,0,2.46,1.4A2.015,2.015,0,0,0,75.4,233c-2.421-6.36-4.752-12.966-5.262-19.8a2.049,2.049,0,0,0-2-2,2.016,2.016,0,0,0-2,2Z"/><path class="b" d="M207.472,307.082c-.43,6.433-3.273,12.827-6.052,18.552-1.446,2.978-3.017,5.9-4.724,8.736-.689,1.145-1.4,2.277-2.146,3.385q-.5.738-1.021,1.458c-.153.211-.308.421-.467.626.251-.323-.181.218-.226.273-1.621,1.974,1.193,4.82,2.828,2.829a68.331,68.331,0,0,0,7.117-11.189,92.764,92.764,0,0,0,6.975-16.108,37.243,37.243,0,0,0,1.716-8.562c.172-2.57-3.828-2.559-4,0Z"/><path class="b" d="M69.463,389.256c-5.291.423-10.693-.873-15.76-2.255a120.013,120.013,0,0,1-15.917-5.533,48.055,48.055,0,0,1-5.758-2.828c-2.212-1.329-4.225,2.129-2.019,3.454a73.73,73.73,0,0,0,12.879,5.653A101.5,101.5,0,0,0,60.5,392.628a36.572,36.572,0,0,0,8.961.628c2.549-.2,2.571-4.2,0-4Z"/><path class="a" d="M159.066,212.367c-1.665,2.469-2.247,8.075-3.487,10.747a17.4,17.4,0,0,1-4.522,6.1c-1.984,1.8-5.121,2.137-7.835,1.818-2.661-.313-5.327-.915-6.942-2.967-2.555.187-5.382-.439-6.616-2.818-2.13.558-4.008-.126-5.845-1.566a4.255,4.255,0,0,1-1.257-2,11.079,11.079,0,0,1,.6-4.059,10.664,10.664,0,0,1,2.741-4.208c-3.153-.915-1.292-6.874,1.526-10.1a12.748,12.748,0,0,1,5.109-3.06c3.776-1.095,5.712-1.323,8.156-1.1l3.371-5.555,18.444,11.333Z"/><path class="b" d="M130.172,208.5a26.2,26.2,0,0,0-5.606,3.427,12.3,12.3,0,0,0-3.607,6.1c-.586,2.426-.711,4.786,1.11,6.736a8.624,8.624,0,0,0,8.126,2.412l-2.258-.919c1.691,2.992,5.083,4,8.343,3.808l-1.414-.585c2.527,3.012,7.271,3.874,11.024,3.631a11.106,11.106,0,0,0,5.608-1.715,17.244,17.244,0,0,0,4.256-4.5c3.46-5.057,4.19-11.59,6.351-17.221a2.015,2.015,0,0,0-1.4-2.46,2.045,2.045,0,0,0-2.46,1.4c-.852,2.221-1.489,4.528-2.18,6.8-.393,1.291-.786,2.581-1.2,3.863-.174.533-.351,1.065-.539,1.593-.082.231-.165.46-.252.689-.036.094-.276.676-.149.386-1.1,2.516-3.066,5.7-5.768,6.7a12.089,12.089,0,0,1-8.781-.614,13.364,13.364,0,0,1-1.883-1.538c-.811-.6-1.786-.352-2.729-.422a3.941,3.941,0,0,1-3.373-1.835,2.046,2.046,0,0,0-2.258-.919c-1.5.34-4.128-.351-4.627-2.045a3.334,3.334,0,0,1,.033-.559c.017-.24.05-.47.089-.708a9.21,9.21,0,0,1,.579-2.134c1.353-3.176,4.093-4.406,6.985-5.916,2.282-1.192.262-4.646-2.019-3.454Z"/><path class="d" d="M171.338,194.377q-3.147,6.07-6.565,12.031a2.2,2.2,0,0,1-2.514,1.063c-6.356-1.986-17.265-8.278-22.861-11.944,1.222-3.761,2.672-7.819,4.238-11.864,3.369-8.7,7.276-17.341,10.614-22.8"/><path class="b" d="M142.348,149.337c-1.437,4.56-3.125,9.066-3.066,13.926.068,5.646,2.161,10.931,3.64,16.3.682,2.479,4.542,1.426,3.857-1.063-1.378-5-3.433-9.979-3.5-15.238-.054-4.481,1.6-8.657,2.923-12.862.776-2.461-3.085-3.514-3.857-1.064Z"/><path class="b" d="M140.7,197.145a19.276,19.276,0,0,0-5.616.388,20.3,20.3,0,0,0-6.494,2.338,13.71,13.71,0,0,0-6.313,10.446,4.669,4.669,0,0,0,3.068,5.015,2,2,0,0,0,1.063-3.857c-.211-.074-.179-.059.095.047a2.031,2.031,0,0,1-.224-.133q.348.284.114.071c-.141-.158-.116-.119.075.115-.092-.177-.192-.587-.085-.1-.039-.179-.095-.357-.134-.537.121.554.014-.075.013-.218,0-.219.018-.434.036-.651-.04.5.047-.234.067-.331q.058-.27.13-.536a11.006,11.006,0,0,1,2.679-4.82,12.335,12.335,0,0,1,5.846-2.734c.547-.135,1.1-.259,1.651-.361.263-.049.527-.094.792-.13-.421.057.324-.029.4-.036a16.615,16.615,0,0,1,2.839.024,2.015,2.015,0,0,0,2-2,2.042,2.042,0,0,0-2-2Z"/><path class="b" d="M175.554,31.8a8.991,8.991,0,0,0-7.363-9.957c-5.537-.956-10.772,1.036-15.155,4.348-1.059.8-1.521,2.76,0,3.454a21.1,21.1,0,0,1,6.031,3.934c2,1.931,3.57,4.108,6.313,5.048a8.086,8.086,0,0,0,6.12-.433,8.309,8.309,0,0,0,3.982-5.862,2.056,2.056,0,0,0-1.4-2.46,2.018,2.018,0,0,0-2.461,1.4,5.936,5.936,0,0,1-1.223,2.761c-.147.179-.337.319-.484.494-.108.128.374-.192.066-.063-.126.053-.894.423-.474.27a6.059,6.059,0,0,1-1.06.287c.292-.05-.046.006-.17.009-.215.006-.427.01-.642,0a4.845,4.845,0,0,1-2.175-.762,12.713,12.713,0,0,1-2.38-2.3,25.943,25.943,0,0,0-2.373-2.281,24.791,24.791,0,0,0-5.656-3.493v3.454c3.523-2.662,7.349-4.428,11.782-3.973a6.051,6.051,0,0,1,2.281.657,4.97,4.97,0,0,1,1.605,1.419,4.637,4.637,0,0,1,.795,1.886,2.889,2.889,0,0,1,.108.93,7.987,7.987,0,0,1-.071,1.236,2.01,2.01,0,0,0,2,2A2.051,2.051,0,0,0,175.554,31.8Z"/><path class="b" d="M152.609,15.008a35.425,35.425,0,0,1,2.324-4.638,11.637,11.637,0,0,1,2.438-2.977,5.625,5.625,0,0,1,1.164-.783,8.584,8.584,0,0,1,2.068-.76,5.684,5.684,0,0,1,1.788-.165,3.784,3.784,0,0,1,1.285.4,2.833,2.833,0,0,1,1.634,2.266,2.859,2.859,0,0,1,.089.719c.007.178,0,.355,0,.533-.012.353.123-.4-.013.13-.03.114-.055.229-.088.342-.027.095-.243.688-.109.36s-.111.209-.162.3c-.04.069-.1.141-.132.214-.181.372.219-.233.038-.04a5.951,5.951,0,0,1-.438.432c.482-.414-.548.22-.024.014-.11.043-.873.227-.492.174a4.753,4.753,0,0,1-.939.016c-.677-.044-1.556-.328-2.341-.465a18.276,18.276,0,0,0-10.346.99,2.066,2.066,0,0,0-1.4,2.46,2.012,2.012,0,0,0,2.46,1.4,15.034,15.034,0,0,1,9.729-.671,7.3,7.3,0,0,0,5.29-.446,5.756,5.756,0,0,0,2.41-2.83,7.528,7.528,0,0,0-2.085-8.593c-3.066-2.462-7.335-1.993-10.568-.044-3.5,2.108-5.485,6.022-7.035,9.646a2.067,2.067,0,0,0,.718,2.736,2.014,2.014,0,0,0,2.736-.717Z"/><path class="b" d="M84.123,102.2c.17-1.846.468-3.678.807-5.5.137-.735.279-1.47.445-2.2.061-.268.141-.534.2-.8.089-.429.131-.083-.047.069l-.883.515a22.011,22.011,0,0,1,3.406-.362c1.093-.125,2.184-.268,3.273-.421q3.418-.48,6.806-1.16a128.94,128.94,0,0,0,13.027-3.311q2.853-.886,5.658-1.918c1.438-.532,2.82-1.185,4.317-.463a4.133,4.133,0,0,1,1.057.754,4.966,4.966,0,0,1,.387.408c-.177-.232-.2-.249-.059-.053.292.489.574.978.838,1.484.926,1.775,1.763,3.6,2.616,5.408,1.1,2.327,4.545.3,3.454-2.019-1.514-3.215-2.82-7.483-6.108-9.349-3.978-2.257-8.173.272-12.042,1.517a128.174,128.174,0,0,1-14.208,3.685c-2.533.505-5.083.943-7.645,1.272q-1.823.234-3.652.4c-1.331.121-2.769.083-3.573,1.352A11.478,11.478,0,0,0,81.1,95.479c-.417,2.223-.772,4.467-.979,6.72a2.016,2.016,0,0,0,2,2,2.042,2.042,0,0,0,2-2Z"/><path class="b" d="M135.463,105.809a171.244,171.244,0,0,1,29,17,137.117,137.117,0,0,1,12.273,9.918,72.988,72.988,0,0,1,5.732,6.052,18.52,18.52,0,0,1,3.838,6.129,18.228,18.228,0,0,1,.833,6.233,16.541,16.541,0,0,1-1.256,5.33q-3.043,8.218-6.5,16.278a322.211,322.211,0,0,1-15.22,30.686c-.4.7-.8,1.4-1.206,2.1.026-.046-.085.016-.167,0a14.709,14.709,0,0,1-3.015-1.112c-2.235-.932-4.409-2.021-6.554-3.142-4.382-2.291-8.673-4.785-12.813-7.489l.919,2.258a211.33,211.33,0,0,1,10.522-26.475c.915-1.892,1.869-3.766,2.9-5.6a13.629,13.629,0,0,0,1.881-3.96,8.425,8.425,0,0,0-.574-5.448c-.921-1.789-2.835-2.577-4.519-3.477a63.478,63.478,0,0,1-12.9-8.54c-1.91-1.717-4.748,1.1-2.828,2.828a57.5,57.5,0,0,0,11.1,7.769c.817.443,1.639.877,2.459,1.315A17.853,17.853,0,0,1,152.141,156c.814.656.767,2.133.626,2.962a6.565,6.565,0,0,1-.2.815c-.118.384-.015.042.022-.033-.061.124-.139.242-.212.359-.494.792-.947,1.613-1.4,2.431-.937,1.708-1.817,3.448-2.662,5.2-1.983,4.115-3.785,8.318-5.486,12.556q-2.916,7.263-5.358,14.705a2.036,2.036,0,0,0,.919,2.259c3.93,2.567,8,4.939,12.146,7.138,2.13,1.128,4.288,2.21,6.5,3.18,1.817.8,4.181,2.141,6.221,1.962,2.77-.242,3.856-3.162,5.028-5.26q2.195-3.927,4.279-7.915,4.278-8.181,8.078-16.6,3.785-8.387,7.112-16.97a70.435,70.435,0,0,0,2.893-7.85,19.078,19.078,0,0,0,.436-6.242,20.919,20.919,0,0,0-1.84-7.181,30.414,30.414,0,0,0-5.1-6.91,91.414,91.414,0,0,0-12.728-11.6,167.847,167.847,0,0,0-15.784-11.043c-5.866-3.531-11.969-6.651-18.14-9.609-2.311-1.107-4.342,2.341-2.019,3.454Z"/><path class="b" d="M127.163,95.566c.054.021.559.244.145.054.13.06.261.117.391.178q.435.206.857.436a18.969,18.969,0,0,1,1.622,1c.283.193.56.394.834.6-.224-.169.023.02.117.095q.185.149.368.3c.541.454,1.061.933,1.561,1.432q.72.72,1.379,1.5c.1.123.208.246.31.372.006.007.385.487.164.2.195.253.382.512.565.773.394.565.763,1.148,1.1,1.749q.225.4.43.808c.08.162.158.324.234.488.037.082.244.565.082.174a2.055,2.055,0,0,0,2.46,1.4,2.02,2.02,0,0,0,1.4-2.46,23.911,23.911,0,0,0-12.953-12.953,2.008,2.008,0,0,0-2.46,1.4,2.056,2.056,0,0,0,1.4,2.46Z"/></svg>