<?xml version="1.0" encoding="utf-8"?>
<!-- Uploaded to: SVG Repo, www.svgrepo.com, Generator: SVG Repo Mixer Tools -->
<svg width="800px" height="800px" viewBox="-45.97 0 324.021 324.021" xmlns="http://www.w3.org/2000/svg"><defs><style>.a{fill:#957f6e;}.b{fill:#ffffff;}.c{fill:#211715;}.d{fill:#bdbdbd;}</style></defs><path class="a" d="M177.288,83.157c.672-7.676-.026-18.766-.329-23.029-1.052-14.775-7.658-31.275-17.164-40.445-4.11-3.965-5.3-5.815-9.777-8.244l-9.231-4.587c-7.445-3.111-14.257-4.423-25.852-4.423C95.924,2.429,79,12.223,71.5,19.411,59.038,31.337,51.136,53.12,52.133,83.157v0c.01,21.89-1.66,37.68-4,46.65-.328,1.269-.649,2.718-.954,4.272a56.221,56.221,0,0,0-2.727,16.3c-.087,4.745.732,10.076,4.526,12.927,2.668,2.326,7.261,5.14,12.15,4.992H173.152c8.58-1.87,14.56-10.47,14.5-18a53.434,53.434,0,0,0-2.94-17.09c-2.41-7.51-7.09-22.77-7.42-50.05Z"/><path class="b" d="M147.374,159.342c-4.29-2.9-8.37-6.09-9.24-8.24-1.17-2.879-1.078-6.731-1.06-10.05,11.985-5.373,21.584-21.45,23.271-26.031.257-.781.781-2.25,1.247-4,.621-.1.974-.153.974-.153a12.226,12.226,0,0,0,5.685-2.563,18.432,18.432,0,0,0,4.768-6.257,29.009,29.009,0,0,0,2.958-15.377,9.683,9.683,0,0,0-1.014-3.895,6.848,6.848,0,0,0-4.923-3.273,7.2,7.2,0,0,0-5.743,1.665c-9.467-1.841-26.31-25.55-29.5-36.055-5.933,7.316-18.9,14.3-30.624,18.42-2.406.846-10.124,3.077-14.515,4.351a63.714,63.714,0,0,0-23.031,13.07,7.3,7.3,0,0,0-5.511-1.451A6.852,6.852,0,0,0,56.2,82.781a9.681,9.681,0,0,0-1.013,3.895,29.009,29.009,0,0,0,2.958,15.377,18.42,18.42,0,0,0,4.768,6.257,11.7,11.7,0,0,0,7.488,2.678A49.441,49.441,0,0,0,79.85,129.51a41.372,41.372,0,0,0,15.605,12.072c.02,3.188.051,6.78-1.05,9.521-.85,2.1-5.1,5.19-9.68,8.03,0,0-4.707,34.567,29.663,34.567C153.5,193.7,147.374,159.342,147.374,159.342Z"/><path class="c" d="M68.572,82.45a66.924,66.924,0,0,1,11.313-7.859,70.378,70.378,0,0,1,14.452-5.56c4.169-1.215,8.372-2.368,12.442-3.891A106.07,106.07,0,0,0,122.5,57.813c5.013-2.886,10.03-6.294,13.79-10.745a2.465,2.465,0,0,0,0-3.394,2.42,2.42,0,0,0-3.394,0,45.6,45.6,0,0,1-11.733,9.358A96.825,96.825,0,0,1,105.9,60.363c-9.06,3.433-18.719,4.992-27.369,9.512a71.849,71.849,0,0,0-13.35,9.181,2.42,2.42,0,0,0,0,3.394,2.449,2.449,0,0,0,3.394,0Z"/><path class="c" d="M49.732,83.152c0,12.807-.349,25.954-2.378,38.5-.333,2.061-.719,4.116-1.2,6.148-.319,1.35-.676,2.69-.966,4.047-.412,1.922-1.024,3.781-1.486,5.693a59.645,59.645,0,0,0-1.628,11.887,26.292,26.292,0,0,0,1.083,9.436c2.416,7.006,10.713,11.922,17.968,11.83,3.086-.039,3.095-4.839,0-4.8a15.319,15.319,0,0,1-8.757-2.987,10.836,10.836,0,0,1-4.693-5.656,24.533,24.533,0,0,1-.76-8.77,53.133,53.133,0,0,1,1.767-11.042,145.082,145.082,0,0,0,3.321-14.647c.852-5.313,1.4-10.675,1.776-16.041.555-7.852.75-15.727.751-23.6,0-3.088-4.8-3.093-4.8,0Z"/><path class="c" d="M174.892,83.152a184.131,184.131,0,0,0,4.279,39.149c.824,3.557,1.809,7.073,2.912,10.554a74.925,74.925,0,0,1,2.452,9.246,31.907,31.907,0,0,1,.583,10.215,16.966,16.966,0,0,1-12.6,13.662c-3.01.691-1.736,5.32,1.276,4.628a21.589,21.589,0,0,0,14.689-12.811c2.842-6.772,1.467-14.874-.408-21.737-1.1-4.021-2.489-7.951-3.528-11.992a143.15,143.15,0,0,1-3.037-15.412,198.475,198.475,0,0,1-1.814-25.5c-.04-3.086-4.841-3.095-4.8,0Z"/><path class="c" d="M165.935,82.9a4.753,4.753,0,0,1,6.778.793,8.139,8.139,0,0,1,.947,4.293,25.538,25.538,0,0,1-.3,5.263c-1.074,6.346-4.371,14.076-11.435,15.306a2.421,2.421,0,0,0-1.676,2.953,2.455,2.455,0,0,0,2.952,1.676c9.711-1.692,14.352-12.708,15.157-21.474.389-4.242.281-9.548-3.3-12.474a9.712,9.712,0,0,0-12.518.27,2.421,2.421,0,0,0,0,3.394,2.45,2.45,0,0,0,3.394,0Z"/><path class="c" d="M160.092,105.474a24.182,24.182,0,0,1-1.127,6.024c-.229.771-.481,1.535-.737,2.3-.078.232-.158.464-.238.695-.16.469-.095.235-.032.1a50.807,50.807,0,0,1-3.238,5.924,57.481,57.481,0,0,1-12.836,14.8,24.37,24.37,0,0,1-9.466,4.785c-3.009.694-1.735,5.323,1.276,4.628,7.306-1.685,13.426-6.942,18.242-12.459a62.653,62.653,0,0,0,10.014-14.913,32.126,32.126,0,0,0,2.942-11.878c.106-3.089-4.695-3.085-4.8,0Z"/><path class="c" d="M68.62,79.509a9.711,9.711,0,0,0-12.517-.27c-3.583,2.926-3.692,8.232-3.3,12.475.8,8.765,5.446,19.782,15.156,21.473a2.469,2.469,0,0,0,2.952-1.676,2.421,2.421,0,0,0-1.676-2.953C62.17,107.328,58.872,99.6,57.8,93.252a25.612,25.612,0,0,1-.3-5.263,8.277,8.277,0,0,1,.946-4.293,4.747,4.747,0,0,1,6.778-.793,2.464,2.464,0,0,0,3.394,0,2.42,2.42,0,0,0,0-3.394Z"/><path class="c" d="M67.066,107.431c3.071,14.516,11.639,28.664,25.317,35.38a34.258,34.258,0,0,0,11.661,3.341,2.415,2.415,0,0,0,2.4-2.4,2.454,2.454,0,0,0-2.4-2.4c-13.461-1.4-24.471-13.04-29.313-25.052a60.68,60.68,0,0,1-3.037-10.145c-.639-3.02-5.267-1.742-4.628,1.276Z"/><path class="c" d="M141.425,4.538C132.369.779,122.486-.311,112.734.072A69.714,69.714,0,0,0,81.885,9.044,54.64,54.64,0,0,0,64.038,24.363,69.516,69.516,0,0,0,53.464,47.2c-3.2,11.662-4.113,23.908-3.731,35.96.1,3.081,4.9,3.095,4.8,0-.58-18.289,1.678-38.078,11.855-53.771A47.291,47.291,0,0,1,81.317,14.948a66.066,66.066,0,0,1,27.512-9.789c10.513-1.13,21.521-.06,31.32,4.008A2.415,2.415,0,0,0,143.1,7.49a2.462,2.462,0,0,0-1.676-2.952Z"/><path class="c" d="M179.688,83.157a126.342,126.342,0,0,0,.06-16.465,106.549,106.549,0,0,0-1.439-14.626c-2.078-11.125-6.633-22.252-13.939-30.98-1.921-2.3-4.129-4.347-6.245-6.46a30.6,30.6,0,0,0-6.9-5.259c-2.708-1.491-5.132,2.653-2.422,4.145a24.535,24.535,0,0,1,5.455,4.043c1.866,1.829,3.779,3.648,5.539,5.579a52.305,52.305,0,0,1,8.458,13.134,70.859,70.859,0,0,1,5.109,15.5A88.519,88.519,0,0,1,174.889,65.5a130.736,130.736,0,0,1,0,17.659,2.419,2.419,0,0,0,2.4,2.4,2.449,2.449,0,0,0,2.4-2.4Z"/><path class="c" d="M132.88,46.943A73.869,73.869,0,0,0,142.229,63.7c3.955,5.6,8.364,11.19,13.721,15.522,2.246,1.816,4.773,3.636,7.652,4.256,3.012.649,4.3-3.977,1.276-4.628a13.951,13.951,0,0,1-5.126-2.7,50.993,50.993,0,0,1-6.6-6.333A97.916,97.916,0,0,1,141.5,53.723c-.844-1.446-1.65-2.916-2.393-4.416q-.513-1.034-.98-2.088c-.049-.11-.1-.221-.145-.332a1.256,1.256,0,0,1-.075-.185c-.136-.344-.27-.688-.4-1.035a2.466,2.466,0,0,0-2.953-1.676,2.42,2.42,0,0,0-1.676,2.952Z"/><path class="c" d="M134.674,141.222a50.38,50.38,0,0,0,.209,6.337,12.518,12.518,0,0,0,1.69,5.667c2.372,3.425,6.2,5.888,9.589,8.189a2.4,2.4,0,0,0,2.423-4.145c-1.614-1.095-3.219-2.214-4.728-3.45-.661-.541-1.308-1.1-1.922-1.7-.268-.26-.53-.526-.781-.8-.126-.14-.249-.283-.371-.428-.244-.294.265.433-.065-.091-.145-.229-.29-.45-.413-.693-.132-.26.131.388-.006-.038-.072-.226-.152-.448-.218-.676a13.87,13.87,0,0,1-.449-2.294,53.649,53.649,0,0,1-.158-5.88c.019-3.089-4.781-3.093-4.8,0Z"/><path class="c" d="M93.055,141.583a52.305,52.305,0,0,1-.173,5.669,13.845,13.845,0,0,1-.518,2.446c-.055.173-.117.344-.176.516.14-.408.048-.089-.016.014s-.136.236-.212.351c-.037.056-.344.45-.137.2.192-.236-.094.1-.129.136-.121.131-.24.264-.364.392-.273.283-.558.553-.85.816-.581.522-1.213,1.034-1.754,1.438-1.678,1.252-3.435,2.4-5.212,3.5a2.4,2.4,0,1,0,2.423,4.144c1.9-1.183,3.781-2.41,5.564-3.767a21,21,0,0,0,4.34-4.071,11.109,11.109,0,0,0,1.728-5.211,47,47,0,0,0,.286-6.573c-.019-3.088-4.819-3.094-4.8,0Z"/><path class="d" d="M40.4,308.342l-9.816-7.668c-9.556-7.111-25.837-18.088-27.587-27.6s.816-19.1,3.688-28.26A417.962,417.962,0,0,1,28.6,189.29c1.553-3.232,3.218-6.54,5.98-9A40.483,40.483,0,0,1,44.826,174.4c1.343-.549,2.667-1.062,3.908-1.563,10.393-4.2,18.067-7.126,26.8-10.743,1.058-.936,2.174-1.849,3.343-2.75l4.673-3.111c5.941,17.676,12.786,38.086,19.179,55.907,4.424,12.333,9.4,25.389,13.886,37.808,4.934-13.78,8.56-23.532,13.416-37.069,6.407-17.86,14.049-38.431,18.526-56.75l4.5,3.052c1.285.99,2.515,1.977,3.681,2.982,8.658,3.586,16.3,6.5,26.625,10.674,1.241.5,2.565,1.014,3.908,1.563a40.483,40.483,0,0,1,10.242,5.886c2.762,2.465,4.427,5.773,5.98,9a417.962,417.962,0,0,1,21.924,55.519c2.872,9.159,5.449,18.742,3.688,28.26s-18.031,20.494-27.587,27.6l-9.816,7.668Z"/><path class="c" d="M77.951,158.5c-6.45,2.723-12.963,5.294-19.472,7.873-3.674,1.457-7.341,2.932-11.011,4.4a72.059,72.059,0,0,0-10.59,4.945,22.544,22.544,0,0,0-7.358,6.867,74.475,74.475,0,0,0-5.138,10.042q-5.228,11.238-9.8,22.767Q10.049,226.82,6.193,238.5c-2.562,7.761-5.155,15.627-5.96,23.8a37.036,37.036,0,0,0,.546,11.891,18.94,18.94,0,0,0,3.278,6.661c3.655,5.027,8.459,9.113,13.32,12.929,2.557,2.007,5.164,3.949,7.785,5.872,1.155.847,2.312,1.691,3.464,2.543.186.137.752.548.261.178l.075.059c.15.113.3.231.444.347l8.509,6.646.783.612a2.479,2.479,0,0,0,3.394,0,2.416,2.416,0,0,0,0-3.394c-5.6-4.376-11.226-8.688-16.934-12.925a108.515,108.515,0,0,1-13.916-11.745,29.286,29.286,0,0,1-4.649-6.054,17.531,17.531,0,0,1-1.745-7.77c-.32-7.855,1.885-15.513,4.218-22.932q3.615-11.49,7.9-22.758,4.219-11.112,9.077-21.966c1.614-3.6,3.267-7.191,5-10.741,1.454-2.982,3.048-6,5.666-8.135a37,37,0,0,1,8.448-4.762c3.6-1.587,7.314-2.956,10.97-4.411,6.4-2.545,12.807-5.052,19.171-7.677q2.547-1.05,5.082-2.123a2.415,2.415,0,0,0,.861-3.284,2.465,2.465,0,0,0-3.284-.861Z"/><path class="c" d="M151.723,162.646c6.38,2.693,12.809,5.262,19.247,7.813q5.2,2.061,10.391,4.141a85.277,85.277,0,0,1,10.574,4.759,18.25,18.25,0,0,1,6.611,5.824,77.071,77.071,0,0,1,5.024,9.867q5.017,10.782,9.4,21.842,4.4,11.1,8.153,22.432c2.47,7.455,5.164,15.117,5.938,22.977a31.94,31.94,0,0,1-.434,10.859,16.335,16.335,0,0,1-3.025,5.666c-3.627,4.744-8.472,8.631-13.17,12.256-3.734,2.882-7.624,5.56-11.342,8.464l-8.36,6.53-.728.569a2.412,2.412,0,0,0,0,3.394,2.462,2.462,0,0,0,3.394,0l7.529-5.881,1.763-1.377c.141-.11.28-.222.422-.33.03-.023.059-.047.09-.07-.51.384.2-.135.4-.278,2.359-1.742,4.735-3.46,7.08-5.221,5.095-3.824,10.218-7.782,14.508-12.519a29.98,29.98,0,0,0,4.851-6.767,22.993,22.993,0,0,0,2-9.211c.385-8.18-1.818-16.256-4.238-23.989q-3.667-11.722-8.039-23.211-4.4-11.58-9.463-22.894c-1.673-3.739-3.384-7.466-5.186-11.146-1.56-3.186-3.384-6.394-6.108-8.738-5.663-4.869-13.257-7.2-20.077-9.922-6.632-2.647-13.286-5.24-19.892-7.951q-2.45-1.006-4.89-2.033a2.483,2.483,0,0,0-3.284.861,2.417,2.417,0,0,0,.861,3.284Z"/><path class="b" d="M114.847,181.913a104.7,104.7,0,0,1-21.563-3.3l-2.425-.679c3.919,11.562,7.976,23.363,11.866,34.207,4.424,12.333,9.4,25.388,13.886,37.808,4.934-13.78,8.56-23.531,13.416-37.069,3.979-11.091,8.434-23.227,12.311-35.221l-.742.263c-7.221,2.872-17.739,4.04-25.131,4.022Q115.675,181.941,114.847,181.913Z"/><path class="d" d="M99.929,243.817Q81.78,217.906,66.3,190.505a2.672,2.672,0,0,1-.454-1.268,2.211,2.211,0,0,1,.667-1.469c2.681-2.794,5.629-5.487,8.519-8.082-2.808-1.66-5.474-3.381-8.173-4.644-.3-.139-.627-.31-.722-.607a1.07,1.07,0,0,1,.161-.779c2.772-5.588,7.093-10.09,12.574-14.313l4.673-3.111c5.941,17.676,12.786,38.086,19.179,55.907,4.706,13.119,10.032,27.056,14.738,40.175"/><path class="d" d="M117.064,248.679c4.707-13.119,8.257-22.682,12.963-35.8,6.407-17.86,14.049-38.431,18.526-56.75l4.5,3.052c5.482,4.222,9.969,8.412,12.741,14a1.07,1.07,0,0,1,.161.779c-.095.3-.423.468-.722.608-2.7,1.262-5.365,2.983-8.173,4.643,2.89,2.595,5.838,5.288,8.519,8.082a2.211,2.211,0,0,1,.667,1.47,2.672,2.672,0,0,1-.454,1.267q-15.456,27.362-33.628,53.312"/><path class="c" d="M102,242.606Q84.948,218.237,70.139,192.4q-.532-.93-1.061-1.862-.236-.414-.47-.829c-.062-.109-.418-.922-.381-.594.008.063.045.3-.016.351.344-.3.657-.679.976-1q.66-.667,1.332-1.322c2.02-1.973,4.111-3.872,6.211-5.759a2.421,2.421,0,0,0-.486-3.769c-1.513-.9-3.011-1.825-4.533-2.708a41.958,41.958,0,0,1-4.2-2.285l.861.861-.163-.258.328,1.211c0,.18.25-.375.289-.45q.234-.437.481-.865c.329-.57.677-1.13,1.039-1.68a30.612,30.612,0,0,1,2.258-3,48.235,48.235,0,0,1,5.759-5.63,73.674,73.674,0,0,1,6.394-4.506l-3.526-1.435C89.6,181.779,98.06,206.645,107.2,231.286c2.674,7.214,5.355,14.425,7.954,21.666a2.463,2.463,0,0,0,2.952,1.676,2.421,2.421,0,0,0,1.677-2.952c-4.61-12.841-9.477-25.588-14.108-38.421-4.432-12.285-8.664-24.643-12.853-37.012q-3.495-10.318-6.956-20.649a2.426,2.426,0,0,0-3.526-1.434,64.531,64.531,0,0,0-12.054,9.682,42.016,42.016,0,0,0-3.635,4.522,17.674,17.674,0,0,0-2.819,5.039c-.731,2.774,1.931,3.7,3.842,4.736,2.093,1.133,4.107,2.406,6.153,3.62l-.486-3.77c-1.984,1.782-3.958,3.575-5.874,5.43-1.734,1.679-4.154,3.487-3.976,6.15a8.347,8.347,0,0,0,1.447,3.391q1.059,1.863,2.129,3.72,1.9,3.3,3.848,6.584Q79,216.926,87.758,230.181q4.947,7.492,10.1,14.847a2.462,2.462,0,0,0,3.283.861,2.419,2.419,0,0,0,.861-3.283Z"/><path class="c" d="M119.379,249.317c8.614-24,17.845-47.839,25.63-72.131,2.162-6.744,4.169-13.541,5.858-20.42l-3.526,1.434q1.657,1.125,3.316,2.247c.385.261.776.515,1.155.783-.288-.2.148.112.242.186q.343.269.684.539.835.667,1.657,1.354a48.966,48.966,0,0,1,5.291,5.084,27.717,27.717,0,0,1,2.154,2.77q.494.731.944,1.491c.185.314.775,1.229.775,1.305l.328-1.211-.163.258.861-.861a41.756,41.756,0,0,1-4.2,2.285c-1.523.882-3.02,1.81-4.533,2.708a2.421,2.421,0,0,0-.486,3.769c1.808,1.625,3.609,3.259,5.365,4.941q1.27,1.216,2.5,2.473c.055.055.512.628.649.668-.083-.024.012-.49,0-.474-.266.526-.578,1.033-.87,1.546q-3.7,6.526-7.563,12.967-7.608,12.7-15.789,25.053-4.695,7.086-9.571,14.049a2.42,2.42,0,0,0,.861,3.283,2.448,2.448,0,0,0,3.283-.861q9.054-12.936,17.488-26.293,4.264-6.762,8.363-13.627c2.667-4.469,5.447-8.93,7.86-13.543a4.478,4.478,0,0,0,.182-4.324,14.031,14.031,0,0,0-2.825-3.164c-2.124-2.092-4.33-4.1-6.547-6.088l-.486,3.77c1.914-1.136,3.8-2.323,5.749-3.4,1.682-.929,4.228-1.62,4.335-3.926.087-1.845-1.476-3.911-2.484-5.381a37.689,37.689,0,0,0-3.462-4.316,71.524,71.524,0,0,0-12.649-10.207,2.418,2.418,0,0,0-3.526,1.435c-3.031,12.349-7.053,24.438-11.257,36.43-4.218,12.03-8.578,24.012-12.938,35.991q-3.66,10.059-7.293,20.13a2.422,2.422,0,0,0,1.676,2.952,2.449,2.449,0,0,0,2.953-1.676Z"/><path class="c" d="M92.646,180.926a93.669,93.669,0,0,0,25.2,3.406c8.145-.133,16.763-1.112,24.392-4.1a2.473,2.473,0,0,0,1.676-2.953,2.418,2.418,0,0,0-2.952-1.676c-7.266,2.844-15.359,3.8-23.116,3.926a88.641,88.641,0,0,1-23.92-3.235c-2.989-.792-4.264,3.837-1.276,4.629Z"/><path class="b" d="M116.048,204.43c-33.413.242-66.666.436-78.472.476a3.4,3.4,0,0,0-3.385,3.41c.069,19.183.994,85.57,1.7,109.971a3.4,3.4,0,0,0,3.457,3.3c10.67-.164,43.718-.063,76.7.05,32.983-.113,66.031-.214,76.7-.05a3.4,3.4,0,0,0,3.457-3.3c.705-24.4,1.63-90.788,1.7-109.971a3.4,3.4,0,0,0-3.385-3.41C182.715,204.866,149.462,204.672,116.048,204.43Z"/><path class="c" d="M116.048,202.03q-35.092.254-70.187.441l-5.181.023c-1.642.007-3.507-.206-5.065.369a6.03,6.03,0,0,0-3.821,6.044q.006,1.681.019,3.364.068,9.9.2,19.8.311,26.358.77,52.715.205,11.763.46,23.525.1,4.569.227,9.136c.071,2.52.92,4.839,3.351,5.972,1.657.773,3.535.553,5.315.536,21.329-.193,42.664-.021,63.993.05,24.481.08,48.962-.142,73.444-.1,3.6.007,7.206.016,10.809.051,1.825.018,3.692.2,5.341-.757,2.276-1.324,2.852-3.6,2.92-6.043.187-6.728.324-13.457.455-20.186q.515-26.5.845-53.007.153-11.571.272-23.143.043-4.368.074-8.735c.008-1.159.029-2.32.02-3.479a5.929,5.929,0,0,0-4.3-5.9,20.484,20.484,0,0,0-4.929-.213l-5.266-.024q-6.93-.034-13.858-.075-18.072-.1-36.144-.226-9.88-.066-19.762-.138c-3.089-.022-3.092,4.778,0,4.8q34.377.249,68.752.433c3.161.016,6.389-.161,9.544.043,1.387.089,1.161,1.3,1.156,2.379q-.009,1.764-.022,3.528-.072,9.787-.2,19.574-.306,25.683-.751,51.363-.2,11.582-.449,23.161-.1,4.533-.219,9.064c-.031,1.11.29,2.63-1.111,2.812a29.3,29.3,0,0,1-3.873-.042c-21.131-.161-42.267-.01-63.4.06-23.829.079-47.659-.133-71.489-.1-3.7,0-7.4.013-11.1.043a19.232,19.232,0,0,1-3.745.029c-1.255-.265-.887-2.138-.913-3.1q-.269-10.06-.445-20.124-.493-25.677-.817-51.356-.151-11.4-.27-22.8-.045-4.386-.078-8.774-.012-1.747-.021-3.495c-.006-1.2-.122-2.164,1.337-2.221,3.21-.124,6.445-.027,9.658-.043q6.847-.034,13.7-.074,17.742-.1,35.484-.223,9.639-.065,19.276-.135C119.136,206.808,119.143,202.008,116.048,202.03Z"/><path class="c" d="M50.308,310.349c16.139-.1,32.28-.014,48.418.035,19.788.061,39.574-.031,59.362-.06,7.9-.012,15.8-.024,23.7.025,3.089.02,3.092-4.78,0-4.8-16.139-.1-32.28-.014-48.418.035-19.788.061-39.574-.031-59.362-.06-7.9-.012-15.8-.024-23.7.025-3.087.02-3.094,4.82,0,4.8Z"/><path class="c" d="M116.049,251.191c-2.441.023-4.882.056-7.322.058a2.436,2.436,0,0,0-2.4,2.4q-.015,3.84-.011,7.68c0,1.5,0,3.008.019,4.512,0,.54,0,1.083.021,1.622a2.515,2.515,0,0,0,2.661,2.6c4.386,0,8.774-.03,13.16-.01a4.711,4.711,0,0,0,2.369-.307c1.135-.6,1.191-1.843,1.206-2.958.02-1.408.023-2.816.026-4.224q.01-4.461-.008-8.92a2.435,2.435,0,0,0-2.4-2.4c-2.44,0-4.881-.035-7.321-.058a2.4,2.4,0,1,0,0,4.8c2.44.023,4.881.056,7.321.058l-2.4-2.4c.018,4.674.082,9.356-.034,14.029l.327-1.211h0l2.072-1.189c-.8-.074-1.635-.023-2.442-.023-1.615,0-3.23.017-4.844.017-1.577,0-3.154-.015-4.731-.017-.844,0-1.714-.054-2.556.023l2.073,1.189h0l.328,1.211c-.117-4.673-.053-9.355-.035-14.029l-2.4,2.4c2.44,0,4.881-.035,7.322-.058a2.4,2.4,0,0,0,0-4.8Z"/><path class="c" d="M198.638,263.354l4.1-.921a2.4,2.4,0,0,0,.573-4.386,2.6,2.6,0,0,0-1.849-.242l-4.1.921a2.4,2.4,0,0,0-.573,4.386,2.6,2.6,0,0,0,1.849.242Z"/><path class="c" d="M34.824,258.726l-4.1-.921a2.531,2.531,0,0,0-1.85.242,2.4,2.4,0,0,0-.861,3.283,2.416,2.416,0,0,0,1.434,1.1l4.1.921a2.531,2.531,0,0,0,1.85-.242,2.4,2.4,0,0,0,.861-3.283,2.415,2.415,0,0,0-1.435-1.1Z"/><path class="c" d="M107.721,120.327a19.408,19.408,0,0,0,9.349,2.163,15.2,15.2,0,0,0,9.428-2.777,2.414,2.414,0,0,0,0-3.395,2.462,2.462,0,0,0-3.394,0c.726-.565.155-.127-.032-.008s-.381.232-.579.336c-.163.085-.874.368-.22.126-.266.1-.529.2-.8.29a13.9,13.9,0,0,1-2.236.51c.351-.052-.085.006-.221.02-.219.021-.439.04-.659.054q-.794.051-1.589.044c-.474,0-.949-.019-1.422-.051-.218-.015-.435-.032-.652-.054-.018,0-.8-.11-.323-.035a15.866,15.866,0,0,1-2.089-.464c-.292-.087-.577-.192-.866-.291-.616-.211.344.179-.212-.083q-.537-.253-1.061-.53a2.453,2.453,0,0,0-3.284.861,2.427,2.427,0,0,0,.861,3.284Z"/><path class="c" d="M115.865,98.284a44,44,0,0,1,1.035,4.732l-.086-.638a2.852,2.852,0,0,1,.018.653l.085-.638a1.485,1.485,0,0,1-.072.294l.242-.574a1.115,1.115,0,0,1-.1.189l.375-.485a1.013,1.013,0,0,1-.155.152l.486-.375a3.12,3.12,0,0,1-.375.2l.574-.242a2.741,2.741,0,0,1-.632.184l.638-.085a2.557,2.557,0,0,1-.593,0l.638.085c-.224-.031-.443-.085-.667-.115a1.812,1.812,0,0,0-.957-.043,1.774,1.774,0,0,0-.892.285,2.4,2.4,0,0,0-.861,3.283,2.3,2.3,0,0,0,1.434,1.1c.507.069,1,.2,1.514.22a4.831,4.831,0,0,0,2.227-.529,3.208,3.208,0,0,0,1.78-2.116,5.328,5.328,0,0,0-.022-2.283c-.258-1.524-.61-3.035-1-4.53a2.4,2.4,0,1,0-4.629,1.276Z"/><path class="c" d="M90.819,84.889c-.791,2.569-.276,8.476,4.59,8.979,6.43-.039,6.772-7.181,4.607-10.539C98.244,80.579,93.033,79.436,90.819,84.889Z"/><path class="c" d="M142.312,84.89c.79,2.568.275,8.475-4.59,8.978-6.43-.039-6.772-7.181-4.608-10.539C134.886,80.579,140.1,79.436,142.312,84.89Z"/><path class="c" d="M59.152,107.413c-.01,8.108-.861,16.605,1.066,24.569,1.614,6.67,7.487,10.445,13.387,13.09a2.476,2.476,0,0,0,3.284-.861,2.418,2.418,0,0,0-.861-3.284,32.445,32.445,0,0,1-6.91-3.888,13.666,13.666,0,0,1-2.968-3.1,10.99,10.99,0,0,1-1.47-3.964c-1.559-7.326-.737-15.132-.728-22.562,0-3.089-4.8-3.094-4.8,0Z"/><path class="c" d="M80.789,138.56c2.613,2.047,3.092,5.387,1.155,7.714a8.181,8.181,0,0,1-6.5,2.55c-2.614-.085-6.108-2.635-6.519-5.559-.4-2.834,3-5.263,6.126-5.938A6.647,6.647,0,0,1,80.789,138.56Z"/><path class="b" d="M59.872,74.92c-6.606,1.17-9.348,10.108-8.811,17.722.508,7.209,2.421,14.913,8.7,18.553,2.482,1.124,6.234,1.686,8.418-.674s2.671-5.888,2.862-9.177a87.352,87.352,0,0,0-.723-17.328C69.864,80.8,69.21,78.437,66.8,76.4,64.684,74.621,61.746,74.588,59.872,74.92Z"/><path class="c" d="M59.234,72.605c-6.536,1.283-9.538,8.22-10.346,14.16a36.073,36.073,0,0,0,.271,10.321,28.536,28.536,0,0,0,3.068,9.6,15.439,15.439,0,0,0,7.472,7.064c3.242,1.245,7.278,1.212,9.932-1.28,2.833-2.662,3.516-6.844,3.776-10.53a84.394,84.394,0,0,0-.16-13.368c-.359-4.044-.556-8.729-3.11-12.093-2.661-3.506-6.689-4.56-10.9-3.873a2.419,2.419,0,0,0-1.676,2.953,2.458,2.458,0,0,0,2.952,1.676,5.888,5.888,0,0,1,5.952,2.314c1.532,2.237,1.634,5.462,1.895,8.062a87.409,87.409,0,0,1,.394,11.326c-.087,2.878-.054,6.244-1.522,8.829-1.26,2.219-3.4,2.3-5.648,1.57-2.189-.709-3.92-2.839-5.039-4.77-2.581-4.457-3.4-10.306-3.1-15.391a18.923,18.923,0,0,1,2.05-7.9,7.185,7.185,0,0,1,5.019-4.045,2.423,2.423,0,0,0,1.676-2.952A2.45,2.45,0,0,0,59.234,72.605Z"/></svg>