<svg class="svg-icon" style="width: 1em;height: 1em;vertical-align: middle;fill: currentColor;overflow: hidden;" viewBox="0 0 1024 1024" version="1.1" xmlns="http://www.w3.org/2000/svg"><path d="M507.733333 151.466667c-200.533333 0-364.8 151.466667-384 347.733333-2.133333 21.333333 14.933333 38.4 34.133334 38.4h697.6c21.333333 0 36.266667-19.2 34.133333-38.4-17.066667-196.266667-181.333333-347.733333-381.866667-347.733333zM849.066667 708.266667c-74.666667-8.533333-93.866667-93.866667-164.266667-93.866667-72.533333 0-91.733333 93.866667-164.266667 93.866667-72.533333 0-91.733333-93.866667-164.266666-93.866667-72.533333 0-91.733333 93.866667-164.266667 93.866667-29.866667 0-49.066667-14.933333-68.266667-34.133334 12.8 110.933333 106.666667 198.4 221.866667 198.4h328.533333c104.533333 0 189.866667-70.4 215.466667-166.4-14.933333 4.266667-27.733333 4.266667-40.533333 2.133334z" fill="#FD7D70" /><path d="M520.533333 708.266667c72.533333 0 89.6-93.866667 164.266667-93.866667H356.266667c74.666667 0 91.733333 93.866667 164.266666 93.866667z" fill="#FFDCB4" /><path d="M356.266667 614.4H157.866667c-19.2 0-34.133333 14.933333-34.133334 34.133333 0 8.533333 0 17.066667 2.133334 25.6 19.2 19.2 38.4 34.133333 68.266666 34.133334 72.533333 0 89.6-93.866667 162.133334-93.866667zM887.466667 706.133333c4.266667-17.066667 6.4-36.266667 6.4-55.466666 0-19.2-14.933333-34.133333-34.133334-34.133334h-174.933333c70.4 0 89.6 85.333333 164.266667 93.866667 12.8 0 25.6 0 38.4-4.266667z" fill="#FFDCB4" /></svg>