<svg class="svg-icon" style="width: 1em;height: 1em;vertical-align: middle;fill: currentColor;overflow: hidden;" viewBox="0 0 1024 1024" version="1.1" xmlns="http://www.w3.org/2000/svg"><path d="M512 906.666667c-89.6 0-160-70.4-160-157.866667l36.266667-424.533333h247.466666L672 746.666667c0 87.466667-70.4 160-160 160z" fill="#FFDCB4" /><path d="M776.533333 584.533333c57.6 0 113.066667-32 138.666667-83.2 4.266667-6.4 4.266667-27.733333 4.266667-34.133333-10.666667-181.333333-189.866667-328.533333-407.466667-328.533333S115.2 285.866667 104.533333 467.2c0 6.4 2.133333 27.733333 4.266667 34.133333 25.6 51.2 81.066667 83.2 138.666667 83.2h529.066666z" fill="#FD7D70" /><path d="M174.933333 300.8h-6.4c-25.6 34.133333-44.8 72.533333-55.466666 115.2 12.8 19.2 36.266667 32 61.866666 32 40.533333 0 74.666667-34.133333 74.666667-74.666667s-34.133333-72.533333-74.666667-72.533333zM808.533333 582.4c6.4-10.666667 10.666667-21.333333 10.666667-34.133333 0-34.133333-27.733333-61.866667-61.866667-61.866667-34.133333 0-61.866667 27.733333-61.866666 61.866667 0 14.933333 4.266667 27.733333 12.8 36.266666h70.4c8.533333 0 19.2 0 29.866666-2.133333zM497.066667 219.733333c0 72.533333 57.6 130.133333 130.133333 130.133334s130.133333-57.6 130.133333-130.133334v-12.8c-64-40.533333-145.066667-66.133333-230.4-68.266666-19.2 23.466667-29.866667 51.2-29.866666 81.066666z" fill="#FFDCB4" /></svg>