<svg class="svg-icon" style="width: 1em;height: 1em;vertical-align: middle;fill: currentColor;overflow: hidden;" viewBox="0 0 1024 1024" version="1.1" xmlns="http://www.w3.org/2000/svg"><path d="M548.266667 238.933333h-70.4c-23.466667 0-46.933333 10.666667-61.866667 29.866667L93.866667 678.4c-12.8 17.066667-10.666667 42.666667 8.533333 55.466667 117.333333 83.2 258.133333 132.266667 411.733333 132.266666 153.6 0 294.4-49.066667 411.733334-132.266666 19.2-12.8 21.333333-38.4 8.533333-55.466667L608 268.8c-14.933333-19.2-36.266667-29.866667-59.733333-29.866667z" fill="#FD7D70" /><path d="M565.333333 155.733333h-104.533333c-10.666667 0-21.333333 4.266667-29.866667 12.8L155.733333 601.6c96 76.8 224 125.866667 358.4 125.866667 132.266667 0 262.4-46.933333 358.4-123.733334L593.066667 170.666667c-6.4-8.533333-17.066667-14.933333-27.733334-14.933334z" fill="#FFDCB4" /><path d="M635.733333 563.2c-12.8-12.8-12.8-29.866667 0-42.666667l21.333334-21.333333c12.8-12.8 29.866667-12.8 42.666666 0 12.8 12.8 12.8 29.866667 0 42.666667l-21.333333 21.333333c-10.666667 12.8-29.866667 12.8-42.666667 0zM475.733333 563.2c-12.8-12.8-12.8-29.866667 0-42.666667l21.333334-21.333333c12.8-12.8 29.866667-12.8 42.666666 0 12.8 12.8 12.8 29.866667 0 42.666667l-21.333333 21.333333c-12.8 12.8-32 12.8-42.666667 0zM300.8 563.2c-12.8-12.8-12.8-29.866667 0-42.666667l21.333333-21.333333c12.8-12.8 29.866667-12.8 42.666667 0 12.8 12.8 12.8 29.866667 0 42.666667l-21.333333 21.333333c-12.8 12.8-32 12.8-42.666667 0zM398.933333 433.066667c-12.8-12.8-12.8-29.866667 0-42.666667l21.333334-21.333333c12.8-12.8 29.866667-12.8 42.666666 0 12.8 12.8 12.8 29.866667 0 42.666666l-21.333333 21.333334c-12.8 12.8-32 12.8-42.666667 0zM573.866667 433.066667c-12.8-12.8-12.8-29.866667 0-42.666667l21.333333-21.333333c12.8-12.8 29.866667-12.8 42.666667 0 12.8 12.8 12.8 29.866667 0 42.666666l-21.333334 21.333334c-12.8 12.8-32 12.8-42.666666 0z" fill="#FD7D70" /></svg>