<!DOCTYPE svg PUBLIC "-//W3C//DTD SVG 1.1//EN" "http://www.w3.org/Graphics/SVG/1.1/DTD/svg11.dtd">

<!-- Uploaded to: SVG Repo, www.svgrepo.com, Transformed by: SVG Repo Mixer Tools -->
<svg fill="#ffffff"  version="1.1" id="Icons" xmlns="http://www.w3.org/2000/svg" xmlns:xlink="http://www.w3.org/1999/xlink" viewBox="-3.2 -3.2 38.40 38.40" xml:space="preserve" stroke="#ffffff" transform="rotate(0)">

<g id="SVGRepo_bgCarrier" stroke-width="0"/>

<g id="SVGRepo_tracerCarrier" stroke-linecap="round" stroke-linejoin="round"/>

<g id="SVGRepo_iconCarrier"> <g> <path d="M27,18c-0.5,0-0.9-0.3-1-0.8l0-0.1c-0.6-2.7-3.1-4.8-6-5.2V14c0,0.7-0.4,1.3-1,1.6c-0.6,0.3-1.3,0.1-1.8-0.4l-5.9-5.7 C11.1,9.3,11,9.1,11,8.8s0.1-0.5,0.3-0.7l5.9-5.7c0.4-0.4,1.1-0.5,1.6-0.3c0.7,0.3,1.2,1,1.2,1.8v1.9c4.5,0.5,8,4.1,8,8.5V17 c0,0.5-0.4,0.9-0.9,1C27.1,18,27,18,27,18z"/> </g> <g> <path d="M13.7,30c-0.2,0-0.4,0-0.6-0.1c-0.7-0.3-1.2-1-1.2-1.8v-1.9c-4.5-0.5-8-4.1-8-8.5V15c0-0.5,0.4-0.9,0.9-1 c0.5-0.1,1,0.3,1.1,0.8l0,0.1c0.6,2.7,3.1,4.8,6,5.2V18c0-0.7,0.4-1.3,1-1.6c0.6-0.3,1.3-0.1,1.8,0.4l5.9,5.7 c0.2,0.2,0.3,0.4,0.3,0.7s-0.1,0.5-0.3,0.7l-5.9,5.7C14.5,29.9,14.1,30,13.7,30z"/> </g> </g>

</svg>