<svg xmlns="http://www.w3.org/2000/svg" viewBox="0 0 64 64" id="bear"><path fill="#965500" d="M57,40.26C57,54.07,45.81,57,32,57S7,54.07,7,40.26c0-6.09,2.18-16.5,5.81-21.77.43-.63.88-1.24,1.35-1.84a28.61,28.61,0,0,1,6.62-6.12,21.93,21.93,0,0,1,3.1-1.72,19.12,19.12,0,0,1,16.24,0,21.93,21.93,0,0,1,3.1,1.72,28.61,28.61,0,0,1,6.62,6.12c.47.6.92,1.21,1.35,1.84C54.82,23.76,57,34.17,57,40.26Z"></path><circle cx="23.5" cy="23.5" r="1.5" fill="#2d2d2d"></circle><circle cx="40.5" cy="23.5" r="1.5" fill="#2d2d2d"></circle><path fill="#703f00" d="M53 12a5 5 0 0 1-3.16 4.65 28.61 28.61 0 0 0-6.62-6.12A5 5 0 0 1 53 12zM20.78 10.53a28.61 28.61 0 0 0-6.62 6.12 5 5 0 1 1 6.62-6.12zM36.53 51H27.47a4 4 0 0 1-4-4.44l.74-6.6a7.83 7.83 0 0 1 4.83-6.39.49.49 0 0 0 .05.16 1.33 1.33 0 0 0 .66.64l2.23 1 2.23-1a1.33 1.33 0 0 0 .66-.64.49.49 0 0 0 0-.16A7.85 7.85 0 0 1 39.77 40l.74 6.6A4 4 0 0 1 36.53 51z"></path><path fill="#3e2c27" d="M32,46a1,1,0,0,1-1-1V34a1,1,0,0,1,2,0V45A1,1,0,0,1,32,46Z"></path><path fill="#3e2c27" d="M29,48a1,1,0,0,1-.55-1.83l3-2a1,1,0,0,1,1.1,1.66l-3,2A.94.94,0,0,1,29,48Z"></path><path fill="#3e2c27" d="M35 48a.94.94 0 0 1-.55-.17l-3-2a1 1 0 0 1 1.1-1.66l3 2A1 1 0 0 1 35 48zM35 33.26a.85.85 0 0 1-.06.31.49.49 0 0 1 0 .16 1.33 1.33 0 0 1-.66.64l-2.23 1-2.23-1a1.33 1.33 0 0 1-.66-.64.49.49 0 0 1-.05-.16.85.85 0 0 1-.06-.31A1.33 1.33 0 0 1 30.39 32h3.22A1.33 1.33 0 0 1 35 33.26z"></path></svg>