<svg xmlns="http://www.w3.org/2000/svg" viewBox="0 0 64 64" id="gorilla"><path fill="#646467" d="M55.52,39.84C55.52,52.21,44.37,60,32,60S8.48,52.21,8.48,39.84,19.63,4,32,4,55.52,27.47,55.52,39.84Z"></path><path fill="#87868a" d="M34.87,23.11h0a4,4,0,0,1,5.74,0L47.53,30a5.11,5.11,0,0,1,0,7.22l-4.36,4.35A7.7,7.7,0,0,0,40.93,47h0a8.31,8.31,0,0,1-8.3,8.31H31.37A8.31,8.31,0,0,1,23.07,47h0a7.7,7.7,0,0,0-2.24-5.42l-4.36-4.35a5.11,5.11,0,0,1,0-7.22l6.92-6.91a4,4,0,0,1,5.74,0h0A4.07,4.07,0,0,0,34.87,23.11Z"></path><circle cx="25.5" cy="33.5" r="1.5" fill="#2d2d2d"></circle><circle cx="38.5" cy="33.5" r="1.5" fill="#2d2d2d"></circle><path fill="#434347" d="M36 51H28a1 1 0 0 1 0-2h8a1 1 0 0 1 0 2zM30 45a1 1 0 0 1-1-1V43a1 1 0 0 1 2 0v1A1 1 0 0 1 30 45zM34 45a1 1 0 0 1-1-1V43a1 1 0 0 1 2 0v1A1 1 0 0 1 34 45z"></path></svg>