<svg xmlns="http://www.w3.org/2000/svg" viewBox="0 0 64 64" id="cow"><path fill="#edcad4" d="M51,47.5v2A7.5,7.5,0,0,1,43.5,57h-23A7.5,7.5,0,0,1,13,49.5v-2A7.52,7.52,0,0,1,20.5,40h23A7.52,7.52,0,0,1,51,47.5Z"></path><circle cx="23.5" cy="48.5" r="2.5" fill="#9d5b6e"></circle><circle cx="40.5" cy="48.5" r="2.5" fill="#9d5b6e"></circle><path fill="#aeadb3" d="M21.5,16l-.18,1.07a14,14,0,0,0-5.18,9.47A10.84,10.84,0,0,1,13,27H7A11,11,0,0,1,18,16Z"></path><path fill="#aeadb3" d="M21.5 16l-.18 1.07a14 14 0 0 0-5.18 9.47A10.84 10.84 0 0 1 13 27H7A11 11 0 0 1 18 16zM57 27H51a10.84 10.84 0 0 1-3.14-.46 14 14 0 0 0-5.18-9.47L42.5 16H46A11 11 0 0 1 57 27z"></path><path fill="#3e2c27" d="M28.19,14.13A13.9,13.9,0,0,0,22.86,16a13.64,13.64,0,0,0-1.54,1.07L21.5,16l1.17-7a2.36,2.36,0,0,1,4.66,0Z"></path><path fill="#eaeaea" d="M47.93,28V41.46A7.4,7.4,0,0,0,43.5,40h-23a7.4,7.4,0,0,0-4.43,1.46V28c0-.49,0-1,.07-1.46a14,14,0,0,1,5.18-9.47A13.64,13.64,0,0,1,22.86,16a13.9,13.9,0,0,1,5.33-1.87A12.9,12.9,0,0,1,30.07,14h3.86a12.9,12.9,0,0,1,1.88.13A13.9,13.9,0,0,1,41.14,16a13.64,13.64,0,0,1,1.54,1.07,14,14,0,0,1,5.18,9.47C47.9,27,47.93,27.51,47.93,28Z"></path><circle cx="25.5" cy="29.5" r="1.5" fill="#2d2d2d"></circle><circle cx="38.5" cy="29.5" r="1.5" fill="#2d2d2d"></circle><path fill="#3e2c27" d="M42.68,17.07A13.64,13.64,0,0,0,41.14,16a13.9,13.9,0,0,0-5.33-1.87L36.67,9a2.36,2.36,0,0,1,4.66,0l1.17,7Z"></path></svg>