<svg xmlns="http://www.w3.org/2000/svg" viewBox="0 0 64 64" id="panda"><path fill="#d8d9dd" d="M57,38.33C57,50.76,45.81,57,32,57S7,50.76,7,38.33a27,27,0,0,1,5.81-16,27,27,0,0,1,11.07-8.71,21,21,0,0,1,16.24,0,27,27,0,0,1,11.07,8.71A27,27,0,0,1,57,38.33Z"></path><path fill="#434347" d="M23.88 13.63a27 27 0 0 0-11.07 8.71 8 8 0 1 1 11.07-8.71zM56 15a8 8 0 0 1-4.81 7.34 27 27 0 0 0-11.07-8.71A8 8 0 0 1 56 15zM18.74 40a5.66 5.66 0 0 1-5.6-7c1-4.83 7.55-8 11.21-8C31.48 25 27.4 40 18.74 40zM45.26 40a5.66 5.66 0 0 0 5.6-7c-1-4.83-7.55-8-11.21-8C32.52 25 36.6 40 45.26 40z"></path><circle cx="23.5" cy="30.5" r="1.5" fill="#2d2d2d"></circle><circle cx="40.5" cy="30.5" r="1.5" fill="#2d2d2d"></circle><path fill="#434347" d="M32,50a1,1,0,0,1-1-1V43a1,1,0,0,1,2,0v6A1,1,0,0,1,32,50Z"></path><path fill="#434347" d="M37,50H27a1,1,0,0,1,0-2H37a1,1,0,0,1,0,2Z"></path><path fill="#3e2c27" d="M32,43.38h0l-2.23-1.12A1.4,1.4,0,0,1,29,41h0a1.39,1.39,0,0,1,1.39-1.39h3.22A1.39,1.39,0,0,1,35,41h0a1.4,1.4,0,0,1-.77,1.24Z"></path></svg>