<svg xmlns="http://www.w3.org/2000/svg" viewBox="0 0 64 64" id="pig"><path fill="#d37b93" d="M55.9,49a11.34,11.34,0,0,1-10.81,8H18.91A11.32,11.32,0,0,1,8.21,42l7.64-22.14A11,11,0,0,0,22,16.74L27.78,11h8.31l5.74,5.74a10.92,10.92,0,0,0,6.33,3.12L55.79,42A11.33,11.33,0,0,1,55.9,49Z"></path><path fill="#d37b93" d="M55.9,49a11.34,11.34,0,0,1-10.81,8H18.91A11.32,11.32,0,0,1,8.21,42l7.64-22.14A11,11,0,0,0,22,16.74L27.78,11h8.31l5.74,5.74a10.92,10.92,0,0,0,6.33,3.12L55.79,42A11.33,11.33,0,0,1,55.9,49Z"></path><circle cx="22.5" cy="30.5" r="1.5" fill="#2d2d2d"></circle><circle cx="41.5" cy="30.5" r="1.5" fill="#2d2d2d"></circle><path fill="#edcad4" d="M28.39 10.39l-.61.61L22 16.74a11 11 0 0 1-15.56 0l6.35-6.35A11 11 0 0 1 28.39 10.39zM57.39 16.74a11 11 0 0 1-15.56 0L36.09 11l-.61-.61a11 11 0 0 1 15.56 0zM27 38H37a6 6 0 0 1 6 6v0a9 9 0 0 1-9 9H30a9 9 0 0 1-9-9v0A6 6 0 0 1 27 38z"></path><circle cx="27" cy="46" r="2" fill="#9d5b6e"></circle><circle cx="37" cy="46" r="2" fill="#9d5b6e"></circle></svg>