<?xml version="1.0" encoding="utf-8"?>

<!-- Uploaded to: SVG Repo, www.svgrepo.com, Generator: SVG Repo Mixer Tools -->
<svg version="1.1" id="Icons" xmlns="http://www.w3.org/2000/svg" xmlns:xlink="http://www.w3.org/1999/xlink" 
	 viewBox="0 0 32 32" xml:space="preserve">
<style type="text/css">
	.st0{fill:none;stroke:#000000;stroke-width:2;stroke-linecap:round;stroke-linejoin:round;stroke-miterlimit:10;}
</style>
<path d="M23,14c-1.3,0-2.5,0.3-3.6,1h-6.8c-1.1-0.7-2.3-1-3.6-1c-3.9,0-7,3.1-7,7s3.1,7,7,7c1.3,0,2.5-0.3,3.6-1h6.8
	c1.1,0.7,2.3,1,3.6,1c3.9,0,7-3.1,7-7S26.9,14,23,14z M11,22h-1v1c0,0.6-0.4,1-1,1s-1-0.4-1-1v-1H7c-0.6,0-1-0.4-1-1s0.4-1,1-1h1v-1
	c0-0.6,0.4-1,1-1s1,0.4,1,1v1h1c0.6,0,1,0.4,1,1S11.6,22,11,22z M22.1,18.6c0-0.1,0.1-0.2,0.2-0.3c0.2-0.2,0.6-0.3,0.9-0.3
	c0.1,0,0.1,0,0.2,0.1c0.1,0,0.1,0.1,0.2,0.1c0,0,0.1,0.1,0.2,0.1c0.2,0.2,0.3,0.4,0.3,0.7c0,0.1,0,0.1,0,0.2c0,0.1,0,0.1-0.1,0.2
	c0,0.1,0,0.1-0.1,0.2c0,0-0.1,0.1-0.1,0.1c0,0-0.1,0.1-0.2,0.1c-0.1,0-0.1,0.1-0.2,0.1c-0.1,0-0.1,0-0.2,0.1c-0.1,0-0.1,0-0.2,0
	c-0.3,0-0.5-0.1-0.7-0.3c0-0.1-0.1-0.1-0.1-0.1c0-0.1-0.1-0.1-0.1-0.2c0-0.1,0-0.1-0.1-0.2c0-0.1,0-0.1,0-0.2
	C22,18.9,22,18.7,22.1,18.6z M21.7,21.7C21.5,21.9,21.3,22,21,22c-0.1,0-0.3,0-0.4-0.1c-0.1-0.1-0.2-0.1-0.3-0.2
	c-0.1-0.1-0.2-0.2-0.2-0.3C20,21.3,20,21.1,20,21c0-0.3,0.1-0.5,0.3-0.7c0.1-0.1,0.2-0.2,0.3-0.2c0.4-0.2,0.8-0.1,1.1,0.2
	c0.2,0.2,0.3,0.4,0.3,0.7c0,0.1,0,0.3-0.1,0.4S21.8,21.6,21.7,21.7z M23.9,23.4c0,0.1-0.1,0.2-0.2,0.3c0,0-0.1,0.1-0.2,0.1
	c-0.1,0-0.1,0.1-0.2,0.1c-0.1,0-0.1,0-0.2,0.1c-0.1,0-0.1,0-0.2,0c-0.3,0-0.5-0.1-0.7-0.3c-0.1-0.1-0.2-0.2-0.2-0.3
	C22,23.3,22,23.1,22,23c0-0.1,0-0.1,0-0.2c0-0.1,0-0.1,0.1-0.2c0-0.1,0-0.1,0.1-0.2c0-0.1,0.1-0.1,0.1-0.1c0.4-0.4,1-0.4,1.4,0
	c0,0,0.1,0.1,0.1,0.1c0,0.1,0.1,0.1,0.1,0.2c0,0.1,0,0.1,0.1,0.2c0,0.1,0,0.1,0,0.2C24,23.1,24,23.3,23.9,23.4z M26,21.2
	c0,0.1,0,0.1-0.1,0.2c0,0.1,0,0.1-0.1,0.2c0,0-0.1,0.1-0.1,0.1c-0.1,0.1-0.2,0.2-0.3,0.2C25.3,22,25.1,22,25,22c-0.1,0-0.1,0-0.2,0
	c-0.1,0-0.1,0-0.2-0.1c-0.1,0-0.1-0.1-0.2-0.1c0,0-0.1-0.1-0.1-0.1C24.1,21.5,24,21.3,24,21c0-0.3,0.1-0.5,0.3-0.7
	c0.3-0.3,0.7-0.4,1.1-0.2c0.1,0.1,0.2,0.1,0.3,0.2c0,0,0.1,0.1,0.1,0.1c0,0.1,0.1,0.1,0.1,0.2c0,0.1,0,0.1,0.1,0.2
	c0,0.1,0,0.1,0,0.2S26,21.1,26,21.2z"/>
<path d="M10.4,6c3.7-1.3,7.6-1.3,11.2,0C21.7,6,21.8,6,21.9,6c0.4,0,0.8-0.3,0.9-0.7c0.2-0.5-0.1-1.1-0.6-1.3
	c-4.1-1.4-8.4-1.4-12.5,0C9.2,4.3,8.9,4.8,9.1,5.4C9.3,5.9,9.9,6.2,10.4,6z"/>
<path d="M20.3,9.7c0.4,0,0.8-0.3,0.9-0.7c0.2-0.5-0.1-1.1-0.6-1.3c-3-1.1-6.2-1.1-9.2,0c-0.5,0.2-0.8,0.8-0.6,1.3
	c0.2,0.5,0.8,0.8,1.3,0.6c2.6-0.9,5.3-0.9,7.9,0C20.1,9.7,20.2,9.7,20.3,9.7z"/>
<path d="M13,11.5c-0.5,0.2-0.8,0.8-0.6,1.3c0.2,0.5,0.8,0.8,1.3,0.6c1.5-0.5,3.1-0.5,4.6,0c0.1,0,0.2,0.1,0.3,0.1
	c0.4,0,0.8-0.3,0.9-0.7c0.2-0.5-0.1-1.1-0.6-1.3C17,10.8,15,10.8,13,11.5z"/>
</svg>