<?xml version="1.0" encoding="iso-8859-1"?>
<!-- Uploaded to: SVG Repo, www.svgrepo.com, Generator: SVG Repo Mixer Tools -->
<svg height="800px" width="800px" version="1.1" id="Layer_1" xmlns="http://www.w3.org/2000/svg" xmlns:xlink="http://www.w3.org/1999/xlink" 
	 viewBox="0 0 512 512" xml:space="preserve">
<path style="fill:#95673F;" d="M89.043,512H55.652c-27.619,0-50.087-22.468-50.087-50.087V395.13
	c0-27.619,22.468-50.087,50.087-50.087h33.391c9.217,0,16.696,7.473,16.696,16.696v133.565C105.739,504.527,98.261,512,89.043,512z"
	/>
<path style="fill:#875334;" d="M306.087,495.304V361.739c0-9.223,7.479-16.696,16.696-16.696h33.391
	c27.619,0,50.087,22.468,50.087,50.087v66.783c0,27.619-22.468,50.087-50.087,50.087h-33.391
	C313.565,512,306.087,504.527,306.087,495.304z"/>
<path style="fill:#6E6057;" d="M406.261,108.522v320c0,9.238-7.457,16.696-16.696,16.696c-9.238,0-16.696-7.457-16.696-16.696v-320
	c0-41.405-33.725-75.13-75.13-75.13s-75.13,33.725-75.13,75.13V128c0,9.238-7.457,16.696-16.696,16.696
	c-9.238,0-16.696-7.457-16.696-16.696v-19.478c0-21.259,6.122-41.071,16.696-57.767C225.169,20.257,259.117,0,297.739,0
	C357.621,0,406.261,48.64,406.261,108.522z"/>
<path style="fill:#615349;" d="M406.261,108.522v320c0,9.238-7.457,16.696-16.696,16.696c-9.238,0-16.696-7.457-16.696-16.696v-320
	c0-41.405-33.725-75.13-75.13-75.13s-75.13,33.725-75.13,75.13V128c0,9.238-7.457,16.696-16.696,16.696V50.755
	C225.169,20.257,259.117,0,297.739,0C357.621,0,406.261,48.64,406.261,108.522z"/>
<path style="fill:#95673F;" d="M205.913,111.304c-27.619,0-50.087,22.468-50.087,50.109l0.076,38.229
	c0.022,9.206,7.49,16.652,16.696,16.652c0.011,0,0.032,0,0.043,0h66.543c0.011,0,0.032,0,0.043,0
	c9.196,0,16.673-7.445,16.696-16.652L256,161.391C256,133.772,233.532,111.304,205.913,111.304z"/>
<path style="fill:#875334;" d="M239.185,216.293c0.011,0,0.032,0,0.043,0c9.196,0,16.673-7.445,16.696-16.652l0.076-38.25
	c0-27.619-22.468-50.087-50.087-50.087v104.989L239.185,216.293L239.185,216.293z"/>
<path style="fill:#E79D2E;" d="M339.478,512V315.562c0-69.513-51.492-130.36-120.7-136.869
	c-79.411-7.47-146.431,55.067-146.431,132.959V512H339.478z"/>
<path style="fill:#D8842A;" d="M218.779,178.692c-4.335-0.407-8.614-0.519-12.866-0.518V512h133.565V315.562
	C339.478,246.049,287.987,185.203,218.779,178.692z"/>
<g>
	<path style="fill:#6E6057;" d="M205.913,445.217c-9.217,0-16.696-7.473-16.696-16.696V395.13c0-9.223,7.479-16.696,16.696-16.696
		c9.217,0,16.696,7.473,16.696,16.696v33.391C222.609,437.744,215.13,445.217,205.913,445.217z"/>
	<path style="fill:#6E6057;" d="M489.739,512H289.391c-9.217,0-16.696-7.473-16.696-16.696V468.87
		c0-31.457,25.587-57.043,57.043-57.043h119.652c31.457,0,57.043,25.587,57.043,57.043v26.435
		C506.435,504.527,498.956,512,489.739,512z"/>
	<path style="fill:#6E6057;" d="M205.913,345.043c-27.619,0-50.087-22.468-50.087-50.087s22.468-50.087,50.087-50.087
		S256,267.337,256,294.957S233.532,345.043,205.913,345.043z"/>
</g>
<path style="fill:#DBE9FD;" d="M205.913,278.261c-9.206,0-16.696,7.49-16.696,16.696c0,9.206,7.49,16.696,16.696,16.696
	s16.696-7.49,16.696-16.696C222.609,285.751,215.119,278.261,205.913,278.261z"/>
<path style="fill:#615349;" d="M256,294.957c0-27.619-22.468-50.087-50.087-50.087v100.174C233.532,345.043,256,322.576,256,294.957
	z"/>
<path style="fill:#C5DCFD;" d="M222.609,294.957c0-9.206-7.49-16.696-16.696-16.696v33.391
	C215.119,311.652,222.609,304.162,222.609,294.957z"/>
<path style="fill:#615349;" d="M222.609,428.522V395.13c0-9.223-7.479-16.696-16.696-16.696v66.783
	C215.13,445.217,222.609,437.744,222.609,428.522z"/>
</svg>