<?xml version="1.0" encoding="utf-8"?>
<!-- Uploaded to: SVG Repo, www.svgrepo.com, Generator: SVG Repo Mixer Tools -->
<svg width="800px" height="800px" viewBox="0 -56 1136 1136" class="icon"  version="1.1" xmlns="http://www.w3.org/2000/svg"><path d="M243.396923 104.566154s-17.132308 0-25.6 24.418461v42.732308h723.101539V125.243077s-6.104615-19.495385-26.781539-20.676923-670.72 0-670.72 0z" fill="#FF8598" /><path d="M956.061538 120.516923c-3.544615-11.224615-16.147692-30.326154-41.156923-31.901538-20.873846-1.181538-645.12 0-671.704615 0-10.633846 0-30.916923 7.483077-40.566154 35.052307l-0.984615 2.56v61.243077h755.003077V122.88l-0.59077-2.363077z m-712.073846 0c181.169231-0.393846 652.603077-0.984615 669.144616 0 6.892308 0.393846 10.436923 5.316923 11.815384 7.876923v27.372308h-691.2V131.938462c3.938462-9.649231 9.058462-11.224615 10.24-11.421539z m-0.590769 0h0.590769-0.590769z" fill="#493B4E" /><path d="M233.550769 208.344615L104.369231 350.916923s6.104615 102.4 102.4 93.932308c0 0 74.436923 0 90.190769-86.646154 0 0 15.950769 92.553846 96.295385 87.04 0 0 79.36 4.332308 91.372307-91.963077 0 0 21.858462 95.310769 97.476923 92.16 0 0 77.981538 4.135385 95.113847-92.16 0 0 17.132308 90.584615 92.750769 92.356923 0 0 91.372308-3.150769 95.113846-90.978461l6.104615 1.181538s15.950769 88.221538 93.932308 89.796923c0 0 96.295385-4.529231 93.932308-97.083077l-132.923077-140.209231H233.550769z" fill="#FF8598" /><path d="M1075.003077 342.055385l-141.784615-149.661539H226.461538l-138.436923 152.812308 0.393847 6.695384c0.196923 2.166154 3.544615 54.350769 40.36923 86.055385 20.676923 17.723077 47.064615 25.403077 78.769231 22.843077 23.827692-0.196923 65.575385-13.193846 89.6-55.532308 16.738462 30.326154 47.261538 59.076923 96.295385 56.123077 26.190769 1.181538 70.695385-11.421538 93.932307-59.273846 18.116923 31.310769 48.64 61.046154 94.916923 59.470769 25.6 1.181538 70.892308-11.618462 96.098462-60.258461 16.738462 30.129231 45.883077 59.273846 91.372308 60.258461h0.787692c28.750769-0.984615 78.178462-15.950769 99.84-61.44 16.344615 30.326154 46.08 60.455385 94.326154 61.44h1.181538c38.793846-1.772308 111.261538-27.766154 109.095385-113.427692v-6.104615z m-493.292308 87.630769c-61.44 2.56-80.541538-76.603077-81.329231-79.950769l-20.086153-87.236923-11.224616 88.812307c-9.846154 78.572308-68.332308 78.375385-74.830769 78.178462h-1.969231c-64.787692 4.332308-78.966154-70.695385-79.556923-73.846154l-15.163077-88.418462-16.147692 88.221539c-13.193846 71.876923-72.270769 73.452308-74.633846 73.452308h-1.378462c-22.843077 1.969231-41.550769-2.953846-55.532307-14.966154-20.283077-17.329231-26.781538-45.292308-28.75077-57.698462l119.729231-132.135384H919.630769l123.864616 130.756923c-1.969231 67.544615-68.332308 74.24-78.178462 74.830769-63.409231-1.772308-77.390769-73.649231-77.981538-76.8l-1.969231-10.633846-35.052308-7.089231-0.787692 18.510769c-2.953846 69.907692-72.861538 75.421538-79.36 75.815385-61.243077-1.772308-76.209231-76.209231-76.8-79.36l-16.147692-85.661539-15.163077 85.661539c-14.375385 80.738462-76.012308 79.163077-78.572308 79.163077h-0.787692l-0.984616 0.393846z" fill="#493B4E" /><path d="M219.766154 511.606154v412.16s0.787692 19.495385 23.630769 19.495384h674.855385s23.630769 0.787692 23.630769-21.070769V511.606154s-39.778462-0.787692-66.756923-37.415385v211.298462l-588.603077 0.787692 2.363077-212.283077c0 0.196923-18.707692 33.476923-69.12 37.612308z" fill="#FF8598" /><path d="M957.636923 496.246154l-15.36-0.590769c-1.378462 0-32.689231-1.575385-54.350769-30.916923l-28.750769-39.187693v244.184616l-556.701539 0.787692 2.953846-258.363077-30.523077 54.350769c-0.196923 0.196923-15.753846 25.993846-56.516923 29.341539l-14.572307 1.181538V924.553846c0.590769 13.981538 11.618462 34.855385 39.384615 34.855385H918.449231c4.529231 0 18.313846-0.787692 28.553846-10.830769 4.726154-4.529231 10.436923-12.996923 10.436923-26.19077V511.606154l0.196923-15.36z m-66.56 205.193846v-190.818462c12.8 8.270769 25.403077 12.406154 34.855385 14.572308v396.8c0 0.787692 0 2.56-0.787693 3.347692-1.181538 1.181538-4.726154 1.969231-6.301538 1.969231h-675.446154c-5.12 0-7.286154-1.378462-7.68-4.135384v-397.784616c14.966154-2.953846 27.175385-8.270769 36.824615-14.178461l-2.166153 191.015384 620.701538-0.787692z" fill="#493B4E" /></svg>