<?xml version="1.0" encoding="utf-8"?><!-- Uploaded to: SVG Repo, www.svgrepo.com, Generator: SVG Repo Mixer Tools -->
<svg fill="#000000" width="800px" height="800px" viewBox="0 0 24 24" id="monitor-lcd" data-name="Flat Color" xmlns="http://www.w3.org/2000/svg" class="icon flat-color"><path id="secondary" d="M16.92,19.58l-1-3.82A1,1,0,0,0,15,15H9a1,1,0,0,0-1,.76l-.95,3.82a1,1,0,0,0,.23.92,1,1,0,0,0,.9.31,24.09,24.09,0,0,1,7.58,0H16a1,1,0,0,0,.74-.32A1,1,0,0,0,16.92,19.58Z" style="fill: rgb(44, 169, 188);"></path><path id="primary" d="M20,20.78a1,1,0,0,1-1,.72.9.9,0,0,1-.28,0,24,24,0,0,0-13.44,0,1,1,0,0,1-.56-1.92,25.94,25.94,0,0,1,14.56,0A1,1,0,0,1,20,20.78ZM20,3H4A2,2,0,0,0,2,5V15a2,2,0,0,0,2,2H20a2,2,0,0,0,2-2V5A2,2,0,0,0,20,3Z" style="fill: rgb(0, 0, 0);"></path></svg>