<?xml version="1.0" encoding="iso-8859-1"?>
<!-- Uploaded to: SVG Repo, www.svgrepo.com, Generator: SVG Repo Mixer Tools -->
<svg height="800px" width="800px" version="1.1" id="Layer_1" xmlns="http://www.w3.org/2000/svg" xmlns:xlink="http://www.w3.org/1999/xlink" 
	 viewBox="0 0 512.001 512.001" xml:space="preserve">
<circle style="fill:#FEE187;" cx="256.008" cy="280.395" r="150.734"/>
<g>
	<path style="fill:#FFC61B;" d="M217.384,227.031c16.934,0,34.015,10.657,34.015,30.22c0,31.68-45.111,42.045-45.111,55.33v1.314
		h38.25c3.649,0,6.861,4.526,6.861,9.781s-3.211,10.073-6.861,10.073h-51.973c-4.087,0-9.927-2.773-9.927-7.008v-14.161
		c0-22.92,45.987-36.06,45.987-54.6c0-4.672-2.919-10.365-11.095-10.365c-5.838,0-10.949,2.919-10.949,10.949
		c0,4.235-4.526,8.322-11.972,8.322c-5.84,0-10.219-2.629-10.219-11.826C184.391,237.249,200.742,227.031,217.384,227.031z"/>
	<path style="fill:#FFC61B;" d="M293.302,311.266H259.14c-4.233,0-7.591-2.773-7.591-7.883c0-1.168,0.292-2.775,1.168-4.379
		l33.723-66.133c2.189-4.233,5.84-5.84,9.489-5.84c3.941,0,11.388,3.357,11.388,8.613c0,0.876-0.292,1.752-0.73,2.773
		l-25.839,51.827h12.554v-10.219c0-4.818,5.694-6.861,11.388-6.861s11.388,2.044,11.388,6.861v10.219h6.278
		c4.672,0,7.008,5.256,7.008,10.511c0,5.254-3.505,10.51-7.008,10.51h-6.278v15.475c0,4.673-5.694,7.008-11.388,7.008
		s-11.388-2.335-11.388-7.008v-15.474H293.302z"/>
	<path style="fill:#FFC61B;" d="M473.008,265.786c-8.065,0-14.603,6.538-14.603,14.603c0,111.606-90.798,202.406-202.406,202.406
		S53.595,391.996,53.595,280.389S144.393,77.985,256.001,77.985c44.436,0,87.346,14.551,122.436,41.233l-26.546,26.546
		c-27.063-19.332-60.171-30.719-95.89-30.719c-91.17,0-165.344,74.172-165.344,165.344s74.172,165.344,165.344,165.344
		s165.344-74.172,165.344-165.344c0-37.329-12.44-71.804-33.386-99.509l80.046,21.448c1.25,0.334,2.519,0.498,3.779,0.498
		c0.055,0,0.111,0,0.166,0c8.001-0.073,14.466-6.583,14.466-14.603c0-1.647-0.273-3.232-0.775-4.708L455.946,72.689
		c-1.351-5.04-5.286-8.975-10.326-10.326c-5.042-1.351-10.418,0.091-14.107,3.779l-32.26,32.26
		c-36.911-29.081-81.727-46.203-128.649-49.154V29.206h17.717c8.065,0,14.603-6.538,14.603-14.603S296.386,0,288.32,0h-64.639
		c-8.065,0-14.603,6.538-14.603,14.603s6.538,14.603,14.603,14.603h17.717v20.046C120.466,56.815,24.389,157.584,24.389,280.389
		c0,127.71,103.9,231.612,231.612,231.612s231.612-103.9,231.612-231.612C487.611,272.324,481.073,265.786,473.008,265.786z
		 M256.001,416.527c-75.066,0-136.138-61.072-136.138-136.138s61.07-136.138,136.138-136.138s136.138,61.07,136.138,136.138
		S331.067,416.527,256.001,416.527z M434.28,104.68l16.852,62.891l-62.891-16.852L434.28,104.68z"/>
</g>
</svg>