<?xml version="1.0" encoding="iso-8859-1"?>
<!-- Uploaded to: SVG Repo, www.svgrepo.com, Generator: SVG Repo Mixer Tools -->
<svg height="800px" width="800px" version="1.1" id="Layer_1" xmlns="http://www.w3.org/2000/svg" xmlns:xlink="http://www.w3.org/1999/xlink" 
	 viewBox="0 0 512 512" xml:space="preserve">
<path style="fill:#DBDDDD;" d="M353.635,35.608h-15.672h-17.603H252.68c-4.61,0-8.348,3.736-8.348,8.348s3.738,8.348,8.348,8.348
	h67.681h17.603h15.672c18.492,0,33.537,15.045,33.537,33.537s-15.045,33.537-33.537,33.537h-15.672h-17.603h-23.666
	c-27.698,0-50.232,22.535-50.232,50.233v37.079c0,4.611,3.736,8.348,8.348,8.348s8.348-3.736,8.348-8.348v-37.079
	c0-18.492,15.044-33.537,33.536-33.537h23.666h17.603h15.672c27.699,0,50.233-22.535,50.233-50.233S381.333,35.608,353.635,35.608z"
	/>
<path style="fill:#547475;" d="M386.81,197.891H24.726C11.068,197.891,0,208.963,0,222.618v229.048
	c0,13.655,11.068,24.726,24.726,24.726h462.549c13.655,0,24.725-11.071,24.725-24.726V222.618c0-13.655-11.07-24.726-24.725-24.726
	h-73.751"/>
<path style="opacity:0.15;fill:#231F20;enable-background:new    ;" d="M17.809,451.665V222.618
	c0-13.655,11.068-24.726,24.726-24.726H24.726C11.068,197.891,0,208.963,0,222.618v229.048c0,13.655,11.068,24.726,24.726,24.726
	h17.809C28.877,476.391,17.809,465.32,17.809,451.665z"/>
<g>
	<circle style="fill:#53CAF9;" cx="382.887" cy="374.328" r="20.773"/>
	<circle style="fill:#53CAF9;" cx="425.817" cy="299.954" r="20.773"/>
</g>
<path style="fill:#F74848;" d="M127.471,322.454h-19.595v-19.595c0-3.688-2.991-6.678-6.678-6.678h-16.02
	c-3.688,0-6.678,2.991-6.678,6.678v19.595H58.904c-3.689,0-6.678,2.99-6.678,6.678v16.02c0,3.689,2.99,6.678,6.678,6.678H78.5
	v19.595c0,3.688,2.991,6.678,6.678,6.678h16.02c3.688,0,6.678-2.991,6.678-6.678v-19.595h19.595c3.688,0,6.678-2.99,6.678-6.678
	v-16.02C134.15,325.445,131.16,322.454,127.471,322.454z"/>
<g>
	<path style="fill:#8AACAD;" d="M210.463,447.064c-4.61,0-8.348-3.725-8.348-8.336v-0.024c0-4.611,3.738-8.348,8.348-8.348
		c4.61,0,8.348,3.736,8.348,8.348C218.811,443.315,215.073,447.064,210.463,447.064z"/>
	<path style="fill:#8AACAD;" d="M301.537,447.064c-4.61,0-8.348-3.725-8.348-8.336v-0.024c0-4.611,3.738-8.348,8.348-8.348
		s8.348,3.736,8.348,8.348C309.885,443.315,306.147,447.064,301.537,447.064z"/>
	<path style="fill:#8AACAD;" d="M271.179,447.064c-4.61,0-8.348-3.725-8.348-8.336v-0.024c0-4.611,3.738-8.348,8.348-8.348
		s8.348,3.736,8.348,8.348C279.526,443.315,275.788,447.064,271.179,447.064z"/>
	<path style="fill:#8AACAD;" d="M240.819,447.064c-4.61,0-8.348-3.725-8.348-8.336v-0.024c0-4.611,3.738-8.348,8.348-8.348
		c4.61,0,8.348,3.736,8.348,8.348C249.167,443.315,245.429,447.064,240.819,447.064z"/>
</g>
<g>
	<path style="fill:#415B5B;" d="M301.537,277.707h-91.074c-4.61,0-8.348-3.736-8.348-8.348c0-4.611,3.738-8.348,8.348-8.348h91.074
		c4.61,0,8.348,3.736,8.348,8.348C309.885,273.97,306.147,277.707,301.537,277.707z"/>
	<path style="fill:#415B5B;" d="M301.537,317.151h-91.074c-4.61,0-8.348-3.736-8.348-8.348c0-4.611,3.738-8.348,8.348-8.348h91.074
		c4.61,0,8.348,3.736,8.348,8.348C309.885,313.413,306.147,317.151,301.537,317.151z"/>
	<path style="fill:#415B5B;" d="M301.537,356.594h-91.074c-4.61,0-8.348-3.736-8.348-8.348c0-4.611,3.738-8.348,8.348-8.348h91.074
		c4.61,0,8.348,3.736,8.348,8.348S306.147,356.594,301.537,356.594z"/>
	<path style="fill:#415B5B;" d="M301.537,396.035h-91.074c-4.61,0-8.348-3.736-8.348-8.348c0-4.61,3.738-8.348,8.348-8.348h91.074
		c4.61,0,8.348,3.738,8.348,8.348C309.885,392.298,306.147,396.035,301.537,396.035z"/>
</g>
<path style="fill:#8AACAD;" d="M223.82,226.172h64.361c7.377,0,13.357-5.98,13.357-13.357v-14.924h-91.074v14.924
	C210.463,220.191,216.442,226.172,223.82,226.172z"/>
<path style="opacity:0.1;fill:#231F20;enable-background:new    ;" d="M228.272,212.815v-14.924h-17.809v14.924
	c0,7.376,5.979,13.357,13.357,13.357h17.809C234.251,226.172,228.272,220.191,228.272,212.815z"/>
</svg>